<?xml version="1.0" encoding="UTF-8"?>
<svg id="Layer_1" data-name="Layer 1" xmlns="http://www.w3.org/2000/svg" viewBox="0 0 787.98 200.75">
  <defs>
    <style>
      .cls-1 {
        fill: #8ba84c;
      }

      .cls-2 {
        fill: #636569;
      }
    </style>
  </defs>
  <g>
    <path class="cls-2" d="M223.06,55.73v89.75h-15.71v-40.48h-40.84v40.48h-15.71V55.73h15.71v35.7h40.84V55.73h15.71Zm-87.98,89.75h-15.71V55.73h15.71v89.75Zm-31.19,0h-16.59L46.44,79.48h-.37v65.99h-14.97V55.73h16.6l40.97,66.11h.25V55.73h14.96v89.75Zm174.53-45.18L222.91,0H18.48C8.27,0,0,8.29,0,18.49V182.27c0,10.21,8.27,18.48,18.48,18.48H222.72l55.69-100.46Z"/>
    <path class="cls-2" d="M236.65,200.75l55.63-100.46L236.83,0h13.88c7.6,0,16.84,5.45,20.5,12.1l48.76,88.19-48.93,88.38c-3.68,6.64-12.91,12.08-20.51,12.08h-13.89Z"/>
    <path class="cls-1" d="M236.65,200.75l55.63-100.46L236.83,0h13.89c7.59,0,16.84,5.45,20.5,12.1l48.76,88.19-48.92,88.38c-3.68,6.64-12.92,12.08-20.51,12.08h-13.89Z"/>
  </g>
  <g>
    <path class="cls-2" d="M379.88,53.29c-.3-1.15-.71-2.21-1.23-3.18-.52-.97-1.19-1.8-2.01-2.51-.82-.71-1.77-1.25-2.87-1.64-1.1-.39-2.37-.59-3.82-.59-2.12,0-3.95,.43-5.49,1.28-1.54,.85-2.8,2-3.76,3.43-.97,1.43-1.68,3.06-2.15,4.88-.47,1.82-.7,3.68-.7,5.57s.23,3.75,.7,5.57c.46,1.82,1.18,3.45,2.15,4.88,.97,1.43,2.22,2.57,3.76,3.43,1.54,.86,3.37,1.28,5.49,1.28,1.56,0,2.94-.27,4.12-.81,1.19-.54,2.21-1.28,3.07-2.23,.85-.95,1.52-2.05,2.01-3.32,.48-1.26,.8-2.62,.95-4.07h6.8c-.15,2.38-.66,4.55-1.53,6.52-.87,1.97-2.05,3.67-3.54,5.1-1.49,1.43-3.23,2.54-5.24,3.32-2.01,.78-4.22,1.17-6.63,1.17-2.97,0-5.64-.55-8-1.64-2.36-1.1-4.36-2.59-5.99-4.49-1.64-1.9-2.89-4.1-3.76-6.63-.87-2.53-1.31-5.22-1.31-8.08s.44-5.5,1.31-8.03c.87-2.53,2.13-4.74,3.76-6.63,1.63-1.9,3.63-3.4,5.99-4.51,2.36-1.11,5.02-1.67,8-1.67,2.23,0,4.33,.31,6.3,.92,1.97,.61,3.71,1.5,5.21,2.68s2.72,2.59,3.65,4.26c.93,1.67,1.5,3.59,1.73,5.74h-6.97Z"/>
    <path class="cls-2" d="M397.32,67.67c0,1.11,.16,2.19,.47,3.23,.32,1.04,.79,1.95,1.42,2.73,.63,.78,1.43,1.4,2.4,1.87,.96,.46,2.12,.7,3.46,.7,1.86,0,3.35-.4,4.49-1.2,1.13-.8,1.98-2,2.54-3.6h6.02c-.34,1.56-.91,2.95-1.73,4.18-.82,1.23-1.8,2.26-2.96,3.09-1.15,.84-2.44,1.47-3.87,1.9-1.43,.43-2.93,.64-4.49,.64-2.27,0-4.27-.37-6.02-1.11-1.75-.74-3.22-1.78-4.43-3.12-1.21-1.34-2.12-2.94-2.73-4.79-.61-1.86-.92-3.9-.92-6.13,0-2.04,.32-3.99,.98-5.82,.65-1.84,1.58-3.46,2.79-4.85,1.21-1.39,2.67-2.5,4.37-3.32,1.71-.82,3.64-1.23,5.8-1.23,2.27,0,4.3,.47,6.1,1.42,1.8,.95,3.3,2.2,4.49,3.76,1.19,1.56,2.05,3.35,2.59,5.38,.54,2.03,.68,4.12,.42,6.27h-21.18Zm14.83-4.18c-.07-1-.29-1.97-.64-2.9-.35-.93-.84-1.74-1.45-2.42-.61-.69-1.36-1.24-2.23-1.67-.87-.43-1.85-.64-2.93-.64s-2.13,.19-3.04,.58c-.91,.39-1.69,.93-2.34,1.62-.65,.69-1.17,1.5-1.56,2.42-.39,.93-.6,1.93-.64,3.01h14.83Z"/>
    <path class="cls-2" d="M423.35,51.62h6.02v4.24l.11,.11c.97-1.6,2.23-2.85,3.79-3.76,1.56-.91,3.29-1.37,5.18-1.37,3.16,0,5.65,.82,7.47,2.45,1.82,1.64,2.73,4.09,2.73,7.36v19.79h-6.35v-18.11c-.08-2.27-.56-3.91-1.45-4.93-.89-1.02-2.29-1.53-4.18-1.53-1.08,0-2.04,.19-2.9,.58-.86,.39-1.58,.93-2.17,1.62-.59,.69-1.06,1.5-1.39,2.42-.33,.93-.5,1.91-.5,2.95v17h-6.35v-28.82Z"/>
    <path class="cls-2" d="M452.45,51.62h4.79v-8.64h6.35v8.64h5.74v4.74h-5.74v15.38c0,.67,.03,1.25,.08,1.73s.19,.89,.39,1.23,.51,.58,.92,.75c.41,.17,.97,.25,1.67,.25,.45,0,.89,0,1.34-.03,.45-.02,.89-.08,1.34-.19v4.9c-.71,.07-1.39,.15-2.06,.22-.67,.07-1.36,.11-2.06,.11-1.67,0-3.02-.16-4.04-.47-1.02-.31-1.82-.78-2.4-1.39-.58-.61-.97-1.38-1.17-2.31-.21-.93-.33-1.99-.36-3.18v-17h-4.79v-4.74Z"/>
    <path class="cls-2" d="M478.86,67.67c0,1.11,.16,2.19,.47,3.23,.32,1.04,.79,1.95,1.42,2.73s1.43,1.4,2.4,1.87c.97,.46,2.12,.7,3.46,.7,1.86,0,3.35-.4,4.49-1.2,1.13-.8,1.98-2,2.54-3.6h6.02c-.33,1.56-.91,2.95-1.73,4.18s-1.8,2.26-2.95,3.09c-1.15,.84-2.44,1.47-3.87,1.9-1.43,.43-2.93,.64-4.49,.64-2.27,0-4.27-.37-6.02-1.11-1.75-.74-3.22-1.78-4.43-3.12-1.21-1.34-2.12-2.94-2.73-4.79-.61-1.86-.92-3.9-.92-6.13,0-2.04,.32-3.99,.97-5.82,.65-1.84,1.58-3.46,2.79-4.85,1.21-1.39,2.67-2.5,4.38-3.32,1.71-.82,3.64-1.23,5.8-1.23,2.27,0,4.3,.47,6.1,1.42,1.8,.95,3.3,2.2,4.49,3.76,1.19,1.56,2.05,3.35,2.59,5.38,.54,2.03,.68,4.12,.42,6.27h-21.18Zm14.83-4.18c-.08-1-.29-1.97-.64-2.9-.35-.93-.84-1.74-1.45-2.42-.61-.69-1.36-1.24-2.23-1.67-.87-.43-1.85-.64-2.93-.64s-2.13,.19-3.04,.58c-.91,.39-1.69,.93-2.34,1.62-.65,.69-1.17,1.5-1.56,2.42-.39,.93-.6,1.93-.64,3.01h14.83Z"/>
    <path class="cls-2" d="M504.89,51.62h5.96v5.57h.11c.19-.78,.55-1.54,1.09-2.29,.54-.74,1.19-1.42,1.95-2.03,.76-.61,1.61-1.1,2.54-1.48,.93-.37,1.88-.56,2.84-.56,.74,0,1.25,.02,1.53,.06,.28,.04,.57,.07,.86,.11v6.13c-.45-.07-.9-.14-1.37-.19s-.92-.08-1.37-.08c-1.08,0-2.09,.21-3.04,.64-.95,.43-1.78,1.06-2.48,1.9-.71,.84-1.26,1.87-1.67,3.09-.41,1.23-.61,2.64-.61,4.24v13.71h-6.35v-28.82Z"/>
    <path class="cls-2" d="M537.16,51.62h4.74v-2.4c0-1.82,.22-3.3,.67-4.43,.45-1.13,1.04-2.01,1.78-2.62,.74-.61,1.59-1.02,2.54-1.23,.95-.2,1.94-.31,2.98-.31,2.04,0,3.53,.13,4.46,.39v4.96c-.41-.11-.85-.2-1.31-.25-.46-.06-1.01-.08-1.64-.08-.85,0-1.59,.2-2.2,.61-.61,.41-.92,1.21-.92,2.4v2.95h5.41v4.74h-5.41v24.08h-6.35v-24.08h-4.74v-4.74Z"/>
    <path class="cls-2" d="M570.77,81.21c-2.3,0-4.36-.38-6.16-1.14-1.8-.76-3.33-1.81-4.57-3.15-1.25-1.34-2.19-2.94-2.84-4.79-.65-1.86-.97-3.9-.97-6.13s.32-4.22,.97-6.08c.65-1.86,1.6-3.46,2.84-4.79s2.77-2.39,4.57-3.15c1.8-.76,3.85-1.14,6.16-1.14s4.36,.38,6.16,1.14c1.8,.76,3.32,1.81,4.57,3.15,1.24,1.34,2.19,2.94,2.84,4.79,.65,1.86,.98,3.88,.98,6.08s-.33,4.27-.98,6.13c-.65,1.86-1.6,3.46-2.84,4.79-1.25,1.34-2.77,2.39-4.57,3.15-1.8,.76-3.86,1.14-6.16,1.14Zm0-5.02c1.41,0,2.64-.3,3.68-.89,1.04-.59,1.89-1.37,2.56-2.34,.67-.97,1.16-2.05,1.48-3.26,.31-1.21,.47-2.44,.47-3.71s-.16-2.45-.47-3.68c-.32-1.23-.81-2.31-1.48-3.26-.67-.95-1.52-1.72-2.56-2.31-1.04-.59-2.27-.89-3.68-.89s-2.64,.3-3.68,.89c-1.04,.59-1.89,1.37-2.56,2.31-.67,.95-1.16,2.03-1.48,3.26-.32,1.23-.47,2.45-.47,3.68s.16,2.5,.47,3.71c.32,1.21,.81,2.29,1.48,3.26,.67,.97,1.52,1.75,2.56,2.34,1.04,.6,2.27,.89,3.68,.89Z"/>
    <path class="cls-2" d="M590.61,51.62h5.96v5.57h.11c.19-.78,.55-1.54,1.09-2.29,.54-.74,1.19-1.42,1.95-2.03,.76-.61,1.61-1.1,2.54-1.48,.93-.37,1.88-.56,2.84-.56,.74,0,1.25,.02,1.53,.06,.28,.04,.57,.07,.86,.11v6.13c-.45-.07-.9-.14-1.37-.19s-.92-.08-1.37-.08c-1.08,0-2.09,.21-3.04,.64-.95,.43-1.78,1.06-2.48,1.9-.71,.84-1.26,1.87-1.67,3.09-.41,1.23-.61,2.64-.61,4.24v13.71h-6.35v-28.82Z"/>
    <path class="cls-2" d="M357.58,138.83c0,1.52,.26,2.82,.78,3.9,.52,1.08,1.24,1.96,2.17,2.65,.93,.69,2,1.19,3.21,1.5,1.21,.32,2.52,.47,3.93,.47,1.52,0,2.82-.18,3.9-.53,1.08-.35,1.95-.81,2.62-1.37,.67-.56,1.15-1.2,1.45-1.92,.3-.72,.45-1.46,.45-2.2,0-1.52-.34-2.65-1.03-3.37-.69-.72-1.44-1.24-2.26-1.53-1.41-.52-3.06-1.01-4.93-1.48-1.88-.46-4.19-1.07-6.94-1.81-1.71-.45-3.13-1.03-4.26-1.76-1.13-.72-2.03-1.53-2.7-2.42-.67-.89-1.14-1.84-1.42-2.84-.28-1-.42-2.03-.42-3.07,0-2.01,.42-3.74,1.25-5.21,.84-1.47,1.94-2.68,3.32-3.65,1.37-.97,2.94-1.68,4.68-2.15,1.75-.46,3.51-.7,5.29-.7,2.08,0,4.04,.27,5.88,.81,1.84,.54,3.46,1.35,4.85,2.42,1.39,1.08,2.5,2.41,3.32,3.99,.82,1.58,1.23,3.41,1.23,5.49h-6.97c-.19-2.56-1.06-4.38-2.62-5.43-1.56-1.06-3.55-1.59-5.96-1.59-.82,0-1.65,.08-2.51,.25-.85,.17-1.64,.45-2.34,.84-.71,.39-1.29,.92-1.76,1.59-.46,.67-.7,1.5-.7,2.51,0,1.41,.44,2.52,1.31,3.32,.87,.8,2.02,1.4,3.43,1.81,.15,.04,.73,.2,1.76,.47,1.02,.28,2.16,.59,3.43,.92,1.26,.33,2.5,.66,3.71,.98,1.21,.32,2.07,.55,2.59,.7,1.3,.41,2.43,.97,3.4,1.67,.97,.71,1.77,1.51,2.42,2.42,.65,.91,1.13,1.89,1.45,2.93,.32,1.04,.47,2.08,.47,3.12,0,2.23-.46,4.13-1.37,5.71-.91,1.58-2.11,2.87-3.59,3.87-1.49,1-3.18,1.74-5.07,2.2s-3.83,.7-5.8,.7c-2.27,0-4.4-.28-6.41-.84s-3.75-1.41-5.24-2.56c-1.49-1.15-2.68-2.63-3.57-4.43-.89-1.8-1.36-3.93-1.39-6.38h6.97Z"/>
    <path class="cls-2" d="M407.69,132.92c-.26-1.78-.97-3.13-2.14-4.04-1.17-.91-2.65-1.37-4.43-1.37-.82,0-1.69,.14-2.62,.42-.93,.28-1.78,.8-2.56,1.56s-1.43,1.82-1.95,3.18c-.52,1.36-.78,3.13-.78,5.32,0,1.19,.14,2.38,.42,3.57,.28,1.19,.72,2.25,1.34,3.18,.61,.93,1.4,1.68,2.37,2.26,.97,.58,2.14,.86,3.51,.86,1.86,0,3.39-.58,4.6-1.73,1.21-1.15,1.96-2.77,2.26-4.85h6.36c-.6,3.75-2.02,6.62-4.27,8.61-2.25,1.99-5.23,2.98-8.95,2.98-2.27,0-4.26-.38-5.99-1.14-1.73-.76-3.19-1.8-4.38-3.12-1.19-1.32-2.09-2.89-2.7-4.71-.61-1.82-.92-3.79-.92-5.91s.3-4.18,.89-6.08c.59-1.89,1.49-3.54,2.68-4.93,1.19-1.39,2.67-2.49,4.43-3.29,1.76-.8,3.84-1.2,6.21-1.2,1.67,0,3.26,.21,4.77,.64,1.51,.43,2.84,1.07,4.01,1.92,1.17,.86,2.13,1.93,2.87,3.23,.74,1.3,1.19,2.84,1.34,4.63h-6.36Z"/>
    <path class="cls-2" d="M419.4,112.3h6.35v6.02h-6.35v-6.02Zm0,10.98h6.35v28.82h-6.35v-28.82Z"/>
    <path class="cls-2" d="M437.62,139.33c0,1.12,.16,2.19,.47,3.23,.32,1.04,.79,1.95,1.42,2.73s1.43,1.4,2.4,1.87c.97,.46,2.12,.7,3.46,.7,1.86,0,3.35-.4,4.49-1.2,1.13-.8,1.98-2,2.54-3.59h6.02c-.33,1.56-.91,2.95-1.73,4.18-.82,1.23-1.8,2.26-2.95,3.09-1.15,.84-2.44,1.47-3.87,1.9-1.43,.43-2.93,.64-4.49,.64-2.27,0-4.27-.37-6.02-1.11-1.75-.74-3.22-1.78-4.43-3.12-1.21-1.34-2.12-2.93-2.73-4.79-.61-1.86-.92-3.9-.92-6.13,0-2.04,.32-3.99,.97-5.82,.65-1.84,1.58-3.46,2.79-4.85,1.21-1.39,2.67-2.5,4.38-3.32,1.71-.82,3.64-1.23,5.8-1.23,2.27,0,4.3,.47,6.1,1.42,1.8,.95,3.3,2.2,4.49,3.76,1.19,1.56,2.05,3.35,2.59,5.38,.54,2.03,.68,4.12,.42,6.27h-21.18Zm14.83-4.18c-.08-1-.29-1.97-.64-2.9-.35-.93-.84-1.74-1.45-2.42-.61-.69-1.36-1.24-2.23-1.67-.87-.43-1.85-.64-2.93-.64s-2.13,.2-3.04,.59c-.91,.39-1.69,.93-2.34,1.62s-1.17,1.5-1.56,2.42c-.39,.93-.6,1.93-.64,3.01h14.83Z"/>
    <path class="cls-2" d="M463.65,123.28h6.02v4.24l.11,.11c.97-1.6,2.23-2.85,3.79-3.76,1.56-.91,3.29-1.37,5.18-1.37,3.16,0,5.65,.82,7.47,2.45,1.82,1.64,2.73,4.09,2.73,7.36v19.79h-6.35v-18.11c-.08-2.27-.56-3.91-1.45-4.93-.89-1.02-2.29-1.53-4.18-1.53-1.08,0-2.04,.2-2.9,.59-.86,.39-1.58,.93-2.17,1.62s-1.06,1.5-1.39,2.42c-.33,.93-.5,1.91-.5,2.95v17h-6.35v-28.82Z"/>
    <path class="cls-2" d="M492.74,123.28h4.79v-8.64h6.35v8.64h5.74v4.74h-5.74v15.38c0,.67,.03,1.25,.08,1.73,.06,.48,.19,.89,.39,1.23,.2,.33,.51,.59,.92,.75,.41,.17,.97,.25,1.67,.25,.45,0,.89,0,1.34-.03,.45-.02,.89-.08,1.34-.2v4.91c-.71,.07-1.39,.15-2.06,.22s-1.36,.11-2.06,.11c-1.67,0-3.02-.16-4.04-.47-1.02-.32-1.82-.78-2.4-1.39-.58-.61-.97-1.38-1.17-2.31-.21-.93-.33-1.99-.36-3.18v-17h-4.79v-4.74Z"/>
    <path class="cls-2" d="M514.37,112.3h6.35v6.02h-6.35v-6.02Zm0,10.98h6.35v28.82h-6.35v-28.82Z"/>
    <path class="cls-2" d="M524.79,123.28h4.74v-2.4c0-1.82,.22-3.3,.67-4.43,.45-1.13,1.04-2.01,1.78-2.62s1.59-1.02,2.54-1.23c.95-.2,1.94-.31,2.98-.31,2.04,0,3.53,.13,4.46,.39v4.96c-.41-.11-.85-.19-1.31-.25-.46-.06-1.01-.08-1.64-.08-.85,0-1.59,.21-2.2,.61-.61,.41-.92,1.21-.92,2.4v2.95h5.41v4.74h-5.41v24.08h-6.35v-24.08h-4.74v-4.74Z"/>
    <path class="cls-2" d="M545.36,112.3h6.35v6.02h-6.35v-6.02Zm0,10.98h6.35v28.82h-6.35v-28.82Z"/>
    <path class="cls-2" d="M578.07,132.92c-.26-1.78-.98-3.13-2.15-4.04-1.17-.91-2.65-1.37-4.43-1.37-.82,0-1.69,.14-2.62,.42-.93,.28-1.78,.8-2.56,1.56s-1.43,1.82-1.95,3.18c-.52,1.36-.78,3.13-.78,5.32,0,1.19,.14,2.38,.42,3.57,.28,1.19,.72,2.25,1.34,3.18,.61,.93,1.4,1.68,2.37,2.26s2.14,.86,3.51,.86c1.86,0,3.39-.58,4.6-1.73,1.21-1.15,1.96-2.77,2.26-4.85h6.35c-.6,3.75-2.02,6.62-4.26,8.61-2.25,1.99-5.23,2.98-8.95,2.98-2.27,0-4.26-.38-5.99-1.14-1.73-.76-3.19-1.8-4.38-3.12-1.19-1.32-2.09-2.89-2.7-4.71-.61-1.82-.92-3.79-.92-5.91s.3-4.18,.89-6.08c.59-1.89,1.49-3.54,2.67-4.93s2.67-2.49,4.43-3.29c1.76-.8,3.84-1.2,6.21-1.2,1.67,0,3.26,.21,4.77,.64,1.5,.43,2.84,1.07,4.01,1.92,1.17,.86,2.13,1.93,2.87,3.23,.74,1.3,1.19,2.84,1.34,4.63h-6.35Z"/>
    <path class="cls-2" d="M606,112.3h19.01c4.38,0,7.67,.95,9.87,2.84,2.19,1.9,3.29,4.53,3.29,7.92,0,1.89-.28,3.46-.84,4.71-.56,1.25-1.21,2.25-1.95,3.01-.74,.76-1.48,1.31-2.2,1.64s-1.25,.56-1.59,.67v.11c.59,.08,1.24,.26,1.92,.56,.69,.3,1.33,.77,1.92,1.42,.59,.65,1.09,1.5,1.48,2.54,.39,1.04,.58,2.34,.58,3.9,0,2.34,.18,4.47,.53,6.38,.35,1.91,.9,3.28,1.64,4.1h-7.47c-.52-.85-.83-1.8-.92-2.84-.09-1.04-.14-2.04-.14-3.01,0-1.82-.11-3.39-.33-4.71-.22-1.32-.63-2.42-1.23-3.29-.59-.87-1.4-1.51-2.42-1.92-1.02-.41-2.33-.61-3.93-.61h-10.25v16.39h-6.97v-39.8Zm6.97,18.11h11.43c2.23,0,3.92-.53,5.07-1.59,1.15-1.06,1.73-2.65,1.73-4.77,0-1.26-.19-2.29-.56-3.09-.37-.8-.88-1.42-1.53-1.87-.65-.45-1.39-.74-2.23-.89-.84-.15-1.7-.22-2.59-.22h-11.31v12.43Z"/>
    <path class="cls-2" d="M649.3,139.33c0,1.12,.16,2.19,.47,3.23,.32,1.04,.79,1.95,1.42,2.73s1.43,1.4,2.4,1.87c.97,.46,2.12,.7,3.46,.7,1.86,0,3.35-.4,4.49-1.2,1.13-.8,1.98-2,2.54-3.59h6.02c-.33,1.56-.91,2.95-1.73,4.18-.82,1.23-1.8,2.26-2.95,3.09-1.15,.84-2.44,1.47-3.87,1.9-1.43,.43-2.93,.64-4.49,.64-2.27,0-4.27-.37-6.02-1.11-1.75-.74-3.22-1.78-4.43-3.12-1.21-1.34-2.12-2.93-2.73-4.79-.61-1.86-.92-3.9-.92-6.13,0-2.04,.32-3.99,.97-5.82,.65-1.84,1.58-3.46,2.79-4.85,1.21-1.39,2.67-2.5,4.38-3.32,1.71-.82,3.64-1.23,5.8-1.23,2.27,0,4.3,.47,6.1,1.42,1.8,.95,3.3,2.2,4.49,3.76,1.19,1.56,2.05,3.35,2.59,5.38,.54,2.03,.68,4.12,.42,6.27h-21.18Zm14.83-4.18c-.08-1-.29-1.97-.64-2.9-.35-.93-.84-1.74-1.45-2.42-.61-.69-1.36-1.24-2.23-1.67-.87-.43-1.85-.64-2.93-.64s-2.13,.2-3.04,.59c-.91,.39-1.69,.93-2.34,1.62s-1.17,1.5-1.56,2.42c-.39,.93-.6,1.93-.64,3.01h14.83Z"/>
    <path class="cls-2" d="M672.49,123.28h6.91l7.3,22.13h.11l7.02-22.13h6.58l-10.31,28.82h-7.13l-10.48-28.82Z"/>
    <path class="cls-2" d="M704.43,112.3h6.35v6.02h-6.35v-6.02Zm0,10.98h6.35v28.82h-6.35v-28.82Z"/>
    <path class="cls-2" d="M722.65,139.33c0,1.12,.16,2.19,.47,3.23,.32,1.04,.79,1.95,1.42,2.73s1.43,1.4,2.4,1.87c.97,.46,2.12,.7,3.46,.7,1.86,0,3.35-.4,4.49-1.2,1.13-.8,1.98-2,2.54-3.59h6.02c-.33,1.56-.91,2.95-1.73,4.18-.82,1.23-1.8,2.26-2.95,3.09-1.15,.84-2.44,1.47-3.87,1.9-1.43,.43-2.93,.64-4.49,.64-2.27,0-4.27-.37-6.02-1.11-1.75-.74-3.22-1.78-4.43-3.12-1.21-1.34-2.12-2.93-2.73-4.79-.61-1.86-.92-3.9-.92-6.13,0-2.04,.32-3.99,.97-5.82,.65-1.84,1.58-3.46,2.79-4.85,1.21-1.39,2.67-2.5,4.38-3.32,1.71-.82,3.64-1.23,5.8-1.23,2.27,0,4.3,.47,6.1,1.42,1.8,.95,3.3,2.2,4.49,3.76,1.19,1.56,2.05,3.35,2.59,5.38,.54,2.03,.68,4.12,.42,6.27h-21.18Zm14.83-4.18c-.08-1-.29-1.97-.64-2.9-.35-.93-.84-1.74-1.45-2.42-.61-.69-1.36-1.24-2.23-1.67-.87-.43-1.85-.64-2.93-.64s-2.13,.2-3.04,.59c-.91,.39-1.69,.93-2.34,1.62s-1.17,1.5-1.56,2.42c-.39,.93-.6,1.93-.64,3.01h14.83Z"/>
    <path class="cls-2" d="M746.06,123.28h6.74l5.63,21.51h.11l5.41-21.51h6.41l5.18,21.51h.11l5.85-21.51h6.46l-9.03,28.82h-6.52l-5.35-21.4h-.11l-5.29,21.4h-6.69l-8.92-28.82Z"/>
  </g>
</svg>