<?xml version="1.0" encoding="UTF-8" standalone="no"?>
<svg id="logo_fic" aria-label="NIH: Fogarty International Center" style="enable-background:new 0 0 400 55" xmlns="http://www.w3.org/2000/svg" xml:space="preserve" height="55px" viewBox="0 0 400 55" width="400px" version="1.1" role="img" y="0px" x="0px" xmlns:xlink="http://www.w3.org/1999/xlink">
<g class="logo-text" fill="#616265">
		<path d="m94.6 18.8h11.7v2.6h-8.7v4.4h7.7v2.4h-7.7v7.4h-3v-16.8z"/>
		<path d="m113.8 36.1c-0.9 0-1.8-0.2-2.6-0.5s-1.4-0.8-2-1.3c-0.6-0.6-0.9-1.3-1.3-2-0.3-0.8-0.4-1.6-0.4-2.6s0.1-1.8 0.4-2.6c0.3-0.8 0.7-1.4 1.3-2s1.1-1 2-1.3c0.8-0.3 1.6-0.5 2.6-0.5s1.8 0.2 2.6 0.5c0.8 0.3 1.4 0.8 2 1.3 0.5 0.6 0.9 1.3 1.3 2 0.3 0.8 0.4 1.6 0.4 2.6s-0.1 1.8-0.4 2.6c-0.3 0.8-0.7 1.4-1.3 2s-1.1 1-2 1.3c-0.7 0.3-1.7 0.5-2.6 0.5zm0-2.2c0.6 0 1.1-0.1 1.6-0.4s0.8-0.6 1-0.9c0.3-0.4 0.5-0.9 0.7-1.3 0.1-0.5 0.2-1 0.2-1.6s-0.1-1-0.2-1.6c-0.1-0.5-0.4-0.9-0.7-1.3s-0.7-0.8-1-0.9c-0.5-0.3-0.9-0.4-1.6-0.4s-1.1 0.1-1.6 0.4-0.8 0.6-1 0.9c-0.3 0.4-0.5 0.9-0.7 1.3-0.1 0.5-0.2 1-0.2 1.6s0.1 1 0.2 1.6c0.1 0.5 0.4 0.9 0.7 1.3s0.7 0.8 1 0.9c0.3 0.2 1 0.4 1.6 0.4z"/>
		<path d="m133.6 35.1c0 1.8-0.5 3.3-1.6 4.1-1 0.9-2.4 1.3-4.5 1.3-0.6 0-1.3-0.1-1.8-0.2-0.7-0.1-1.1-0.4-1.7-0.7-0.5-0.3-0.9-0.7-1.3-1.1-0.4-0.5-0.6-1-0.6-1.8h2.7c0.1 0.4 0.2 0.7 0.4 0.9s0.4 0.4 0.7 0.6c0.3 0.1 0.6 0.2 0.9 0.3 0.3 0 0.7 0.1 0.9 0.1 1 0 2-0.3 2.4-0.8 0.5-0.6 0.8-1.3 0.8-2.4v-2c-0.4 0.7-0.9 1.3-1.6 1.6s-1.3 0.6-2.1 0.6c-0.9 0-1.8-0.2-2.4-0.5-0.7-0.4-1.3-0.8-1.7-1.4-0.5-0.6-0.8-1.3-0.9-2s-0.3-1.6-0.3-2.4c0-0.9 0.1-1.6 0.4-2.4s0.6-1.4 1-2c0.5-0.6 1-1 1.7-1.3s1.4-0.5 2.4-0.5c0.8 0 1.6 0.2 2.1 0.5 0.7 0.3 1.1 0.9 1.6 1.6v-1.7h2.7l-0.2 11.6zm-6-1.5c0.6 0 1.1-0.1 1.6-0.4 0.4-0.3 0.8-0.6 1-0.9 0.3-0.4 0.5-0.9 0.6-1.3 0.2-0.5 0.2-1 0.2-1.6 0-0.5-0.1-1-0.2-1.6-0.1-0.5-0.3-0.9-0.6-1.3s-0.6-0.7-1-0.9c-0.4-0.2-0.9-0.3-1.6-0.3s-1.1 0.1-1.6 0.4c-0.4 0.3-0.8 0.6-0.9 0.9-0.3 0.4-0.5 0.9-0.6 1.3-0.1 0.5-0.2 1-0.2 1.6s0.1 0.9 0.2 1.4c0.1 0.5 0.3 0.9 0.6 1.3 0.3 0.3 0.6 0.7 0.9 0.9 0.5 0.4 1 0.5 1.6 0.5z"/>
		<path d="m146.6 33c0 0.3 0 0.6 0.1 0.7s0.3 0.2 0.5 0.2h0.3s0.2 0 0.4 0v2c-0.1 0-0.2 0.1-0.4 0.1s-0.3 0.1-0.5 0.1-0.3 0.1-0.5 0.1h-0.4c-0.6 0-1-0.1-1.3-0.3-0.4-0.2-0.6-0.6-0.7-1.1-0.6 0.5-1.1 0.9-2 1.1-0.8 0.2-1.6 0.4-2.4 0.4-0.6 0-1-0.1-1.6-0.2-0.5-0.2-0.9-0.4-1.3-0.7s-0.7-0.7-0.9-1.1c-0.2-0.5-0.4-0.9-0.4-1.6 0-0.8 0.1-1.3 0.4-1.8s0.7-0.9 1-1.1c0.5-0.3 0.9-0.5 1.6-0.6 0.6-0.1 1.1-0.2 1.7-0.3 0.5-0.1 0.9-0.2 1.4-0.2s0.9-0.1 1.1-0.2c0.4-0.1 0.6-0.3 0.8-0.5s0.3-0.5 0.3-0.9-0.1-0.7-0.3-0.9c-0.2-0.2-0.4-0.4-0.6-0.5-0.3-0.1-0.5-0.2-0.9-0.2-0.3 0-0.6-0.1-0.9-0.1-0.8 0-1.3 0.2-2 0.5-0.6 0.3-0.8 0.8-0.9 1.4h-2.7c0-0.8 0.2-1.4 0.6-2 0.3-0.5 0.8-0.9 1.3-1.3 0.5-0.3 1-0.6 1.7-0.7s1.3-0.2 2-0.2c0.6 0 1.1 0.1 1.8 0.2 0.6 0.1 1.1 0.3 1.6 0.6s0.9 0.7 1.1 1.1c0.2 0.5 0.4 0.9 0.4 1.6v6.2h0.6v0.2zm-2.7-3.4c-0.4 0.3-0.9 0.4-1.6 0.5-0.6 0.1-1.3 0.1-1.8 0.3-0.3 0-0.6 0.1-0.9 0.2s-0.5 0.2-0.7 0.4-0.4 0.4-0.5 0.6c-0.1 0.3-0.2 0.6-0.2 0.9s0.1 0.6 0.3 0.8 0.4 0.4 0.7 0.5 0.5 0.2 0.8 0.3c0.3 0 0.6 0.1 0.8 0.1 0.3 0 0.7 0 0.9-0.1 0.4-0.1 0.7-0.2 0.9-0.4 0.3-0.2 0.6-0.4 0.8-0.8 0.2-0.3 0.3-0.7 0.3-1v-2.1l0.2-0.2z"/>
		<path d="m149.5 23.5h2.4v2.4c0.1-0.3 0.2-0.7 0.5-0.9 0.2-0.2 0.5-0.6 0.9-0.9 0.3-0.3 0.7-0.5 1-0.7 0.4-0.2 0.8-0.2 1.3-0.2h0.7 0.4v2.6c-0.2 0-0.4-0.1-0.6-0.1s-0.4 0-0.6 0c-0.5 0-0.9 0.1-1.3 0.3s-0.8 0.5-1 0.8c-0.3 0.4-0.6 0.8-0.7 1.3-0.2 0.5-0.3 1.1-0.3 1.8v5.8h-2.7v-12.2z"/>
		<path d="m156.6 23.5h2v-3.7h2.7v3.7h2.4v2h-2.4v6.5 0.8c0 0.2 0.1 0.4 0.2 0.5s0.2 0.3 0.4 0.3c0.2 0.1 0.4 0.1 0.7 0.1h0.6s0.4 0 0.6-0.1v2.2c-0.3 0-0.6 0.1-0.9 0.1h-0.9c-0.7 0-1.3-0.1-1.7-0.2-0.5-0.1-0.8-0.3-1-0.6-0.3-0.3-0.4-0.6-0.5-0.9-0.1-0.4-0.1-0.9-0.2-1.3v-7.1h-2v-2.3z"/>
		<path d="m164.3 23.5h3l3.1 9.2 3.1-9.2h2.7l-4.8 12.9c-0.2 0.6-0.5 1-0.7 1.6-0.2 0.5-0.5 0.9-0.8 1.3s-0.7 0.7-1.1 0.9c-0.5 0.2-1 0.4-1.7 0.4s-1.3 0-2-0.1v-2.4c0.2 0 0.5 0.1 0.7 0.1s0.4 0.1 0.7 0.1 0.6 0 0.8-0.1 0.4-0.2 0.5-0.4 0.3-0.3 0.4-0.6c0.1-0.2 0.2-0.5 0.3-0.7l0.3-0.9-4.5-12.1z"/>
		<path d="m185 18.8h3v16.9h-3v-16.9z"/>
		<path d="m191.1 23.5h2.6v1.8c0.4-0.7 0.9-1.3 1.6-1.6 0.7-0.4 1.4-0.6 2.2-0.6 1.3 0 2.4 0.4 3.1 1 0.8 0.7 1.1 1.7 1.1 3.1v8.5h-2.7v-7.6c0-0.9-0.2-1.6-0.6-2.1s-0.9-0.7-1.8-0.7c-0.5 0-0.9 0.1-1.3 0.3s-0.7 0.4-0.9 0.7c-0.3 0.3-0.5 0.7-0.6 1-0.2 0.4-0.2 0.9-0.2 1.3v7.1h-2.6l0.1-12.2z"/>
		<path d="m203.4 23.5h2v-3.7h2.7v3.7h2.4v2h-2.4v6.5 0.8c0 0.2 0.1 0.4 0.2 0.5s0.2 0.3 0.4 0.3c0.2 0.1 0.4 0.1 0.7 0.1h0.6c0.2 0 0.4 0 0.6-0.1v2.2c-0.3 0-0.6 0.1-0.9 0.1h-0.9c-0.7 0-1.3-0.1-1.7-0.2-0.5-0.1-0.8-0.3-1-0.6-0.3-0.3-0.4-0.6-0.5-0.9s-0.1-0.9-0.2-1.3v-7.1h-2v-2.3z"/>
		<path d="m214.7 30.3c0 0.5 0.1 0.9 0.2 1.3 0.1 0.5 0.4 0.9 0.6 1.1 0.3 0.3 0.6 0.6 1 0.8s0.9 0.3 1.4 0.3c0.8 0 1.4-0.2 2-0.5 0.5-0.3 0.9-0.9 1-1.6h2.6c-0.1 0.7-0.4 1.3-0.8 1.8s-0.8 0.9-1.3 1.3-1 0.7-1.6 0.8-1.3 0.3-2 0.3c-0.9 0-1.8-0.2-2.6-0.5s-1.3-0.8-2-1.3c-0.5-0.6-0.9-1.3-1.1-2-0.3-0.8-0.4-1.6-0.4-2.6 0-0.9 0.1-1.7 0.4-2.4 0.3-0.8 0.7-1.4 1.1-2.1 0.5-0.6 1.1-1 1.8-1.4 0.8-0.4 1.6-0.5 2.4-0.5 0.9 0 1.8 0.2 2.6 0.6s1.4 0.9 2 1.6c0.5 0.7 0.9 1.4 1.1 2.4 0.2 0.9 0.3 1.7 0.2 2.7 0.2-0.1-8.6-0.1-8.6-0.1zm6.3-1.7c0-0.4-0.1-0.9-0.3-1.3s-0.4-0.8-0.6-1c-0.3-0.3-0.6-0.6-0.9-0.7-0.4-0.2-0.8-0.3-1.3-0.3s-0.9 0.1-1.3 0.3-0.8 0.4-0.9 0.7c-0.3 0.3-0.5 0.7-0.7 1-0.2 0.4-0.3 0.9-0.3 1.3h6.3z"/>
		<path d="m225.8 23.5h2.4v2.4c0.1-0.3 0.2-0.7 0.5-0.9s0.5-0.6 0.9-0.9c0.3-0.3 0.7-0.5 1-0.7s0.8-0.2 1.3-0.2h0.7 0.4v2.6c-0.2 0-0.4-0.1-0.6-0.1h-0.6c-0.5 0-0.9 0.1-1.3 0.3s-0.8 0.5-1 0.8c-0.3 0.4-0.6 0.8-0.7 1.3-0.2 0.5-0.3 1.1-0.3 1.8v5.8h-2.7v-12.2z"/>
		<path d="m234.6 23.5h2.6v1.8c0.4-0.7 0.9-1.3 1.6-1.6 0.7-0.4 1.4-0.6 2.2-0.6 1.3 0 2.4 0.4 3.1 1 0.8 0.7 1.1 1.7 1.1 3.1v8.5h-2.7v-7.6c0-0.9-0.2-1.6-0.6-2.1s-0.9-0.7-1.8-0.7c-0.5 0-0.9 0.1-1.3 0.3s-0.7 0.4-0.9 0.7c-0.3 0.3-0.5 0.7-0.6 1-0.2 0.4-0.2 0.9-0.2 1.3v7.1h-2.7l0.2-12.2z"/>
		<path d="m258.5 33c0 0.3 0 0.6 0.1 0.7s0.3 0.2 0.5 0.2h0.3s0.2 0 0.4 0v2c-0.1 0-0.2 0.1-0.4 0.1s-0.3 0.1-0.5 0.1-0.3 0.1-0.5 0.1h-0.4c-0.6 0-1-0.1-1.3-0.3-0.4-0.2-0.6-0.6-0.7-1.1-0.6 0.5-1.1 0.9-2 1.1-0.8 0.2-1.6 0.4-2.4 0.4-0.6 0-1-0.1-1.6-0.2-0.5-0.2-0.9-0.4-1.3-0.7s-0.7-0.7-0.9-1.1c-0.2-0.5-0.4-0.9-0.4-1.6 0-0.8 0.1-1.3 0.4-1.8s0.7-0.9 1-1.1c0.5-0.3 0.9-0.5 1.6-0.6 0.6-0.1 1.1-0.2 1.7-0.3 0.5-0.1 0.9-0.2 1.4-0.2s0.9-0.1 1.1-0.2c0.4-0.1 0.6-0.3 0.8-0.5s0.3-0.5 0.3-0.9-0.1-0.7-0.3-0.9c-0.2-0.2-0.4-0.4-0.6-0.5-0.3-0.1-0.5-0.2-0.9-0.2-0.3 0-0.6-0.1-0.9-0.1-0.8 0-1.3 0.2-2 0.5-0.5 0.3-0.8 0.8-0.9 1.4h-2.7c0-0.8 0.2-1.4 0.6-2 0.3-0.5 0.8-0.9 1.3-1.3 0.5-0.3 1-0.6 1.7-0.7s1.3-0.2 2-0.2c0.6 0 1.1 0.1 1.8 0.2 0.6 0.1 1.1 0.3 1.6 0.6s0.9 0.7 1.1 1.1c0.3 0.5 0.4 0.9 0.4 1.6v6.2h0.6v0.2zm-2.8-3.4c-0.4 0.3-0.9 0.4-1.6 0.5-0.6 0.1-1.3 0.1-1.8 0.3-0.3 0-0.6 0.1-0.9 0.2s-0.5 0.2-0.7 0.4-0.4 0.4-0.5 0.6c-0.1 0.3-0.2 0.6-0.2 0.9s0.1 0.6 0.3 0.8 0.4 0.4 0.7 0.5 0.5 0.2 0.8 0.3c0.3 0 0.6 0.1 0.8 0.1 0.3 0 0.7 0 0.9-0.1 0.4-0.1 0.7-0.2 0.9-0.4 0.3-0.2 0.6-0.4 0.8-0.8 0.2-0.3 0.3-0.7 0.3-1v-2.1l0.2-0.2z"/>
		<path d="m260 23.5h2v-3.7h2.7v3.7h2.4v2h-2.4v6.5 0.8c0 0.2 0.1 0.4 0.2 0.5s0.2 0.3 0.4 0.3c0.2 0.1 0.4 0.1 0.7 0.1h0.6c0.2 0 0.4 0 0.6-0.1v2.2c-0.3 0-0.6 0.1-0.9 0.1h-0.9c-0.7 0-1.3-0.1-1.7-0.2-0.5-0.1-0.8-0.3-1-0.6-0.3-0.3-0.4-0.6-0.5-0.9-0.1-0.4-0.1-0.9-0.2-1.3v-7.1h-2v-2.3z"/>
		<path d="m269.2 18.8h2.7v2.6h-2.7v-2.6zm0 4.7h2.7v12.2h-2.7v-12.2z"/>
		<path d="m280.6 36.1c-0.9 0-1.8-0.2-2.6-0.5s-1.4-0.8-2-1.3c-0.6-0.6-0.9-1.3-1.3-2s-0.4-1.6-0.4-2.6 0.1-1.8 0.4-2.6 0.7-1.4 1.3-2c0.6-0.6 1.1-1 2-1.3 0.8-0.3 1.6-0.5 2.6-0.5 0.9 0 1.8 0.2 2.6 0.5s1.4 0.8 2 1.3c0.6 0.6 0.9 1.3 1.3 2s0.4 1.6 0.4 2.6-0.1 1.8-0.4 2.6-0.7 1.4-1.3 2c-0.6 0.6-1.1 1-2 1.3-0.8 0.3-1.8 0.5-2.6 0.5zm0-2.2c0.6 0 1.1-0.1 1.6-0.4s0.8-0.6 1-0.9c0.3-0.4 0.5-0.9 0.7-1.3 0.1-0.5 0.2-1 0.2-1.6s-0.1-1-0.2-1.6c-0.1-0.5-0.4-0.9-0.7-1.3s-0.7-0.8-1-0.9c-0.5-0.3-0.9-0.4-1.6-0.4s-1.1 0.1-1.6 0.4c-0.5 0.3-0.8 0.6-1 0.9s-0.5 0.9-0.7 1.3c-0.1 0.5-0.2 1-0.2 1.6s0.1 1 0.2 1.6c0.1 0.5 0.4 0.9 0.7 1.3s0.7 0.8 1 0.9c0.3 0.2 0.9 0.4 1.6 0.4z"/>
		<path d="m288.9 23.5h2.6v1.8c0.4-0.7 0.9-1.3 1.6-1.6s1.4-0.6 2.2-0.6c1.3 0 2.4 0.4 3.1 1 0.8 0.7 1.1 1.7 1.1 3.1v8.5h-2.6v-7.6c0-0.9-0.2-1.6-0.6-2.1s-0.9-0.7-1.8-0.7c-0.5 0-0.9 0.1-1.3 0.3s-0.7 0.4-0.9 0.7c-0.3 0.3-0.5 0.7-0.6 1-0.1 0.4-0.2 0.9-0.2 1.3v7.1h-2.7l0.1-12.2z"/>
		<path d="m312.7 33c0 0.3 0 0.6 0.1 0.7s0.3 0.2 0.5 0.2h0.3 0.4v2c-0.1 0-0.2 0.1-0.4 0.1s-0.3 0.1-0.5 0.1-0.3 0.1-0.5 0.1-0.3 0-0.4 0c-0.6 0-1-0.1-1.3-0.3-0.4-0.2-0.6-0.6-0.7-1.1-0.6 0.5-1.1 0.9-2 1.1-0.8 0.2-1.6 0.4-2.4 0.4-0.6 0-1-0.1-1.6-0.2-0.5-0.2-0.9-0.4-1.3-0.7s-0.7-0.7-0.9-1.1c-0.2-0.5-0.4-0.9-0.4-1.6 0-0.8 0.1-1.3 0.4-1.8s0.7-0.9 1-1.1c0.5-0.3 0.9-0.5 1.6-0.6s1.1-0.2 1.7-0.3c0.5-0.1 0.9-0.2 1.4-0.2s0.9-0.1 1.1-0.2c0.4-0.1 0.6-0.3 0.8-0.5s0.3-0.5 0.3-0.9-0.1-0.7-0.3-0.9c-0.2-0.2-0.4-0.4-0.6-0.5-0.3-0.1-0.5-0.2-0.9-0.2-0.3 0-0.6-0.1-0.9-0.1-0.8 0-1.3 0.2-2 0.5-0.5 0.3-0.8 0.8-0.9 1.4h-2.3c0-0.8 0.2-1.4 0.6-2 0.3-0.5 0.8-0.9 1.3-1.3 0.5-0.3 1-0.6 1.7-0.7s1.3-0.2 2-0.2c0.6 0 1.1 0.1 1.8 0.2 0.6 0.1 1.1 0.3 1.6 0.6s0.9 0.7 1.1 1.1c0.2 0.5 0.4 0.9 0.4 1.6v6.4h0.2zm-2.6-3.4c-0.4 0.3-0.9 0.4-1.6 0.5-0.6 0.1-1.3 0.1-1.8 0.3-0.3 0-0.6 0.1-0.9 0.2s-0.5 0.2-0.7 0.4-0.4 0.4-0.5 0.6c-0.1 0.3-0.2 0.6-0.2 0.9s0.1 0.6 0.3 0.8 0.4 0.4 0.7 0.5 0.5 0.2 0.8 0.3c0.3 0 0.6 0.1 0.8 0.1 0.3 0 0.7 0 0.9-0.1 0.4-0.1 0.7-0.2 0.9-0.4 0.3-0.2 0.6-0.4 0.8-0.8 0.2-0.3 0.3-0.7 0.3-1v-2.1l0.2-0.2z"/>
		<path d="m315.8 18.8h2.7v16.9h-2.7v-16.9z"/>
		<path d="m339.7 24.1c-0.1-0.5-0.3-0.9-0.5-1.3s-0.5-0.8-0.9-1c-0.4-0.3-0.8-0.6-1.3-0.7-0.5-0.2-1-0.3-1.6-0.3-0.9 0-1.7 0.2-2.4 0.6s-1.1 0.9-1.6 1.4c-0.4 0.6-0.7 1.3-0.9 2.1s-0.3 1.6-0.3 2.4 0.1 1.6 0.3 2.4c0.2 0.8 0.5 1.4 0.9 2.1 0.4 0.6 0.9 1 1.6 1.4s1.4 0.6 2.4 0.6c0.7 0 1.3-0.1 1.7-0.4 0.5-0.2 0.9-0.6 1.3-0.9s0.7-0.9 0.9-1.4c0.2-0.6 0.4-1.1 0.4-1.7h2.8c-0.1 1-0.3 2-0.7 2.7s-0.9 1.6-1.6 2.2c-0.7 0.6-1.3 1-2.2 1.4-0.9 0.3-1.8 0.5-2.7 0.5-1.3 0-2.4-0.2-3.4-0.7-0.9-0.5-1.8-1.1-2.6-2-0.7-0.8-1.3-1.7-1.6-2.7s-0.6-2.2-0.6-3.4c0-1.3 0.2-2.4 0.6-3.4s0.9-2 1.6-2.7c0.7-0.8 1.6-1.4 2.6-2 0.9-0.5 2.1-0.7 3.4-0.7 0.9 0 1.8 0.1 2.7 0.4s1.6 0.7 2.2 1.1c0.7 0.5 1.1 1.1 1.6 1.8 0.4 0.7 0.7 1.6 0.8 2.4l-2.9-0.2z"/>
		<path d="m347.3 30.3c0 0.5 0.1 0.9 0.2 1.3 0.1 0.5 0.4 0.9 0.6 1.1 0.3 0.3 0.6 0.6 1 0.8s0.9 0.3 1.4 0.3c0.8 0 1.4-0.2 2-0.5 0.5-0.3 0.9-0.9 1-1.6h2.6c-0.1 0.7-0.4 1.3-0.8 1.8s-0.8 0.9-1.3 1.3-1 0.7-1.6 0.8-1.3 0.3-2 0.3c-0.9 0-1.8-0.2-2.6-0.5s-1.3-0.8-2-1.3c-0.5-0.6-0.9-1.3-1.1-2-0.3-0.8-0.4-1.6-0.4-2.6 0-0.9 0.1-1.7 0.4-2.4 0.3-0.8 0.7-1.4 1.1-2.1 0.5-0.6 1.1-1 1.8-1.4 0.8-0.4 1.6-0.5 2.4-0.5 0.9 0 1.8 0.2 2.6 0.6s1.4 0.9 2 1.6c0.5 0.7 0.9 1.4 1.1 2.4 0.2 0.9 0.3 1.7 0.2 2.7 0.2-0.1-8.6-0.1-8.6-0.1zm6.1-1.7c0-0.4-0.1-0.9-0.3-1.3s-0.4-0.8-0.6-1c-0.3-0.3-0.6-0.6-0.9-0.7-0.4-0.2-0.8-0.3-1.3-0.3s-0.9 0.1-1.3 0.3-0.8 0.4-0.9 0.7c-0.3 0.3-0.5 0.7-0.7 1-0.2 0.4-0.3 0.9-0.3 1.3h6.3z"/>
		<path d="m358.2 23.5h2.6v1.8c0.4-0.7 0.9-1.3 1.6-1.6s1.4-0.6 2.2-0.6c1.3 0 2.4 0.4 3.1 1 0.8 0.7 1.1 1.7 1.1 3.1v8.5h-2.7v-7.6c0-0.9-0.2-1.6-0.6-2.1s-0.9-0.7-1.8-0.7c-0.5 0-0.9 0.1-1.3 0.3s-0.7 0.4-0.9 0.7c-0.3 0.3-0.5 0.7-0.6 1-0.1 0.4-0.2 0.9-0.2 1.3v7.1h-2.5v-12.2z"/>
		<path d="m370.5 23.5h2v-3.7h2.7v3.7h2.4v2h-2.4v6.5 0.8c0 0.2 0.1 0.4 0.2 0.5s0.2 0.3 0.4 0.3c0.2 0.1 0.4 0.1 0.7 0.1h0.6s0.4 0 0.6-0.1v2.2c-0.3 0-0.6 0.1-0.9 0.1h-0.9c-0.7 0-1.3-0.1-1.7-0.2-0.5-0.1-0.8-0.3-1-0.6-0.3-0.3-0.4-0.6-0.5-0.9s-0.1-0.9-0.2-1.3v-7.1h-2v-2.3z"/>
		<path d="m381.9 30.3c0 0.5 0.1 0.9 0.2 1.3 0.1 0.5 0.4 0.9 0.6 1.1 0.3 0.3 0.6 0.6 1 0.8s0.9 0.3 1.4 0.3c0.8 0 1.4-0.2 2-0.5 0.5-0.4 0.9-0.9 1-1.6h2.6c-0.1 0.7-0.4 1.3-0.8 1.8s-0.8 0.9-1.3 1.3-1 0.7-1.6 0.8c-0.6 0.2-1.3 0.3-2 0.3-0.9 0-1.8-0.2-2.6-0.5s-1.3-0.8-2-1.3c-0.5-0.6-0.9-1.3-1.1-2-0.3-0.8-0.4-1.6-0.4-2.6 0-0.9 0.1-1.7 0.4-2.4s0.7-1.4 1.1-2.1c0.5-0.6 1.1-1 1.8-1.4 0.8-0.4 1.6-0.5 2.4-0.5s1.8 0.2 2.6 0.6c0.8 0.4 1.4 0.9 2 1.6 0.5 0.7 0.9 1.4 1.1 2.4 0.2 0.9 0.3 1.7 0.2 2.7 0.3-0.1-8.6-0.1-8.6-0.1zm6.2-1.7c0-0.4-0.1-0.9-0.3-1.3s-0.4-0.8-0.6-1c-0.3-0.3-0.6-0.6-0.9-0.7s-0.8-0.3-1.3-0.3-0.9 0.1-1.3 0.3c-0.4 0.2-0.8 0.4-0.9 0.7-0.3 0.3-0.5 0.7-0.7 1-0.2 0.4-0.3 0.9-0.3 1.3h6.3z"/>
		<path d="m392.9 23.5h2.4v2.4c0.1-0.3 0.2-0.7 0.5-0.9 0.2-0.2 0.5-0.6 0.9-0.9 0.3-0.3 0.7-0.5 1-0.7 0.4-0.2 0.8-0.2 1.3-0.2h0.7s0.3 0 0.4 0v2.6c-0.2 0-0.4-0.1-0.6-0.1s-0.4 0-0.6 0c-0.5 0-0.9 0.1-1.3 0.3s-0.8 0.5-1 0.8c-0.3 0.4-0.6 0.8-0.7 1.3-0.2 0.5-0.3 1.1-0.3 1.8v5.8h-2.7v-12.2z"/>
		<path d="m61 15.2v24.5h-4.3v-11h-11.2v11.1h-4.3v-24.6h4.3v9.8h11.2v-9.8h4.3zm-24.1 24.6h-4.3v-24.6h4.3v24.6zm-8.5 0h-4.5l-11.2-18v18h-4.2v-24.6h4.5l11.2 18.1h0.1v-18.1h4.1v24.6zm47.7-12.4l-15.2-27.4h-55.9c-2.8 0-5 2.3-5 5.1v44.8c0 2.8 2.3 5 5 5h55.9l15.2-27.5z"/>
		<path d="m64.7 54.9l15.2-27.5-15.1-27.4h3.8c2.1 0 4.6 1.5 5.6 3.3l13.3 24.1-13.4 24.2c-1 1.8-3.5 3.3-5.6 3.3h-3.8z" class="logo-chevron" fill="#06893E"/>
</g>
</svg>
