<svg viewBox="0 0 365 87" xmlns="http://www.w3.org/2000/svg"><path d="m94.55 24.87v37.44h-6.55v-16.88h-17v16.88h-6.6v-37.44h6.6v14.9h17v-14.9zm-36.7 37.44h-6.56v-37.44h6.56zm-13 0h-6.94l-17-27.53h-.15v27.53h-6.29v-37.44h6.93l17.09 27.59h.1v-27.59h6.24zm72.82-18.85-23.18-41.83h-85.29a7.71 7.71 0 0 0 -7.7 7.71v68.32a7.71 7.71 0 0 0 7.7 7.71h85.21z" fill="#636569"/><path d="m100.22 85.37 23.21-41.91-23.13-41.83h5.79a10.8 10.8 0 0 1 8.55 5l20.36 36.83-20.43 36.87a10.78 10.78 0 0 1 -8.55 5z" fill="#636569"/><path d="m100.22 85.37 23.21-41.91-23.13-41.83h5.79a10.8 10.8 0 0 1 8.55 5l20.36 36.83-20.43 36.87a10.78 10.78 0 0 1 -8.55 5z" fill="#316094"/><g fill="#636569"><path d="m354.38 45.49a3.1 3.1 0 1 1 6.19 0zm8.84 1.74c.44-3.6-1.89-7-5.68-7-3.58 0-5.81 2.93-5.81 6.35 0 3.7 2.11 6.33 5.88 6.33a5.28 5.28 0 0 0 5.45-4.1h-2.51a2.8 2.8 0 0 1 -2.94 2c-2.21 0-3.23-1.68-3.23-3.57zm-19.45-4.72h2v7.1c.05 2 .56 3.07 3.33 3.07.58 0 1.14-.09 1.72-.14v-2a4.21 4.21 0 0 1 -1.12.1c-1.19 0-1.28-.56-1.28-1.66v-6.47h2.4v-2h-2.4v-3.6h-2.65v3.6h-2zm-1.17-2h-2.6v7c0 1.86-.75 3.29-3 3.29-1.44 0-2.31-.77-2.31-2.89v-7.38h-2.69v7.63c0 3.15 1.35 4.73 4.49 4.73a4.06 4.06 0 0 0 3.43-2v1.67h2.6zm-19.1 2h2v7.1c0 2 .56 3.07 3.32 3.07.58 0 1.14-.09 1.72-.14v-2a4.18 4.18 0 0 1 -1.11.1c-1.19 0-1.28-.56-1.28-1.66v-6.47h2.39v-2h-2.39v-3.6h-2.65v3.6h-2zm-3.9-4h2.64v-2.51h-2.64zm0 14.1h2.64v-12h-2.64zm-8.6-10.1h2v7.1c0 2 .56 3.07 3.32 3.07.58 0 1.14-.09 1.72-.14v-2a4.18 4.18 0 0 1 -1.11.1c-1.19 0-1.28-.56-1.28-1.66v-6.47h2.35v-2h-2.39v-3.6h-2.61v3.6h-2zm-11.1 6.19c0 2.84 2.3 4.19 5.32 4.19 2.49 0 5.38-1 5.38-3.91 0-2.37-2-3.07-3.88-3.51s-3.92-.64-3.92-1.94c0-1 1.42-1.23 2.19-1.23 1.17 0 2.21.35 2.44 1.6h2.77c-.32-2.67-2.56-3.69-5-3.69-2.19 0-5 .81-5 3.44 0 2.44 1.91 3.15 3.87 3.57s3.86.6 3.93 2-1.68 1.59-2.68 1.59c-1.42 0-2.58-.56-2.72-2.1zm-12.3 3.86h2.65v-7.09a2.94 2.94 0 0 1 2.91-3.17c1.56 0 2.31.81 2.35 2.7v7.56h2.65v-8.26c0-2.7-1.64-4.09-4.25-4.09a4.3 4.3 0 0 0 -3.75 2.14l-.05-.05v-1.77h-2.51zm-5.68 0h2.91v-16.56h-2.91zm-16.87-7.07a3.1 3.1 0 1 1 6.19 0zm8.85 1.74c.44-3.6-1.89-7-5.68-7-3.59 0-5.82 2.93-5.82 6.35 0 3.7 2.12 6.33 5.89 6.33a5.27 5.27 0 0 0 5.44-4.1h-2.51a2.79 2.79 0 0 1 -2.93 2c-2.22 0-3.24-1.68-3.24-3.57zm-19.34 5.29-.3.93c-.33 1-.63 1.67-1.86 1.67a7.76 7.76 0 0 1 -1.26-.16v2.23a11.23 11.23 0 0 0 1.84.14c2.77 0 3.39-1.95 4.26-4.12l4.67-12.68h-2.77l-3.05 9-3.14-9h-2.95zm-17.1 0h12.12v-2.47h-9.21v-4.86h8.37v-2.37h-8.37v-4.36h9v-2.46h-11.91zm-11.54 0h2.65v-16.52h-2.65zm-2.52-8.82c0-2.54-2.46-3.49-4.81-3.49-2.66 0-5.28.91-5.47 4h2.65c.12-1.3 1.16-1.91 2.66-1.91 1.07 0 2.49.26 2.49 1.63 0 1.56-1.71 1.35-3.61 1.7-2.24.25-4.63.74-4.63 3.74 0 2.36 1.95 3.52 4.11 3.52a6.16 6.16 0 0 0 4.21-1.47c.21 1.1 1 1.47 2 1.47a7 7 0 0 0 1.67-.3v-1.84a3.42 3.42 0 0 1 -.65 0c-.49 0-.63-.26-.63-.92zm-2.65 4.81c0 1.68-1.82 2.29-3 2.29-.93 0-2.44-.35-2.44-1.54 0-1.4 1-1.82 2.16-2s2.45-.19 3.26-.72zm-20.36 4.05h2.61v-7.09a2.94 2.94 0 0 1 3-3.17c1.56 0 2.31.81 2.36 2.7v7.56h2.64v-8.26c0-2.7-1.66-4.09-4.26-4.09a4.3 4.3 0 0 0 -3.74 2.14v-.05-1.77h-2.51zm-7.86.33c3.86 0 6.07-2.65 6.07-6.35s-2.21-6.33-6.07-6.33-6.08 2.65-6.08 6.33 2.21 6.35 6.08 6.35m0-2.09c-2.38 0-3.43-2.17-3.43-4.26s1.05-4.24 3.43-4.24 3.47 2.16 3.47 4.24-1 4.26-3.42 4.26m-10.69-12.34h2.65v-2.46h-2.65zm0 14.1h2.65v-12h-2.65zm-8.6-10.05h2v7.1c0 2 .55 3.07 3.32 3.07.58 0 1.14-.09 1.72-.14v-2a4.18 4.18 0 0 1 -1.11.1c-1.19 0-1.28-.56-1.28-1.66v-6.47h2.39v-2h-2.39v-3.6h-2.65v3.6h-2zm-1.24 1.19c0-2.54-2.46-3.49-4.82-3.49-2.65 0-5.28.91-5.46 4h2.65c.11-1.3 1.16-1.91 2.65-1.91 1.07 0 2.49.26 2.49 1.63 0 1.56-1.7 1.35-3.61 1.7-2.23.25-4.62.74-4.62 3.74 0 2.36 1.95 3.52 4.11 3.52a6.16 6.16 0 0 0 4.17-1.47c.21 1.1 1 1.47 2 1.47a7.13 7.13 0 0 0 1.67-.3v-1.84a3.42 3.42 0 0 1 -.65 0c-.49 0-.63-.26-.63-.92zm-2.65 4.81c0 1.68-1.81 2.29-3 2.29-.93 0-2.45-.35-2.45-1.54 0-1.4 1-1.82 2.17-2s2.44-.19 3.26-.72zm-23.55 4.05h2.77v-12.21h.07l7.56 12.21h3.07v-16.56h-2.76v12.19h-.05l-7.59-12.19h-3.07z"/><path d="m150.7 64.3a3.36 3.36 0 0 1 2.3.7 2.46 2.46 0 0 1 .82 2 3.15 3.15 0 0 1 -.42 1.64 2.17 2.17 0 0 1 -1.35 1 2 2 0 0 1 .72.29 1.44 1.44 0 0 1 .44.48 2.44 2.44 0 0 1 .25.62q.08.34.12.72v.76a6.15 6.15 0 0 0 .07.75 3.88 3.88 0 0 0 .17.71 1.82 1.82 0 0 0 .32.6h-1.52a.9.9 0 0 1 -.19-.43 5.14 5.14 0 0 1 -.07-.61c0-.22 0-.47 0-.72a3.84 3.84 0 0 0 -.08-.76c0-.25-.09-.49-.14-.71a1.69 1.69 0 0 0 -.28-.59 1.35 1.35 0 0 0 -.48-.4 1.81 1.81 0 0 0 -.8-.15h-3.33v4.37h-1.35v-10.27zm.29 4.63a1.91 1.91 0 0 0 .75-.27 1.55 1.55 0 0 0 .52-.56 1.89 1.89 0 0 0 .19-.91 1.8 1.8 0 0 0 -.43-1.26 1.74 1.74 0 0 0 -1.39-.49h-3.38v3.56h2.84a5.29 5.29 0 0 0 .91-.07z"/><path d="m160.74 74a3.37 3.37 0 0 1 -2.09.63 3.82 3.82 0 0 1 -1.54-.28 3 3 0 0 1 -1.09-.8 3.45 3.45 0 0 1 -.67-1.24 5.78 5.78 0 0 1 -.25-1.55 4.5 4.5 0 0 1 .26-1.55 3.72 3.72 0 0 1 .72-1.22 3.35 3.35 0 0 1 1.1-.8 3.4 3.4 0 0 1 1.4-.28 3.07 3.07 0 0 1 1.64.4 3.23 3.23 0 0 1 1 1 4 4 0 0 1 .54 1.37 5.44 5.44 0 0 1 .13 1.42h-5.54a3.06 3.06 0 0 0 .11.92 2.18 2.18 0 0 0 .42.78 2 2 0 0 0 .73.53 2.38 2.38 0 0 0 1 .2 2.1 2.1 0 0 0 1.27-.35 1.75 1.75 0 0 0 .65-1.09h1.2a2.92 2.92 0 0 1 -.99 1.91zm-.29-4.75a2.15 2.15 0 0 0 -1.11-1.11 2 2 0 0 0 -.83-.16 2.16 2.16 0 0 0 -.86.16 2 2 0 0 0 -.65.45 2.33 2.33 0 0 0 -.43.67 2.66 2.66 0 0 0 -.18.81h4.25a2.52 2.52 0 0 0 -.19-.78z"/><path d="m164.12 72.86a1.21 1.21 0 0 0 .45.45 1.75 1.75 0 0 0 .63.23 3.38 3.38 0 0 0 .72.07 4.22 4.22 0 0 0 .6 0 2.06 2.06 0 0 0 .58-.16 1 1 0 0 0 .44-.33.94.94 0 0 0 .17-.57.8.8 0 0 0 -.36-.71 3.06 3.06 0 0 0 -.89-.4q-.54-.15-1.17-.27a5.91 5.91 0 0 1 -1.17-.34 2.48 2.48 0 0 1 -.89-.63 1.58 1.58 0 0 1 -.36-1.11 1.85 1.85 0 0 1 .25-1 2 2 0 0 1 .65-.65 2.78 2.78 0 0 1 .88-.37 4.17 4.17 0 0 1 1-.12 6 6 0 0 1 1.16.1 2.72 2.72 0 0 1 .94.37 2 2 0 0 1 .65.72 2.64 2.64 0 0 1 .29 1.12h-1.22a1.28 1.28 0 0 0 -.18-.59 1.24 1.24 0 0 0 -.41-.38 2.25 2.25 0 0 0 -.53-.21 3.05 3.05 0 0 0 -.6-.06 3.48 3.48 0 0 0 -.55 0 2.15 2.15 0 0 0 -.51.15 1.06 1.06 0 0 0 -.37.29.74.74 0 0 0 -.14.46.69.69 0 0 0 .22.53 2 2 0 0 0 .57.34 4.69 4.69 0 0 0 .77.23l.86.19c.31.07.6.15.89.24a3.53 3.53 0 0 1 .78.38 1.94 1.94 0 0 1 .54.6 1.71 1.71 0 0 1 .21.88 2 2 0 0 1 -.28 1.12 2.18 2.18 0 0 1 -.73.72 3 3 0 0 1 -1 .38 6.06 6.06 0 0 1 -1.12.1 5.08 5.08 0 0 1 -1.18-.13 2.63 2.63 0 0 1 -1-.42 2.06 2.06 0 0 1 -.69-.77 2.73 2.73 0 0 1 -.29-1.17h1.22a1.3 1.3 0 0 0 .17.72z"/><path d="m175.58 74a3.35 3.35 0 0 1 -2.09.63 3.85 3.85 0 0 1 -1.54-.28 3 3 0 0 1 -1.09-.8 3.45 3.45 0 0 1 -.67-1.24 6.21 6.21 0 0 1 -.25-1.55 4.5 4.5 0 0 1 .26-1.55 3.72 3.72 0 0 1 .72-1.22 3.29 3.29 0 0 1 1.11-.8 3.35 3.35 0 0 1 1.39-.28 3 3 0 0 1 1.64.4 3.23 3.23 0 0 1 1 1 4 4 0 0 1 .55 1.37 5.88 5.88 0 0 1 .12 1.42h-5.54a2.77 2.77 0 0 0 .12.92 2 2 0 0 0 1.14 1.31 2.41 2.41 0 0 0 1 .2 2.1 2.1 0 0 0 1.27-.35 1.7 1.7 0 0 0 .65-1.09h1.21a3 3 0 0 1 -1 1.91zm-.29-4.75a1.93 1.93 0 0 0 -.45-.66 2 2 0 0 0 -.65-.45 2.13 2.13 0 0 0 -.84-.16 2.08 2.08 0 0 0 -.85.16 1.89 1.89 0 0 0 -.65.45 2 2 0 0 0 -.43.67 2.4 2.4 0 0 0 -.19.81h4.25a2.52 2.52 0 0 0 -.19-.78z"/><path d="m184.59 74.49a1.8 1.8 0 0 1 -.88.18 1 1 0 0 1 -.75-.26 1.15 1.15 0 0 1 -.28-.87 2.9 2.9 0 0 1 -1.17.87 4.13 4.13 0 0 1 -2.39.15 2.33 2.33 0 0 1 -.78-.36 1.65 1.65 0 0 1 -.52-.64 2.09 2.09 0 0 1 -.19-1 2.22 2.22 0 0 1 .21-1 2 2 0 0 1 .57-.65 2.57 2.57 0 0 1 .8-.38c.3-.08.61-.16.92-.21a9.26 9.26 0 0 1 1-.15 5 5 0 0 0 .8-.15 1.25 1.25 0 0 0 .54-.27.64.64 0 0 0 .2-.52 1.19 1.19 0 0 0 -.15-.64 1.06 1.06 0 0 0 -.38-.38 1.83 1.83 0 0 0 -.53-.17 3.86 3.86 0 0 0 -.58 0 2.62 2.62 0 0 0 -1.29.29 1.27 1.27 0 0 0 -.56 1.11h-1.22a2.68 2.68 0 0 1 .29-1.16 2.1 2.1 0 0 1 .69-.76 2.81 2.81 0 0 1 1-.43 5.55 5.55 0 0 1 1.18-.12 6.5 6.5 0 0 1 1 .07 2.44 2.44 0 0 1 .9.29 1.66 1.66 0 0 1 .64.62 1.91 1.91 0 0 1 .25 1v3.8a2.46 2.46 0 0 0 0 .63c0 .13.14.2.33.2a1.48 1.48 0 0 0 .38-.06zm-2-3.8a1.38 1.38 0 0 1 -.6.25 6.34 6.34 0 0 1 -.78.13c-.27 0-.55.07-.82.12a3.16 3.16 0 0 0 -.75.2 1.39 1.39 0 0 0 -.54.41 1.18 1.18 0 0 0 -.2.72 1 1 0 0 0 .12.5 1 1 0 0 0 .31.34 1.29 1.29 0 0 0 .45.18 2.51 2.51 0 0 0 .55.06 2.9 2.9 0 0 0 1-.16 2.07 2.07 0 0 0 .7-.42 1.46 1.46 0 0 0 .4-.54 1.29 1.29 0 0 0 .13-.55z"/><path d="m186.82 67.12v1.56a3.27 3.27 0 0 1 1.08-1.33 2.66 2.66 0 0 1 1.64-.4v1.28a3.52 3.52 0 0 0 -1.25.2 2 2 0 0 0 -.83.59 2.51 2.51 0 0 0 -.46.98 5.27 5.27 0 0 0 -.14 1.26v3.3h-1.22v-7.4z"/><path d="m194.65 68.41a1.85 1.85 0 0 0 -1.23-.39 2.34 2.34 0 0 0 -1.11.24 1.9 1.9 0 0 0 -.7.65 2.45 2.45 0 0 0 -.38.92 4.83 4.83 0 0 0 -.12 1.08 4.15 4.15 0 0 0 .12 1 2.87 2.87 0 0 0 .38.87 1.9 1.9 0 0 0 1.66.83 2 2 0 0 0 1.41-.47 2.14 2.14 0 0 0 .63-1.33h1.24a3.38 3.38 0 0 1 -1 2.12 3.21 3.21 0 0 1 -2.24.74 3.9 3.9 0 0 1 -1.5-.27 3 3 0 0 1 -1.09-.77 3.16 3.16 0 0 1 -.65-1.2 4.89 4.89 0 0 1 -.23-1.52 5.53 5.53 0 0 1 .22-1.55 3.43 3.43 0 0 1 .65-1.26 3.15 3.15 0 0 1 1.09-.85 3.68 3.68 0 0 1 1.54-.3 4.11 4.11 0 0 1 1.18.15 2.9 2.9 0 0 1 1 .46 2.55 2.55 0 0 1 .69.8 2.73 2.73 0 0 1 .35 1.13h-1.26a1.85 1.85 0 0 0 -.65-1.08z"/><path d="m199.13 64.3v3.9a1.59 1.59 0 0 1 .4-.58 2.33 2.33 0 0 1 .58-.38 2.63 2.63 0 0 1 .67-.22 3.21 3.21 0 0 1 .68-.07 3.12 3.12 0 0 1 1.22.2 2 2 0 0 1 .78.55 2.11 2.11 0 0 1 .43.86 4.61 4.61 0 0 1 .12 1.09v4.87h-1.22v-5a1.38 1.38 0 0 0 -1.5-1.49 2.59 2.59 0 0 0 -1 .17 1.78 1.78 0 0 0 -.68.49 2.09 2.09 0 0 0 -.41.73 3.08 3.08 0 0 0 -.13.93v4.18h-1.22v-10.23z"/><path d="m209 65.44v-1.14h8.17v1.14h-3.4v9.08h-1.36v-9.08z"/><path d="m216.3 69.3a3.7 3.7 0 0 1 .69-1.23 3.38 3.38 0 0 1 1.13-.83 3.79 3.79 0 0 1 1.55-.29 3.73 3.73 0 0 1 1.55.29 3.25 3.25 0 0 1 1.12.83 3.38 3.38 0 0 1 .66 1.23 5.14 5.14 0 0 1 0 3 3.26 3.26 0 0 1 -.69 1.22 3 3 0 0 1 -1.12.82 3.73 3.73 0 0 1 -1.55.29 3.79 3.79 0 0 1 -1.55-.29 3.11 3.11 0 0 1 -1.13-.82 3.56 3.56 0 0 1 -.69-1.22 5.36 5.36 0 0 1 0-3zm1.24 2.7a2.46 2.46 0 0 0 .5.87 2 2 0 0 0 .73.54 2.32 2.32 0 0 0 1.79 0 2 2 0 0 0 .74-.54 2.44 2.44 0 0 0 .49-.87 4.06 4.06 0 0 0 0-2.39 2.58 2.58 0 0 0 -.49-.88 2.2 2.2 0 0 0 -.74-.55 2.32 2.32 0 0 0 -1.79 0 2.17 2.17 0 0 0 -.73.55 2.6 2.6 0 0 0 -.5.88 4.06 4.06 0 0 0 0 2.39z"/><path d="m230.09 74.52v-1a1.78 1.78 0 0 1 -.94.89 3.67 3.67 0 0 1 -1.42.27 3.38 3.38 0 0 1 -1.5-.31 3 3 0 0 1 -1.06-.85 3.58 3.58 0 0 1 -.63-1.23 4.78 4.78 0 0 1 -.22-1.48 5.11 5.11 0 0 1 .21-1.49 3.58 3.58 0 0 1 .63-1.23 3 3 0 0 1 1.06-.83 3.43 3.43 0 0 1 1.48-.3 3.27 3.27 0 0 1 .61 0 3.32 3.32 0 0 1 .66.2 2.8 2.8 0 0 1 .63.35 2 2 0 0 1 .49.55v-3.76h1.22v10.22zm-4.37-2.63a2.64 2.64 0 0 0 .41.88 2.07 2.07 0 0 0 .72.62 2.19 2.19 0 0 0 1 .22 2.14 2.14 0 0 0 1-.24 2.22 2.22 0 0 0 .7-.63 2.8 2.8 0 0 0 .39-.9 4.31 4.31 0 0 0 .12-1 4.08 4.08 0 0 0 -.13-1 2.42 2.42 0 0 0 -.41-.89 2 2 0 0 0 -.72-.63 2.32 2.32 0 0 0 -1-.32 2.14 2.14 0 0 0 -1.05.24 1.93 1.93 0 0 0 -.68.65 2.65 2.65 0 0 0 -.38.91 5.29 5.29 0 0 0 -.11 1.06 3.47 3.47 0 0 0 .14 1.03z"/><path d="m239.73 74.49a1.74 1.74 0 0 1 -.87.18 1 1 0 0 1 -.75-.26 1.15 1.15 0 0 1 -.28-.87 2.9 2.9 0 0 1 -1.17.87 4.13 4.13 0 0 1 -2.39.15 2.33 2.33 0 0 1 -.78-.36 1.65 1.65 0 0 1 -.52-.64 2.09 2.09 0 0 1 -.19-1 2.22 2.22 0 0 1 .21-1 2 2 0 0 1 .57-.65 2.57 2.57 0 0 1 .8-.38c.3-.08.61-.16.92-.21a9.26 9.26 0 0 1 .95-.15 5 5 0 0 0 .77-.17 1.25 1.25 0 0 0 .54-.27.64.64 0 0 0 .2-.52 1.19 1.19 0 0 0 -.15-.64 1.06 1.06 0 0 0 -.38-.38 1.83 1.83 0 0 0 -.53-.17 3.86 3.86 0 0 0 -.58 0 2.62 2.62 0 0 0 -1.29.29 1.27 1.27 0 0 0 -.56 1.11h-1.22a2.68 2.68 0 0 1 .29-1.16 2.1 2.1 0 0 1 .69-.76 2.81 2.81 0 0 1 1-.43 5.55 5.55 0 0 1 1.19-.07 6.59 6.59 0 0 1 1 .07 2.44 2.44 0 0 1 .9.29 1.66 1.66 0 0 1 .64.62 2 2 0 0 1 .25 1v3.8a2.46 2.46 0 0 0 .05.63c0 .13.14.2.33.2a1.35 1.35 0 0 0 .37-.06zm-2-3.8a1.38 1.38 0 0 1 -.6.25 6.34 6.34 0 0 1 -.78.13c-.28 0-.55.07-.82.12a3.16 3.16 0 0 0 -.75.2 1.39 1.39 0 0 0 -.54.41 1.18 1.18 0 0 0 -.2.72 1 1 0 0 0 .12.5 1 1 0 0 0 .31.34 1.29 1.29 0 0 0 .45.18 2.44 2.44 0 0 0 .55.06 2.9 2.9 0 0 0 1-.16 2.17 2.17 0 0 0 .7-.42 1.58 1.58 0 0 0 .4-.54 1.29 1.29 0 0 0 .13-.55z"/><path d="m243.77 75.5a6.81 6.81 0 0 1 -.42.92 2.5 2.5 0 0 1 -.46.61 1.48 1.48 0 0 1 -.56.34 2.16 2.16 0 0 1 -.71.11h-.43a1.89 1.89 0 0 1 -.41-.1v-1.15a2.49 2.49 0 0 0 .36.13 1.82 1.82 0 0 0 .35 0 1.07 1.07 0 0 0 .63-.18 1.18 1.18 0 0 0 .38-.51l.5-1.25-2.94-7.35h1.38l2.16 6 2.07-6h1.33z"/><path d="m248.82 72.93v1.59h-1.59v-1.59z"/><path d="m252.8 72.93v1.59h-1.58v-1.59z"/><path d="m256.78 72.93v1.59h-1.59v-1.59z"/><path d="m261.58 74.52-3.58-10.22h1.46l2.92 8.86 2.94-8.86h1.42l-3.63 10.22z"/><path d="m267.46 65.78v-1.48h1.22v1.48zm1.22 1.34v7.4h-1.22v-7.4z"/><path d="m271.5 72.86a1.21 1.21 0 0 0 .45.45 1.75 1.75 0 0 0 .63.23 3.38 3.38 0 0 0 .72.07 4.22 4.22 0 0 0 .6 0 2.06 2.06 0 0 0 .58-.16 1 1 0 0 0 .44-.33.94.94 0 0 0 .17-.57.8.8 0 0 0 -.36-.71 3.06 3.06 0 0 0 -.89-.4q-.54-.15-1.17-.27a5.91 5.91 0 0 1 -1.17-.34 2.48 2.48 0 0 1 -.89-.63 1.58 1.58 0 0 1 -.36-1.11 1.85 1.85 0 0 1 .25-1 2 2 0 0 1 .65-.65 2.78 2.78 0 0 1 .88-.37 4.19 4.19 0 0 1 1-.12 5.93 5.93 0 0 1 1.15.1 2.72 2.72 0 0 1 .94.37 2 2 0 0 1 .65.72 2.64 2.64 0 0 1 .29 1.12h-1.22a1.28 1.28 0 0 0 -.18-.59 1.32 1.32 0 0 0 -.4-.38 2.33 2.33 0 0 0 -.54-.21 3 3 0 0 0 -.6-.06 3.48 3.48 0 0 0 -.55 0 1.94 1.94 0 0 0 -.5.15 1 1 0 0 0 -.38.29.74.74 0 0 0 -.14.46.69.69 0 0 0 .22.53 2 2 0 0 0 .57.34 5 5 0 0 0 .77.23l.86.19c.31.07.6.15.89.24a3.53 3.53 0 0 1 .78.38 1.94 1.94 0 0 1 .54.6 1.71 1.71 0 0 1 .21.88 2 2 0 0 1 -.28 1.12 2.18 2.18 0 0 1 -.73.72 3 3 0 0 1 -1 .38 6.06 6.06 0 0 1 -1.12.1 4.94 4.94 0 0 1 -1.17-.13 2.67 2.67 0 0 1 -1-.42 2.06 2.06 0 0 1 -.69-.77 2.59 2.59 0 0 1 -.28-1.17h1.21a1.3 1.3 0 0 0 .17.72z"/><path d="m277.8 65.78v-1.48h1.2v1.48zm1.2 1.34v7.4h-1.2v-7.4z"/><path d="m280.73 69.3a3.38 3.38 0 0 1 .69-1.23 3.29 3.29 0 0 1 1.13-.83 3.71 3.71 0 0 1 1.54-.29 3.81 3.81 0 0 1 1.56.29 3.45 3.45 0 0 1 1.12.83 3.7 3.7 0 0 1 .69 1.23 5.36 5.36 0 0 1 0 3 3.56 3.56 0 0 1 -.69 1.22 3.16 3.16 0 0 1 -1.12.82 3.81 3.81 0 0 1 -1.56.29 3.71 3.71 0 0 1 -1.54-.29 3 3 0 0 1 -1.13-.82 3.26 3.26 0 0 1 -.69-1.22 5.14 5.14 0 0 1 0-3zm1.27 2.7a2.44 2.44 0 0 0 .49.87 2 2 0 0 0 .74.54 2.32 2.32 0 0 0 1.79 0 2 2 0 0 0 .73-.54 2.46 2.46 0 0 0 .5-.87 4.06 4.06 0 0 0 0-2.39 2.6 2.6 0 0 0 -.5-.88 2.17 2.17 0 0 0 -.73-.55 2.32 2.32 0 0 0 -1.79 0 2.2 2.2 0 0 0 -.74.55 2.58 2.58 0 0 0 -.49.88 4.06 4.06 0 0 0 0 2.39z"/><path d="m290.26 67.12v1.17a2.56 2.56 0 0 1 2.44-1.29 3.06 3.06 0 0 1 1.21.2 2 2 0 0 1 .79.55 2.1 2.1 0 0 1 .42.86 4.61 4.61 0 0 1 .12 1.09v4.87h-1.24v-5a1.38 1.38 0 0 0 -1.48-1.57 2.53 2.53 0 0 0 -1 .17 1.78 1.78 0 0 0 -.68.49 2.09 2.09 0 0 0 -.41.73 3.07 3.07 0 0 0 -.14.93v4.18h-1.21v-7.4z"/><path d="m300.17 65.44v-1.14h8.17v1.14h-3.41v9.08h-1.36v-9.08z"/><path d="m307.51 69.3a3.38 3.38 0 0 1 .69-1.23 3.29 3.29 0 0 1 1.13-.83 4.29 4.29 0 0 1 3.1 0 3.34 3.34 0 0 1 1.12.83 3.53 3.53 0 0 1 .69 1.23 5.14 5.14 0 0 1 0 3 3.4 3.4 0 0 1 -.69 1.22 3.07 3.07 0 0 1 -1.12.82 4.29 4.29 0 0 1 -3.1 0 3 3 0 0 1 -1.13-.82 3.26 3.26 0 0 1 -.69-1.22 5.14 5.14 0 0 1 0-3zm1.24 2.7a2.44 2.44 0 0 0 .49.87 2 2 0 0 0 .74.54 2.32 2.32 0 0 0 1.79 0 2.14 2.14 0 0 0 .74-.54 2.44 2.44 0 0 0 .49-.87 4.06 4.06 0 0 0 0-2.39 2.58 2.58 0 0 0 -.49-.88 2.31 2.31 0 0 0 -.74-.55 2.32 2.32 0 0 0 -1.79 0 2.2 2.2 0 0 0 -.74.55 2.58 2.58 0 0 0 -.49.88 4.06 4.06 0 0 0 0 2.39z"/><path d="m317 67.12v1.08a2.92 2.92 0 0 1 3.64-1 1.6 1.6 0 0 1 .78 1 2.6 2.6 0 0 1 1-.93 2.72 2.72 0 0 1 1.33-.32 3.89 3.89 0 0 1 1 .12 2 2 0 0 1 .78.38 1.75 1.75 0 0 1 .5.66 2.42 2.42 0 0 1 .17 1v5.43h-1.21v-4.88a3.24 3.24 0 0 0 .01-.66 1.42 1.42 0 0 0 -.21-.52 1 1 0 0 0 -.44-.35 1.69 1.69 0 0 0 -.72-.13 1.93 1.93 0 0 0 -1.42.51 1.9 1.9 0 0 0 -.52 1.38v4.61h-1.21v-4.84a2.7 2.7 0 0 0 -.07-.65 1.32 1.32 0 0 0 -.22-.53 1 1 0 0 0 -.42-.34 1.66 1.66 0 0 0 -.68-.12 1.85 1.85 0 0 0 -.91.21 2.29 2.29 0 0 0 -.62.52 2.24 2.24 0 0 0 -.34.62 1.84 1.84 0 0 0 -.11.54v4.61h-1.21v-7.4z"/><path d="m327.93 69.3a3.7 3.7 0 0 1 .69-1.23 3.38 3.38 0 0 1 1.13-.83 3.79 3.79 0 0 1 1.55-.24 3.73 3.73 0 0 1 1.55.29 3.25 3.25 0 0 1 1.12.83 3.38 3.38 0 0 1 .69 1.23 5.14 5.14 0 0 1 0 3 3.26 3.26 0 0 1 -.69 1.22 3 3 0 0 1 -1.12.82 3.73 3.73 0 0 1 -1.55.29 3.79 3.79 0 0 1 -1.55-.29 3.11 3.11 0 0 1 -1.13-.82 3.56 3.56 0 0 1 -.69-1.22 5.36 5.36 0 0 1 0-3zm1.24 2.7a2.46 2.46 0 0 0 .5.87 2 2 0 0 0 .73.54 2.3 2.3 0 0 0 .9.18 2.25 2.25 0 0 0 .89-.18 2 2 0 0 0 .74-.54 2.46 2.46 0 0 0 .5-.87 4.29 4.29 0 0 0 0-2.39 2.6 2.6 0 0 0 -.5-.88 2.2 2.2 0 0 0 -.74-.55 2.25 2.25 0 0 0 -.89-.18 2.3 2.3 0 0 0 -.9.18 2.17 2.17 0 0 0 -.73.55 2.6 2.6 0 0 0 -.5.88 4.06 4.06 0 0 0 0 2.39z"/><path d="m337.42 67.12v1.56a3.29 3.29 0 0 1 1.09-1.33 2.64 2.64 0 0 1 1.63-.4v1.28a3.5 3.5 0 0 0 -1.24.2 2 2 0 0 0 -.83.59 2.51 2.51 0 0 0 -.46.94 4.81 4.81 0 0 0 -.14 1.26v3.3h-1.22v-7.4z"/><path d="m342.19 67.12v1.56a3.29 3.29 0 0 1 1.09-1.33 2.63 2.63 0 0 1 1.63-.4v1.28a3.56 3.56 0 0 0 -1.25.2 1.93 1.93 0 0 0 -.82.59 2.24 2.24 0 0 0 -.46.94 4.78 4.78 0 0 0 -.15 1.26v3.3h-1.21v-7.4z"/><path d="m345.43 69.3a3.51 3.51 0 0 1 .68-1.23 3.42 3.42 0 0 1 1.14-.83 4.26 4.26 0 0 1 3.09 0 3.38 3.38 0 0 1 1.13.83 3.51 3.51 0 0 1 .68 1.23 5.14 5.14 0 0 1 0 3 3.38 3.38 0 0 1 -.68 1.22 3.11 3.11 0 0 1 -1.13.82 4.26 4.26 0 0 1 -3.09 0 3.15 3.15 0 0 1 -1.14-.82 3.38 3.38 0 0 1 -.68-1.22 5.14 5.14 0 0 1 0-3zm1.23 2.7a2.46 2.46 0 0 0 .5.87 2 2 0 0 0 .74.54 2.25 2.25 0 0 0 .89.18 2.3 2.3 0 0 0 .9-.18 2 2 0 0 0 .73-.54 2.46 2.46 0 0 0 .5-.87 4.06 4.06 0 0 0 0-2.39 2.6 2.6 0 0 0 -.5-.88 2.17 2.17 0 0 0 -.73-.55 2.3 2.3 0 0 0 -.9-.18 2.25 2.25 0 0 0 -.89.18 2.11 2.11 0 0 0 -.74.55 2.6 2.6 0 0 0 -.5.88 4.29 4.29 0 0 0 0 2.39z"/><path d="m359.86 74.52-1.51-5.89-1.49 5.89h-1.31l-2.38-7.4h1.35l1.67 6 1.49-6h1.32l1.55 6 1.66-6h1.25l-2.36 7.4z"/></g></svg>