<?xml version="1.0" encoding="UTF-8"?>
<svg xmlns="http://www.w3.org/2000/svg" version="1.1" viewBox="0 0 448.49 55.94">
  <defs>
    <style>
      .cls-1 {
        fill: #005593;
      }

      .cls-2 {
        stroke: #808083;
        stroke-miterlimit: 10;
      }

      .cls-2, .cls-3 {
        fill: #636569;
      }

      .cls-4 {
        fill: #808083;
      }

      .cls-5 {
        fill: #69a2b8;
      }
    </style>
  </defs>
  <!-- Generator: Adobe Illustrator 28.6.0, SVG Export Plug-In . SVG Version: 1.2.0 Build 709)  -->
  <g>
    <g id="NIBIB_Logo">
      <g>
        <g>
          <path class="cls-5" d="M275.04,32.26h1.91l-.55,2.67h1.77l-.31,1.46h-1.77l-.91,4.35c-.05.19-.09.38-.12.55-.04.17-.05.31-.05.41,0,.2.04.35.13.47s.28.18.58.18c.15,0,.31,0,.49,0,.18,0,.36-.03.56-.08l-.33,1.44c-.25.06-.52.1-.81.14-.29.03-.56.05-.81.05-.36,0-.65-.05-.88-.14-.23-.09-.41-.21-.54-.37-.13-.15-.22-.33-.28-.53-.05-.2-.08-.4-.08-.61,0-.17.01-.36.04-.57s.05-.35.08-.43l1.01-4.87h-1.55l.31-1.46h1.55l.55-2.67Z"/>
          <path class="cls-5" d="M280.37,31.53h1.96l-.96,4.64h.03c.33-.45.76-.81,1.29-1.08.53-.28,1.07-.41,1.63-.41.89,0,1.55.21,1.97.64.42.42.63,1,.63,1.72,0,.16,0,.34-.02.55-.01.21-.04.39-.07.55l-1.19,5.67h-1.96l1.13-5.49c.03-.15.07-.29.09-.43.03-.14.04-.27.04-.4,0-.07,0-.17,0-.32,0-.14-.05-.29-.13-.43s-.21-.27-.4-.37c-.19-.1-.46-.15-.82-.15-.39,0-.74.08-1.04.25-.3.17-.58.37-.82.61s-.43.51-.59.85-.29.69-.37,1.06l-1,4.82h-1.96l2.54-12.28Z"/>
          <path class="cls-5" d="M296.24,41.06c-.31,1.04-.83,1.8-1.57,2.28-.73.48-1.64.71-2.72.71-.56,0-1.08-.09-1.56-.27s-.89-.44-1.23-.77-.61-.75-.81-1.22c-.19-.48-.29-1.02-.29-1.62,0-.69.11-1.36.33-2.01s.54-1.24.95-1.75c.42-.52.93-.93,1.55-1.25.61-.31,1.32-.47,2.11-.47s1.43.13,1.93.4.88.6,1.15,1c.28.4.46.84.56,1.32.1.48.15.94.15,1.38,0,.22-.01.42-.03.6-.02.18-.05.35-.07.5h-6.62c-.01.06-.02.11-.03.16s0,.09,0,.14v.27c0,.62.16,1.12.49,1.5.33.38.87.57,1.63.57.53,0,.98-.12,1.36-.36.38-.24.64-.6.77-1.08h1.96ZM294.81,38.59c.01-.06.02-.11.02-.15v-.4c0-.53-.17-.96-.5-1.3-.33-.34-.79-.51-1.38-.51-.73,0-1.32.22-1.75.66s-.75,1.01-.95,1.69h4.56Z"/>
          <path class="cls-5" d="M304.82,31.53h8.38l-.38,1.86h-6.24l-.67,3.22h5.42l-.38,1.75h-5.4l-1.13,5.45h-2.15l2.56-12.28Z"/>
          <path class="cls-5" d="M319.99,43.81h-1.84l.28-1.29-.03-.03c-.36.49-.8.88-1.33,1.15-.53.27-1.11.41-1.73.41-.89,0-1.55-.21-1.97-.64s-.63-1-.63-1.72c0-.16,0-.34.02-.55.01-.21.03-.39.07-.55l1.19-5.67h1.96l-1.13,5.49c-.03.15-.07.29-.09.43-.03.14-.04.27-.04.4,0,.07,0,.17,0,.32,0,.14.05.29.13.43.08.14.21.27.4.37.18.1.46.15.83.15s.72-.08,1.04-.25.59-.38.83-.64c.24-.26.44-.56.6-.89.16-.33.28-.66.34-.99l1-4.81h1.96l-1.84,8.89Z"/>
          <path class="cls-5" d="M325.05,32.26h1.91l-.55,2.67h1.77l-.31,1.46h-1.77l-.91,4.35c-.05.19-.09.38-.12.55-.04.17-.05.31-.05.41,0,.2.04.35.13.47s.28.18.58.18c.15,0,.31,0,.49,0,.18,0,.36-.03.56-.08l-.33,1.44c-.25.06-.52.1-.81.14-.29.03-.56.05-.81.05-.36,0-.65-.05-.88-.14s-.41-.21-.54-.37c-.13-.15-.22-.33-.28-.53-.05-.2-.08-.4-.08-.61,0-.17.01-.36.04-.57s.05-.35.08-.43l1.01-4.87h-1.55l.31-1.46h1.55l.55-2.67Z"/>
          <path class="cls-5" d="M335.59,43.81h-1.84l.28-1.29-.03-.03c-.36.49-.8.88-1.33,1.15-.53.27-1.11.41-1.73.41-.89,0-1.55-.21-1.97-.64s-.63-1-.63-1.72c0-.16,0-.34.02-.55.01-.21.03-.39.07-.55l1.19-5.67h1.96l-1.13,5.49c-.03.15-.07.29-.09.43-.03.14-.04.27-.04.4,0,.07,0,.17,0,.32,0,.14.05.29.13.43.08.14.21.27.4.37.18.1.46.15.83.15s.72-.08,1.04-.25.59-.38.83-.64c.24-.26.44-.56.6-.89.16-.33.28-.66.34-.99l1-4.81h1.96l-1.84,8.89Z"/>
          <path class="cls-5" d="M339.54,34.92h1.86l-.36,1.74.03.03c.14-.24.31-.48.51-.72.2-.24.42-.46.66-.65.24-.19.5-.34.78-.46.28-.12.58-.18.89-.18.16,0,.32,0,.47,0,.16,0,.31.02.47.04l-.41,1.87c-.12-.02-.23-.04-.34-.05-.11-.01-.23-.02-.34-.02-.5,0-.94.09-1.32.27-.37.18-.69.42-.95.73-.26.31-.47.67-.63,1.07-.16.4-.29.83-.38,1.27l-.83,3.94h-1.96l1.84-8.89Z"/>
          <path class="cls-5" d="M352.61,41.06c-.31,1.04-.83,1.8-1.57,2.28-.73.48-1.64.71-2.72.71-.56,0-1.08-.09-1.56-.27s-.89-.44-1.23-.77-.61-.75-.81-1.22c-.19-.48-.29-1.02-.29-1.62,0-.69.11-1.36.33-2.01s.54-1.24.95-1.75c.42-.52.93-.93,1.55-1.25.61-.31,1.32-.47,2.11-.47s1.43.13,1.93.4.88.6,1.15,1c.28.4.46.84.56,1.32.1.48.15.94.15,1.38,0,.22-.01.42-.03.6-.02.18-.05.35-.07.5h-6.62c-.01.06-.02.11-.03.16s0,.09,0,.14v.27c0,.62.16,1.12.49,1.5.33.38.87.57,1.63.57.53,0,.98-.12,1.36-.36.38-.24.64-.6.77-1.08h1.96ZM351.18,38.59c.01-.06.02-.11.02-.15v-.4c0-.53-.17-.96-.5-1.3-.33-.34-.79-.51-1.38-.51-.73,0-1.32.22-1.75.66s-.75,1.01-.95,1.69h4.56Z"/>
          <path class="cls-5" d="M362.71,44.05c-1.24,0-2.2-.33-2.87-1.01s-1.01-1.63-1.01-2.88c0-.73.12-1.43.36-2.09.24-.66.58-1.24,1.02-1.75.44-.5.97-.91,1.6-1.2.62-.3,1.32-.45,2.09-.45,1.24,0,2.2.32,2.87.97s1.01,1.6,1.01,2.85c0,.78-.12,1.51-.34,2.18-.23.68-.57,1.26-1.01,1.76-.44.5-.97.89-1.6,1.18s-1.33.43-2.12.43ZM363.77,36.23c-.5,0-.94.13-1.32.38-.37.25-.69.57-.94.96-.25.38-.44.81-.56,1.28-.12.47-.18.93-.18,1.38,0,.65.16,1.2.49,1.63.33.44.84.65,1.56.65.5,0,.94-.12,1.32-.37.37-.25.69-.56.94-.95.25-.38.44-.81.56-1.29.12-.48.18-.94.18-1.38,0-.65-.16-1.2-.49-1.63-.33-.44-.85-.65-1.56-.65Z"/>
          <path class="cls-5" d="M370.7,36.38h-1.46l.29-1.46h1.46c.1-.52.21-.98.33-1.39.11-.41.28-.77.5-1.07.22-.3.51-.53.88-.69.37-.16.85-.24,1.44-.24.26,0,.52.01.76.04.24.03.48.05.71.08l-.33,1.5c-.2-.05-.45-.07-.76-.07-.33,0-.59.05-.76.14s-.32.22-.41.39c-.1.17-.17.36-.21.58s-.1.47-.17.73h1.72l-.29,1.46h-1.72l-1.55,7.43h-1.96l1.55-7.43Z"/>
          <path class="cls-5" d="M381.45,31.53h2.15l-1.01,4.88h5.74l1.01-4.88h2.15l-2.55,12.28h-2.15l1.15-5.54h-5.74l-1.15,5.54h-2.15l2.55-12.28Z"/>
          <path class="cls-5" d="M399.77,41.06c-.31,1.04-.83,1.8-1.57,2.28-.73.48-1.64.71-2.72.71-.56,0-1.08-.09-1.56-.27s-.89-.44-1.23-.77-.61-.75-.81-1.22c-.19-.48-.29-1.02-.29-1.62,0-.69.11-1.36.33-2.01s.54-1.24.95-1.75c.42-.52.93-.93,1.55-1.25.61-.31,1.32-.47,2.11-.47s1.43.13,1.93.4.88.6,1.15,1c.28.4.46.84.56,1.32.1.48.15.94.15,1.38,0,.22-.01.42-.03.6-.02.18-.05.35-.07.5h-6.62c-.01.06-.02.11-.03.16s0,.09,0,.14v.27c0,.62.16,1.12.49,1.5.33.38.87.57,1.63.57.53,0,.98-.12,1.36-.36.38-.24.64-.6.77-1.08h1.96ZM398.34,38.59c.01-.06.02-.11.02-.15v-.4c0-.53-.17-.96-.5-1.3-.33-.34-.79-.51-1.38-.51-.73,0-1.32.22-1.75.66s-.75,1.01-.95,1.69h4.56Z"/>
          <path class="cls-5" d="M408.69,41.23c-.03.16-.07.32-.11.46-.04.15-.06.29-.06.41s.03.22.09.29c.06.07.17.1.33.1.11,0,.23-.01.34-.04.11-.03.23-.05.34-.06l-.31,1.41c-.25.06-.5.11-.76.16s-.51.08-.77.08c-.33,0-.61-.1-.83-.31-.22-.21-.34-.48-.36-.83-.39.39-.85.68-1.38.86-.53.18-1.07.27-1.62.27-.37,0-.72-.05-1.05-.15-.33-.1-.63-.25-.88-.45-.26-.2-.46-.44-.61-.74-.15-.3-.22-.64-.22-1.03,0-.55.1-1.01.31-1.38.21-.37.48-.68.83-.92.34-.24.74-.42,1.19-.53.45-.12.92-.19,1.41-.22.67-.05,1.32-.1,1.96-.16.36-.02.62-.14.78-.35.17-.21.25-.48.25-.82,0-.42-.15-.71-.45-.85s-.65-.21-1.05-.21c-.55,0-1.02.09-1.42.28-.4.19-.66.56-.8,1.11h-1.86c.1-.55.28-1.01.53-1.38.25-.37.56-.68.93-.91.37-.23.78-.4,1.25-.5.46-.1.96-.15,1.49-.15.8,0,1.43.08,1.88.23.45.15.79.34,1,.56.21.22.34.44.39.68.05.23.07.43.07.59,0,.39-.06.84-.17,1.34l-.65,3.15ZM402.79,41.37c0,.22.05.4.15.54.1.14.22.26.37.34.15.09.32.15.5.19s.37.06.55.06c.48,0,.89-.08,1.21-.24s.6-.38.81-.65c.21-.28.38-.6.5-.97.12-.37.21-.77.28-1.2l-.03-.03c-.14.14-.32.23-.55.29s-.45.1-.67.12c-.27.02-.59.05-.95.07-.36.02-.7.08-1.01.18s-.58.25-.81.45c-.22.2-.33.48-.33.85Z"/>
          <path class="cls-5" d="M412.89,31.53h1.96l-2.54,12.28h-1.96l2.54-12.28Z"/>
          <path class="cls-5" d="M417.43,32.26h1.91l-.55,2.67h1.77l-.31,1.46h-1.77l-.91,4.35c-.05.19-.09.38-.12.55-.04.17-.05.31-.05.41,0,.2.04.35.13.47s.28.18.58.18c.15,0,.31,0,.49,0,.18,0,.36-.03.56-.08l-.33,1.44c-.25.06-.52.1-.81.14-.29.03-.56.05-.81.05-.36,0-.65-.05-.88-.14s-.41-.21-.54-.37c-.13-.15-.22-.33-.28-.53-.05-.2-.08-.4-.08-.61,0-.17.01-.36.04-.57s.05-.35.08-.43l1.01-4.87h-1.55l.31-1.46h1.55l.55-2.67Z"/>
          <path class="cls-5" d="M422.76,31.53h1.96l-.96,4.64h.03c.33-.45.76-.81,1.29-1.08.53-.28,1.07-.41,1.63-.41.89,0,1.55.21,1.97.64.42.42.63,1,.63,1.72,0,.16,0,.34-.02.55-.01.21-.04.39-.07.55l-1.19,5.67h-1.96l1.13-5.49c.03-.15.07-.29.09-.43.03-.14.04-.27.04-.4,0-.07,0-.17,0-.32,0-.14-.05-.29-.13-.43s-.21-.27-.4-.37c-.19-.1-.46-.15-.82-.15-.39,0-.74.08-1.04.25-.3.17-.58.37-.82.61s-.43.51-.59.85-.29.69-.37,1.06l-1,4.82h-1.96l2.54-12.28Z"/>
        </g>
        <g>
          <path class="cls-5" d="M272.99,12.22h9.65l-.38,1.77h-3.73l-2.07,9.95h-2.05l2.07-9.95h-3.86l.36-1.77Z"/>
          <path class="cls-5" d="M287.57,21.32c-.29,1-.79,1.72-1.49,2.18-.7.45-1.57.68-2.59.68-.54,0-1.03-.08-1.49-.25-.45-.17-.85-.42-1.17-.74s-.59-.71-.77-1.17c-.19-.45-.28-.97-.28-1.55,0-.66.1-1.3.31-1.92s.51-1.18.91-1.67c.4-.49.89-.89,1.48-1.19.58-.3,1.26-.45,2.01-.45s1.37.13,1.84.38c.47.25.84.57,1.1.95.26.38.44.8.53,1.26s.14.9.14,1.31c0,.21-.01.4-.03.57-.02.18-.04.33-.07.48h-6.32c-.01.05-.02.1-.02.15,0,.04,0,.09,0,.13v.26c0,.59.16,1.07.47,1.43.31.36.83.54,1.55.54.5,0,.94-.11,1.3-.34.36-.23.61-.57.74-1.03h1.87ZM286.21,18.95c.01-.05.02-.1.02-.14v-.39c0-.5-.16-.92-.48-1.24s-.75-.48-1.31-.48c-.7,0-1.26.21-1.67.63-.42.42-.72.96-.9,1.62h4.35Z"/>
          <path class="cls-5" d="M295.27,18.27c.02-.53-.12-.92-.43-1.17-.31-.26-.72-.39-1.25-.39-.47,0-.88.12-1.23.36-.35.24-.64.55-.87.92s-.4.78-.52,1.22c-.11.44-.17.87-.17,1.27,0,.32.03.61.1.88.07.27.17.5.32.7.15.2.34.35.58.47.24.11.54.17.89.17.56,0,1.01-.15,1.37-.44.36-.3.61-.71.76-1.23h1.87c-.31,1.09-.82,1.89-1.54,2.4-.72.5-1.65.76-2.77.76-.56,0-1.05-.09-1.48-.26s-.79-.42-1.08-.75c-.29-.32-.51-.71-.67-1.15s-.23-.93-.23-1.47c0-.71.11-1.39.33-2.04s.54-1.21.95-1.7c.42-.49.92-.87,1.52-1.16.6-.28,1.27-.43,2.03-.43.47,0,.91.07,1.33.2s.78.32,1.08.57c.31.25.55.57.72.95.17.38.26.82.25,1.31h-1.87Z"/>
          <path class="cls-5" d="M300.09,12.22h1.87l-.92,4.43h.03c.32-.43.73-.77,1.23-1.03s1.02-.39,1.56-.39c.85,0,1.48.2,1.88.61.4.41.6.95.6,1.64,0,.15,0,.33-.02.53-.01.2-.03.37-.07.52l-1.13,5.42h-1.87l1.08-5.24c.03-.14.06-.28.09-.41s.04-.26.04-.38c0-.07,0-.17,0-.3,0-.14-.05-.27-.12-.41-.08-.14-.21-.25-.39-.35-.18-.1-.44-.15-.78-.15-.37,0-.7.08-.99.24-.29.16-.55.35-.78.58-.22.22-.41.49-.57.81-.16.32-.28.66-.35,1.01l-.95,4.6h-1.87l2.43-11.72Z"/>
          <path class="cls-5" d="M308.84,15.46h1.76l-.26,1.23.03.03c.34-.47.76-.84,1.27-1.1s1.06-.39,1.65-.39c.85,0,1.48.2,1.88.61.4.41.6.95.6,1.64,0,.15,0,.33-.02.53-.01.2-.03.37-.07.52l-1.13,5.42h-1.87l1.08-5.24c.03-.14.06-.28.09-.41s.04-.26.04-.38c0-.07,0-.17,0-.3,0-.14-.05-.27-.12-.41-.08-.14-.21-.25-.39-.35-.18-.1-.44-.15-.78-.15-.37,0-.7.08-.99.24-.29.16-.55.35-.78.58-.22.22-.41.49-.57.81-.16.32-.28.66-.35,1.01l-.95,4.6h-1.87l1.76-8.49Z"/>
          <path class="cls-5" d="M320.61,24.18c-1.18,0-2.1-.32-2.74-.96s-.97-1.56-.97-2.75c0-.7.11-1.36.34-1.99.23-.63.55-1.18.98-1.67.42-.48.93-.86,1.53-1.15.6-.28,1.26-.43,1.99-.43,1.18,0,2.1.31,2.74.93s.97,1.52.97,2.72c0,.74-.11,1.44-.33,2.08-.22.65-.54,1.21-.96,1.68-.42.48-.93.85-1.53,1.12s-1.27.41-2.03.41ZM321.63,16.71c-.48,0-.9.12-1.26.36-.36.24-.65.54-.89.91-.24.37-.42.77-.53,1.22-.11.45-.17.89-.17,1.31,0,.62.16,1.14.47,1.56s.81.62,1.49.62c.48,0,.9-.12,1.26-.35.36-.23.65-.54.89-.9.24-.37.42-.78.53-1.23.12-.45.17-.89.17-1.32,0-.62-.16-1.14-.47-1.56-.31-.42-.81-.62-1.49-.62Z"/>
          <path class="cls-5" d="M328.67,12.22h1.87l-2.43,11.72h-1.87l2.43-11.72Z"/>
          <path class="cls-5" d="M334.3,24.18c-1.18,0-2.1-.32-2.74-.96s-.97-1.56-.97-2.75c0-.7.11-1.36.34-1.99.23-.63.55-1.18.98-1.67.42-.48.93-.86,1.53-1.15.6-.28,1.26-.43,1.99-.43,1.18,0,2.1.31,2.74.93s.97,1.52.97,2.72c0,.74-.11,1.44-.33,2.08-.22.65-.54,1.21-.96,1.68-.42.48-.93.85-1.53,1.12s-1.27.41-2.03.41ZM335.32,16.71c-.48,0-.9.12-1.26.36-.36.24-.65.54-.89.91-.24.37-.42.77-.53,1.22-.11.45-.17.89-.17,1.31,0,.62.16,1.14.47,1.56s.81.62,1.49.62c.48,0,.9-.12,1.26-.35.36-.23.65-.54.89-.9.24-.37.42-.78.53-1.23.12-.45.17-.89.17-1.32,0-.62-.16-1.14-.47-1.56-.31-.42-.81-.62-1.49-.62Z"/>
          <path class="cls-5" d="M347.71,23.72c-.14.65-.32,1.2-.53,1.66-.21.46-.49.83-.82,1.12-.33.28-.74.49-1.21.62s-1.05.2-1.71.2c-.48,0-.94-.05-1.37-.15s-.82-.25-1.15-.47-.6-.49-.8-.84-.31-.76-.32-1.26h1.87c.02.48.22.82.58,1.02.37.2.82.3,1.35.3.42,0,.76-.06,1.03-.18.27-.12.5-.28.68-.49.18-.21.32-.46.42-.75s.19-.61.26-.96l.18-.84-.03-.03c-.59.85-1.39,1.28-2.4,1.28-1.06,0-1.88-.31-2.45-.93-.57-.62-.85-1.47-.85-2.55,0-.63.1-1.27.29-1.9.19-.63.47-1.19.84-1.68.37-.49.82-.89,1.37-1.2.55-.31,1.18-.46,1.89-.46.62,0,1.16.13,1.61.38.45.25.79.67,1.02,1.26h.03l.25-1.41h1.77l-1.79,8.26ZM342.31,20.37c0,.29.03.56.1.81.07.26.17.48.31.67.14.19.33.34.55.45.22.11.5.16.81.16.5,0,.93-.11,1.29-.34.36-.23.65-.53.88-.89.23-.36.4-.77.5-1.21.1-.45.16-.89.16-1.31,0-.62-.16-1.11-.48-1.47-.32-.36-.79-.53-1.41-.53-.46,0-.86.12-1.2.35-.34.24-.62.53-.85.89-.22.36-.39.76-.5,1.19-.11.43-.16.84-.16,1.22Z"/>
          <path class="cls-5" d="M351.42,15.46h1.87l-1.76,8.49h-1.87l1.76-8.49ZM352.09,12.22h1.85l-.36,1.77h-1.86l.36-1.77Z"/>
          <path class="cls-5" d="M361.78,21.32c-.29,1-.79,1.72-1.49,2.18-.7.45-1.57.68-2.59.68-.54,0-1.03-.08-1.49-.25-.45-.17-.85-.42-1.17-.74s-.59-.71-.77-1.17c-.19-.45-.28-.97-.28-1.55,0-.66.1-1.3.31-1.92s.51-1.18.91-1.67c.4-.49.89-.89,1.48-1.19.58-.3,1.26-.45,2.01-.45s1.37.13,1.84.38c.47.25.84.57,1.1.95.26.38.44.8.53,1.26s.14.9.14,1.31c0,.21-.01.4-.03.57-.02.18-.04.33-.07.48h-6.32c-.01.05-.02.1-.02.15,0,.04,0,.09,0,.13v.26c0,.59.16,1.07.47,1.43.31.36.83.54,1.55.54.5,0,.94-.11,1.3-.34.36-.23.61-.57.74-1.03h1.87ZM360.42,18.95c.01-.05.02-.1.02-.14v-.39c0-.5-.16-.92-.48-1.24s-.75-.48-1.31-.48c-.7,0-1.26.21-1.67.63-.42.42-.72.96-.9,1.62h4.35Z"/>
          <path class="cls-5" d="M368.75,17.94c-.01-.43-.17-.74-.48-.94-.31-.2-.72-.3-1.22-.3-.19,0-.36.02-.53.05-.17.03-.32.09-.46.17s-.25.19-.33.33c-.08.14-.12.31-.12.52,0,.2.07.36.22.48.15.12.34.23.58.32.24.09.51.18.8.26.3.08.59.18.89.29.25.1.5.21.74.33s.45.27.63.44c.18.17.33.38.44.62s.16.53.16.87c0,.49-.11.91-.33,1.26-.22.35-.5.64-.85.87-.35.23-.75.4-1.21.5-.45.1-.91.16-1.37.16-.49,0-.95-.05-1.38-.14s-.8-.25-1.12-.48c-.32-.22-.57-.53-.75-.9-.19-.38-.29-.86-.3-1.44h1.77c-.02.54.15.92.51,1.14.36.22.82.34,1.36.34.2,0,.4-.02.61-.06.21-.04.4-.1.57-.19.17-.09.32-.21.43-.37.12-.16.17-.36.17-.6,0-.22-.08-.4-.24-.54-.16-.14-.36-.27-.61-.37s-.53-.2-.84-.29c-.31-.09-.62-.19-.91-.3-.25-.09-.49-.19-.71-.31-.22-.12-.42-.27-.6-.44s-.31-.37-.41-.6c-.1-.23-.15-.5-.15-.82,0-.46.1-.85.3-1.18.2-.33.47-.6.8-.8.33-.21.7-.36,1.12-.46s.84-.15,1.28-.15c.46,0,.89.04,1.3.12.4.08.76.23,1.06.44.3.21.54.49.71.84.17.35.25.79.24,1.31h-1.77Z"/>
          <path class="cls-5" d="M378.32,12.91h1.82l-.53,2.54h1.69l-.3,1.4h-1.69l-.87,4.15c-.04.19-.08.36-.12.52-.03.16-.05.3-.05.39,0,.19.04.34.12.45.08.11.27.17.55.17.14,0,.3,0,.47,0s.35-.03.53-.07l-.31,1.38c-.24.06-.5.1-.77.13s-.53.05-.77.05c-.34,0-.62-.04-.84-.13s-.39-.21-.52-.35c-.13-.15-.21-.32-.26-.51-.05-.19-.07-.39-.07-.58,0-.16.01-.34.04-.54.03-.2.05-.33.07-.41l.97-4.65h-1.48l.3-1.4h1.48l.53-2.54Z"/>
          <path class="cls-5" d="M385.08,24.18c-1.18,0-2.1-.32-2.74-.96s-.97-1.56-.97-2.75c0-.7.11-1.36.34-1.99.23-.63.55-1.18.98-1.67.42-.48.93-.86,1.53-1.15.6-.28,1.26-.43,1.99-.43,1.18,0,2.1.31,2.74.93s.97,1.52.97,2.72c0,.74-.11,1.44-.33,2.08-.22.65-.54,1.21-.96,1.68-.42.48-.93.85-1.53,1.12s-1.27.41-2.03.41ZM386.1,16.71c-.48,0-.9.12-1.26.36-.36.24-.65.54-.89.91-.24.37-.42.77-.53,1.22-.11.45-.17.89-.17,1.31,0,.62.16,1.14.47,1.56s.81.62,1.49.62c.48,0,.9-.12,1.26-.35.36-.23.65-.54.89-.9.24-.37.42-.78.53-1.23.12-.45.17-.89.17-1.32,0-.62-.16-1.14-.47-1.56-.31-.42-.81-.62-1.49-.62Z"/>
          <path class="cls-5" d="M397.66,20.07c-.04.91.18,1.55.67,1.92.49.37,1.17.56,2.02.56.27,0,.57-.03.88-.1.31-.07.59-.17.85-.32.25-.15.46-.34.63-.57s.25-.53.25-.88c0-.33-.08-.6-.24-.82-.16-.22-.37-.4-.62-.55-.26-.15-.56-.27-.89-.38s-.69-.21-1.05-.3c-.26-.07-.57-.16-.94-.27-.36-.11-.71-.28-1.05-.51-.34-.22-.63-.52-.86-.88-.24-.36-.35-.82-.35-1.38,0-.53.1-1.01.29-1.46.2-.45.48-.83.85-1.16s.83-.57,1.37-.75c.54-.18,1.16-.27,1.85-.27.61,0,1.19.07,1.72.2s1,.34,1.39.64c.39.3.7.68.92,1.16.22.48.32,1.06.29,1.75h-1.97c-.01-.73-.21-1.26-.61-1.58-.39-.32-.99-.48-1.79-.48-.14,0-.34.02-.59.05s-.5.11-.75.23c-.25.12-.47.29-.66.52-.19.22-.28.53-.28.93,0,.28.07.52.2.71.13.19.31.34.53.48.22.13.48.24.78.33.3.09.61.17.94.25.42.11.83.23,1.26.36s.8.31,1.15.55c.34.24.62.54.84.93.21.38.32.88.32,1.49,0,.46-.09.91-.26,1.36-.18.45-.46.85-.85,1.21-.39.36-.89.65-1.51.88s-1.37.34-2.26.34c-.69,0-1.31-.08-1.87-.24-.56-.16-1.03-.4-1.42-.74-.39-.33-.68-.76-.89-1.29-.2-.52-.29-1.15-.27-1.89h1.97Z"/>
          <path class="cls-5" d="M408.34,12.22h1.87l-.92,4.43h.03c.32-.43.73-.77,1.23-1.03s1.02-.39,1.56-.39c.85,0,1.48.2,1.88.61.4.41.6.95.6,1.64,0,.15,0,.33-.02.53-.01.2-.03.37-.07.52l-1.13,5.42h-1.87l1.08-5.24c.03-.14.06-.28.09-.41s.04-.26.04-.38c0-.07,0-.17,0-.3,0-.14-.05-.27-.12-.41-.08-.14-.21-.25-.39-.35-.18-.1-.44-.15-.78-.15-.37,0-.7.08-.99.24-.29.16-.55.35-.78.58-.22.22-.41.49-.57.81-.16.32-.28.66-.35,1.01l-.95,4.6h-1.87l2.43-11.72Z"/>
          <path class="cls-5" d="M422.89,21.48c-.03.15-.07.3-.11.44-.04.14-.06.27-.06.39s.03.21.08.28c.05.07.16.1.31.1.11,0,.22-.01.33-.04s.22-.05.33-.06l-.3,1.35c-.24.05-.48.11-.72.16-.24.05-.49.07-.74.07-.32,0-.58-.1-.79-.3-.21-.2-.32-.46-.34-.79-.37.37-.81.65-1.31.82-.5.17-1.02.26-1.54.26-.35,0-.68-.05-1-.15-.32-.1-.6-.24-.85-.43s-.44-.42-.58-.71c-.14-.28-.21-.61-.21-.99,0-.52.1-.97.29-1.32.2-.36.46-.65.79-.88.33-.23.71-.4,1.13-.51s.88-.18,1.35-.21c.63-.04,1.26-.09,1.87-.15.34-.02.59-.13.75-.34.16-.2.24-.46.24-.78,0-.4-.14-.68-.43-.81-.29-.14-.62-.21-1-.21-.53,0-.98.09-1.35.27-.38.18-.63.53-.76,1.06h-1.77c.1-.53.27-.97.51-1.32.24-.36.54-.65.89-.87.35-.22.75-.38,1.19-.48.44-.09.92-.14,1.42-.14.77,0,1.37.07,1.8.22.43.15.75.33.95.53.2.21.33.42.37.65.04.22.07.41.07.57,0,.37-.05.8-.16,1.28l-.62,3ZM417.26,21.61c0,.21.05.38.14.52.09.14.21.25.35.33s.3.14.48.18c.17.04.35.06.52.06.46,0,.85-.08,1.16-.23.31-.15.57-.36.77-.62.2-.26.36-.57.48-.93s.21-.74.27-1.14l-.03-.03c-.13.13-.31.22-.53.28-.22.05-.43.09-.64.11-.26.02-.57.04-.91.07-.34.02-.67.08-.97.17-.3.09-.56.24-.77.43-.21.19-.32.46-.32.81Z"/>
          <path class="cls-5" d="M426.25,15.46h1.86l-.25,1.08.03.03c.3-.43.68-.76,1.17-.99.48-.24.98-.35,1.51-.35s.99.09,1.4.26c.4.18.74.42,1.01.73.27.31.47.68.61,1.12.14.43.21.9.21,1.4,0,.65-.09,1.29-.26,1.95-.18.65-.44,1.23-.8,1.75-.36.51-.82.93-1.36,1.26-.55.32-1.19.48-1.92.48-.62,0-1.18-.11-1.66-.32-.48-.21-.85-.62-1.12-1.22h-.03l-.92,4.45h-1.87l2.41-11.62ZM427.14,20.51c0,.31.04.59.11.85s.18.49.33.69c.15.2.34.35.58.47.24.11.53.17.85.17.5,0,.94-.11,1.31-.34.37-.22.67-.52.9-.88.24-.36.41-.77.53-1.21s.17-.9.17-1.35c0-.31-.04-.59-.11-.86-.07-.27-.18-.5-.34-.71-.15-.2-.35-.36-.58-.48s-.52-.17-.85-.17c-.5,0-.94.11-1.3.34-.37.23-.67.53-.9.89s-.41.78-.52,1.23c-.12.45-.17.9-.17,1.34Z"/>
          <path class="cls-5" d="M442.65,21.32c-.29,1-.79,1.72-1.49,2.18-.7.45-1.57.68-2.59.68-.54,0-1.03-.08-1.49-.25-.45-.17-.85-.42-1.17-.74s-.59-.71-.77-1.17c-.19-.45-.28-.97-.28-1.55,0-.66.1-1.3.31-1.92s.51-1.18.91-1.67c.4-.49.89-.89,1.48-1.19.58-.3,1.26-.45,2.01-.45s1.37.13,1.84.38c.47.25.84.57,1.1.95.26.38.44.8.53,1.26s.14.9.14,1.31c0,.21-.01.4-.03.57-.02.18-.04.33-.07.48h-6.32c-.01.05-.02.1-.02.15,0,.04,0,.09,0,.13v.26c0,.59.16,1.07.47,1.43.31.36.83.54,1.55.54.5,0,.94-.11,1.3-.34.36-.23.61-.57.74-1.03h1.87ZM441.29,18.95c.01-.05.02-.1.02-.14v-.39c0-.5-.16-.92-.48-1.24s-.75-.48-1.31-.48c-.7,0-1.26.21-1.67.63-.42.42-.72.96-.9,1.62h4.35Z"/>
        </g>
      </g>
      <g>
        <path class="cls-4" d="M100.5,1.13h2.14l5.29,8.52h.03V1.13h1.93v11.56h-2.14l-5.27-8.5h-.05v8.5h-1.93V1.13Z"/>
        <path class="cls-4" d="M119.05,10.83c0,.23.03.39.09.49.06.1.18.15.35.15h.19c.08,0,.16-.01.26-.03v1.28c-.06.02-.15.05-.25.07s-.21.05-.32.07c-.11.02-.22.04-.32.05s-.2.02-.28.02c-.38,0-.69-.08-.94-.23s-.41-.42-.49-.79c-.37.36-.82.62-1.35.78-.54.16-1.05.24-1.55.24-.38,0-.74-.05-1.09-.15s-.65-.25-.92-.45c-.27-.2-.48-.45-.63-.76s-.23-.67-.23-1.08c0-.52.09-.94.28-1.26.19-.32.44-.58.75-.76s.65-.32,1.04-.4c.38-.08.77-.14,1.16-.19.33-.06.65-.11.96-.14.3-.03.57-.07.8-.14.23-.06.42-.16.55-.3.14-.13.2-.34.2-.61,0-.24-.06-.43-.17-.58-.11-.15-.25-.27-.42-.35s-.35-.13-.56-.16c-.21-.03-.4-.04-.58-.04-.52,0-.95.11-1.28.32-.34.22-.52.55-.57,1h-1.85c.03-.54.16-.99.39-1.34.23-.36.52-.64.87-.86.35-.22.75-.37,1.19-.45s.9-.13,1.36-.13c.41,0,.82.04,1.22.13s.76.23,1.08.42c.32.19.58.44.77.75.19.31.29.68.29,1.13v4.31ZM117.2,8.5c-.28.18-.63.29-1.04.33-.41.04-.82.09-1.23.17-.19.03-.38.08-.57.14-.18.06-.35.14-.49.24s-.25.24-.33.4c-.08.17-.12.37-.12.61,0,.21.06.38.18.52.12.14.26.25.43.33.17.08.35.14.55.17.2.03.38.05.54.05.21,0,.43-.03.66-.08.24-.05.46-.15.67-.28s.39-.29.53-.49.21-.45.21-.74v-1.38Z"/>
        <path class="cls-4" d="M120.2,4.32h1.39V1.81h1.85v2.51h1.67v1.38h-1.67v4.47c0,.19,0,.36.02.5s.05.26.11.36c.06.1.15.17.27.22.12.05.28.07.49.07.13,0,.26,0,.39,0,.13,0,.26-.02.39-.06v1.42c-.21.02-.41.04-.6.06-.19.02-.4.03-.6.03-.49,0-.88-.05-1.18-.14-.3-.09-.53-.23-.7-.4s-.28-.4-.34-.67c-.06-.27-.09-.58-.11-.92v-4.94h-1.39v-1.38Z"/>
        <path class="cls-4" d="M126.5,1.13h1.85v1.75h-1.85v-1.75ZM126.5,4.32h1.85v8.37h-1.85V4.32Z"/>
        <path class="cls-4" d="M134.2,12.92c-.67,0-1.27-.11-1.79-.33-.52-.22-.97-.53-1.33-.92-.36-.39-.64-.85-.83-1.39-.19-.54-.28-1.13-.28-1.78s.09-1.22.28-1.76c.19-.54.46-1,.83-1.39.36-.39.81-.69,1.33-.91s1.12-.33,1.79-.33,1.27.11,1.79.33c.52.22.97.53,1.33.91.36.39.64.85.83,1.39.19.54.28,1.13.28,1.76s-.09,1.24-.28,1.78c-.19.54-.46,1-.83,1.39-.36.39-.81.69-1.33.92-.52.22-1.12.33-1.79.33ZM134.2,11.46c.41,0,.77-.09,1.07-.26.3-.17.55-.4.75-.68.19-.28.34-.6.43-.95.09-.35.14-.71.14-1.08s-.05-.71-.14-1.07c-.09-.36-.24-.67-.43-.95-.19-.28-.44-.5-.75-.67-.3-.17-.66-.26-1.07-.26s-.77.09-1.07.26-.55.4-.75.67c-.19.27-.34.59-.43.95-.09.36-.14.71-.14,1.07s.05.73.14,1.08.24.67.43.95c.19.28.44.51.75.68.3.17.66.26,1.07.26Z"/>
        <path class="cls-4" d="M139.97,4.32h1.75v1.23l.03.03c.28-.46.65-.83,1.1-1.09s.96-.4,1.51-.4c.92,0,1.64.24,2.17.71.53.48.79,1.19.79,2.14v5.75h-1.85v-5.26c-.02-.66-.16-1.14-.42-1.43-.26-.3-.67-.45-1.22-.45-.31,0-.59.06-.84.17-.25.11-.46.27-.63.47s-.31.43-.41.7c-.1.27-.15.56-.15.86v4.94h-1.85V4.32Z"/>
        <path class="cls-4" d="M156.3,10.83c0,.23.03.39.09.49.06.1.18.15.35.15h.19c.08,0,.16-.01.26-.03v1.28c-.06.02-.15.05-.25.07s-.21.05-.32.07c-.11.02-.22.04-.32.05s-.2.02-.28.02c-.38,0-.69-.08-.94-.23s-.41-.42-.49-.79c-.37.36-.82.62-1.35.78-.54.16-1.05.24-1.55.24-.38,0-.74-.05-1.09-.15s-.65-.25-.92-.45c-.27-.2-.48-.45-.63-.76s-.23-.67-.23-1.08c0-.52.09-.94.28-1.26.19-.32.44-.58.75-.76s.65-.32,1.04-.4c.38-.08.77-.14,1.16-.19.33-.06.65-.11.96-.14.3-.03.57-.07.8-.14.23-.06.42-.16.55-.3.14-.13.2-.34.2-.61,0-.24-.06-.43-.17-.58-.11-.15-.25-.27-.42-.35s-.35-.13-.56-.16c-.21-.03-.4-.04-.58-.04-.52,0-.95.11-1.28.32-.34.22-.52.55-.57,1h-1.85c.03-.54.16-.99.39-1.34.23-.36.52-.64.87-.86.35-.22.75-.37,1.19-.45s.9-.13,1.36-.13c.41,0,.82.04,1.22.13s.76.23,1.08.42c.32.19.58.44.77.75.19.31.29.68.29,1.13v4.31ZM154.45,8.5c-.28.18-.63.29-1.04.33-.41.04-.82.09-1.23.17-.19.03-.38.08-.57.14-.18.06-.35.14-.49.24s-.25.24-.33.4c-.08.17-.12.37-.12.61,0,.21.06.38.18.52.12.14.26.25.43.33.17.08.35.14.55.17.2.03.38.05.54.05.21,0,.43-.03.66-.08.24-.05.46-.15.67-.28s.39-.29.53-.49.21-.45.21-.74v-1.38Z"/>
        <path class="cls-4" d="M158.35,1.13h1.85v11.56h-1.85V1.13Z"/>
        <path class="cls-4" d="M166.97,1.13h2.03v11.56h-2.03V1.13Z"/>
        <path class="cls-4" d="M171.22,4.32h1.75v1.23l.03.03c.28-.46.65-.83,1.1-1.09.45-.26.96-.4,1.51-.4.92,0,1.64.24,2.17.71.53.48.79,1.19.79,2.14v5.75h-1.85v-5.26c-.02-.66-.16-1.14-.42-1.43s-.66-.45-1.22-.45c-.31,0-.59.06-.84.17-.25.11-.46.27-.63.47-.17.2-.31.43-.41.7-.1.27-.14.56-.14.86v4.94h-1.85V4.32Z"/>
        <path class="cls-4" d="M181.93,10.01c.05.54.26.92.62,1.13.36.22.78.32,1.28.32.17,0,.37-.01.59-.04.22-.03.43-.08.62-.15.19-.08.35-.19.48-.33.12-.15.18-.34.17-.57s-.1-.43-.26-.58c-.16-.15-.37-.27-.62-.36-.25-.09-.54-.17-.87-.23-.32-.06-.65-.13-.99-.21-.35-.08-.68-.17-1-.28-.32-.11-.61-.25-.86-.44s-.46-.42-.61-.7c-.15-.29-.23-.64-.23-1.06,0-.45.11-.83.33-1.14.22-.31.5-.56.84-.74s.72-.32,1.14-.4c.42-.08.81-.11,1.19-.11.43,0,.85.05,1.24.14.39.09.75.24,1.07.45.32.21.58.47.79.8.21.33.34.73.4,1.19h-1.93c-.09-.44-.29-.74-.61-.89-.32-.15-.68-.23-1.09-.23-.13,0-.28.01-.46.03s-.35.06-.5.12c-.16.06-.29.15-.4.26-.11.11-.16.26-.16.44,0,.23.08.41.24.55.16.14.36.26.62.35.25.09.54.17.87.23.32.06.66.14,1,.21.33.08.67.17.99.28s.61.25.87.44c.25.18.46.42.62.7.16.28.24.63.24,1.04,0,.5-.11.92-.34,1.26-.23.35-.52.63-.88.84-.36.22-.77.37-1.21.47-.44.1-.88.15-1.31.15-.53,0-1.02-.06-1.47-.18-.45-.12-.84-.3-1.17-.54-.33-.24-.59-.54-.78-.91-.19-.36-.29-.79-.3-1.29h1.85Z"/>
        <path class="cls-4" d="M188.11,4.32h1.39V1.81h1.85v2.51h1.67v1.38h-1.67v4.47c0,.19,0,.36.02.5.02.14.05.26.11.36s.15.17.27.22c.12.05.28.07.49.07.13,0,.26,0,.39,0,.13,0,.26-.02.39-.06v1.42c-.21.02-.41.04-.6.06-.19.02-.39.03-.6.03-.49,0-.88-.05-1.18-.14-.3-.09-.53-.23-.7-.4-.17-.18-.28-.4-.34-.67-.06-.27-.09-.58-.11-.92v-4.94h-1.39v-1.38Z"/>
        <path class="cls-4" d="M194.4,1.13h1.85v1.75h-1.85v-1.75ZM194.4,4.32h1.85v8.37h-1.85V4.32Z"/>
        <path class="cls-4" d="M197.41,4.32h1.39V1.81h1.85v2.51h1.67v1.38h-1.67v4.47c0,.19,0,.36.02.5.02.14.05.26.11.36s.15.17.27.22c.12.05.28.07.49.07.13,0,.26,0,.39,0,.13,0,.26-.02.39-.06v1.42c-.21.02-.41.04-.6.06-.19.02-.39.03-.6.03-.49,0-.88-.05-1.18-.14-.3-.09-.53-.23-.7-.4-.17-.18-.28-.4-.34-.67-.06-.27-.09-.58-.11-.92v-4.94h-1.39v-1.38Z"/>
        <path class="cls-4" d="M211.02,12.69h-1.82v-1.17h-.03c-.23.42-.57.76-1.01,1.01-.45.25-.91.38-1.37.38-1.1,0-1.9-.27-2.39-.82s-.74-1.37-.74-2.47v-5.31h1.85v5.13c0,.73.14,1.25.42,1.55.28.3.68.45,1.18.45.39,0,.71-.06.97-.18s.47-.28.63-.48.28-.44.35-.72c.07-.28.11-.58.11-.91v-4.86h1.85v8.37Z"/>
        <path class="cls-4" d="M212.12,4.32h1.39V1.81h1.85v2.51h1.67v1.38h-1.67v4.47c0,.19,0,.36.02.5.02.14.05.26.11.36s.15.17.27.22c.12.05.28.07.49.07.13,0,.26,0,.39,0,.13,0,.26-.02.39-.06v1.42c-.21.02-.41.04-.6.06-.19.02-.39.03-.6.03-.49,0-.88-.05-1.18-.14-.3-.09-.53-.23-.7-.4-.17-.18-.28-.4-.34-.67-.06-.27-.09-.58-.11-.92v-4.94h-1.39v-1.38Z"/>
        <path class="cls-4" d="M219.81,8.99c0,.32.05.64.14.94.09.3.23.57.41.79s.42.41.7.54c.28.14.62.2,1.01.2.54,0,.98-.12,1.31-.35.33-.23.58-.58.74-1.04h1.75c-.1.45-.27.86-.5,1.21-.24.36-.52.66-.86.9-.34.24-.71.43-1.13.55-.42.12-.85.19-1.31.19-.66,0-1.24-.11-1.75-.32s-.94-.52-1.29-.91c-.35-.39-.62-.85-.79-1.39-.18-.54-.27-1.13-.27-1.78,0-.59.09-1.16.28-1.69.19-.53.46-1,.81-1.41.35-.4.78-.73,1.27-.96.5-.24,1.06-.36,1.69-.36.66,0,1.25.14,1.78.41s.96.64,1.31,1.09c.35.45.6.97.75,1.56.16.59.2,1.2.12,1.82h-6.16ZM224.12,7.77c-.02-.29-.08-.57-.19-.84-.1-.27-.24-.5-.42-.7s-.39-.36-.65-.49-.54-.19-.85-.19-.62.06-.88.17c-.27.11-.49.27-.68.47-.19.2-.34.43-.45.7-.11.27-.18.56-.19.87h4.31Z"/>
        <path class="cls-4" d="M235.74,12.92c-.67,0-1.27-.11-1.79-.33-.52-.22-.97-.53-1.33-.92-.36-.39-.64-.85-.83-1.39-.19-.54-.28-1.13-.28-1.78s.09-1.22.28-1.76c.19-.54.46-1,.83-1.39.36-.39.81-.69,1.33-.91s1.12-.33,1.79-.33,1.27.11,1.79.33.97.53,1.33.91c.36.39.64.85.83,1.39s.28,1.13.28,1.76-.09,1.24-.28,1.78c-.19.54-.46,1-.83,1.39-.36.39-.81.69-1.33.92-.52.22-1.12.33-1.79.33ZM235.74,11.46c.41,0,.77-.09,1.07-.26.3-.17.55-.4.75-.68.19-.28.34-.6.43-.95s.14-.71.14-1.08-.05-.71-.14-1.07c-.09-.36-.24-.67-.43-.95-.19-.28-.44-.5-.75-.67s-.66-.26-1.07-.26-.77.09-1.07.26-.55.4-.75.67c-.19.27-.34.59-.43.95-.09.36-.14.71-.14,1.07s.05.73.14,1.08.24.67.43.95c.2.28.44.51.75.68.3.17.66.26,1.07.26Z"/>
        <path class="cls-4" d="M240.68,4.32h1.38v-.7c0-.53.06-.96.19-1.29.13-.33.3-.58.52-.76.22-.18.46-.3.74-.36.28-.06.57-.09.87-.09.59,0,1.03.04,1.3.11v1.44c-.12-.03-.25-.06-.38-.07s-.29-.02-.48-.02c-.25,0-.46.06-.64.18-.18.12-.27.35-.27.7v.86h1.57v1.38h-1.57v6.99h-1.85v-6.99h-1.38v-1.38Z"/>
      </g>
      <g>
        <path class="cls-4" d="M100.5,20.56h5.63c1.04,0,1.87.24,2.5.71.63.48.94,1.19.94,2.15,0,.58-.14,1.08-.43,1.5-.29.42-.69.74-1.22.96v.03c.71.15,1.25.49,1.62,1.01.37.52.55,1.18.55,1.97,0,.45-.08.88-.24,1.27-.16.39-.42.73-.76,1.02s-.79.51-1.33.68c-.54.17-1.18.25-1.93.25h-5.32v-11.56ZM102.53,25.4h3.31c.49,0,.89-.14,1.22-.41.32-.28.49-.67.49-1.19,0-.58-.15-.99-.44-1.23-.29-.24-.71-.36-1.26-.36h-3.31v3.19ZM102.53,30.47h3.58c.62,0,1.09-.16,1.44-.48.34-.32.51-.77.51-1.35s-.17-1.01-.51-1.32c-.34-.31-.82-.46-1.44-.46h-3.58v3.61Z"/>
        <path class="cls-4" d="M111.71,20.56h1.85v1.75h-1.85v-1.75ZM111.71,23.75h1.85v8.37h-1.85v-8.37Z"/>
        <path class="cls-4" d="M119.41,32.35c-.67,0-1.27-.11-1.79-.33-.52-.22-.97-.53-1.33-.91-.36-.39-.64-.85-.83-1.39-.19-.54-.28-1.13-.28-1.78s.09-1.22.28-1.76c.19-.54.46-1,.83-1.39.36-.39.81-.69,1.33-.91s1.12-.33,1.79-.33,1.27.11,1.79.33c.52.22.97.53,1.33.91.36.39.64.85.83,1.39.19.54.28,1.13.28,1.76s-.09,1.24-.28,1.78c-.19.54-.46,1-.83,1.39s-.81.69-1.33.91c-.52.22-1.12.33-1.79.33ZM119.41,30.89c.41,0,.77-.09,1.07-.26.3-.17.55-.4.75-.68.19-.28.34-.6.43-.95.09-.35.14-.71.14-1.08s-.05-.71-.14-1.07c-.09-.36-.24-.67-.43-.95-.19-.28-.44-.5-.75-.67-.3-.17-.66-.26-1.07-.26s-.77.09-1.07.26-.55.4-.75.67c-.19.27-.34.59-.43.95-.09.36-.14.71-.14,1.07s.05.73.14,1.08.24.67.43.95c.19.28.44.51.75.68s.66.26,1.07.26Z"/>
        <path class="cls-4" d="M125.18,23.75h1.75v1.17h.05c.14-.21.29-.39.45-.57.16-.17.34-.32.54-.44.2-.12.43-.21.69-.28.26-.07.56-.1.89-.1.51,0,.98.11,1.42.34.44.23.75.58.93,1.05.31-.43.68-.77,1.09-1.02.41-.25.92-.37,1.54-.37.89,0,1.58.22,2.07.65.49.43.74,1.15.74,2.17v5.78h-1.85v-4.89c0-.33-.01-.64-.03-.92-.02-.27-.08-.51-.19-.71s-.26-.35-.46-.46c-.21-.11-.49-.16-.84-.16-.63,0-1.08.19-1.36.58-.28.39-.42.94-.42,1.65v4.9h-1.85v-5.37c0-.58-.11-1.02-.32-1.32s-.6-.45-1.16-.45c-.24,0-.47.05-.69.15-.22.1-.42.24-.58.42-.17.18-.3.41-.41.68-.1.27-.15.58-.15.92v4.97h-1.85v-8.37Z"/>
        <path class="cls-4" d="M140.73,28.41c0,.32.05.64.14.94.09.3.23.57.41.79.18.23.42.41.7.54s.62.2,1.01.2c.54,0,.98-.12,1.31-.35s.58-.58.74-1.04h1.75c-.1.45-.26.86-.5,1.21s-.52.66-.86.9c-.34.24-.71.43-1.13.55-.42.12-.85.19-1.31.19-.66,0-1.24-.11-1.75-.32-.51-.22-.94-.52-1.29-.91-.35-.39-.62-.85-.79-1.39-.18-.54-.27-1.13-.27-1.78,0-.59.09-1.16.28-1.69.19-.53.46-1,.81-1.41.35-.4.78-.73,1.27-.96.5-.24,1.06-.36,1.69-.36.66,0,1.25.14,1.78.41.52.28.96.64,1.31,1.09.35.45.6.97.75,1.56.16.59.2,1.2.12,1.82h-6.16ZM145.05,27.2c-.02-.29-.08-.57-.19-.84-.1-.27-.24-.5-.42-.7s-.39-.36-.65-.49c-.25-.12-.54-.19-.85-.19s-.62.06-.88.17c-.27.11-.49.27-.68.47-.19.2-.34.43-.45.7-.11.27-.18.56-.19.87h4.31Z"/>
        <path class="cls-4" d="M156.21,32.12h-1.75v-1.13h-.03c-.25.49-.61.83-1.09,1.04-.48.21-.98.32-1.51.32-.66,0-1.24-.12-1.73-.35-.49-.23-.9-.55-1.22-.95-.32-.4-.57-.87-.73-1.42-.16-.54-.24-1.13-.24-1.76,0-.76.1-1.41.31-1.96.21-.55.48-1,.82-1.36.34-.36.73-.62,1.17-.79.44-.17.88-.25,1.34-.25.26,0,.52.02.79.07.27.05.53.13.78.23.25.11.48.25.69.41.21.17.39.36.53.59h.03v-4.27h1.85v11.56ZM149.75,28.02c0,.36.05.71.14,1.05.09.34.23.65.42.92.19.27.43.49.72.65.29.16.64.24,1.04.24s.77-.09,1.06-.26.54-.4.73-.68c.19-.28.33-.6.42-.95s.14-.71.14-1.08c0-.93-.21-1.65-.62-2.17-.42-.52-.98-.78-1.69-.78-.43,0-.8.09-1.09.27-.3.18-.54.41-.73.7-.19.29-.32.61-.41.97-.08.36-.12.73-.12,1.11Z"/>
        <path class="cls-4" d="M158.27,20.56h1.85v1.75h-1.85v-1.75ZM158.27,23.75h1.85v8.37h-1.85v-8.37Z"/>
        <path class="cls-4" d="M167.79,26.55c-.08-.52-.28-.91-.62-1.17-.34-.26-.77-.4-1.29-.4-.24,0-.49.04-.76.12-.27.08-.52.23-.75.45-.23.22-.42.53-.57.92-.15.39-.23.91-.23,1.55,0,.35.04.69.12,1.04.08.35.21.65.39.92s.41.49.69.66c.28.17.62.25,1.02.25.54,0,.99-.17,1.34-.5.35-.33.57-.8.66-1.41h1.85c-.17,1.09-.59,1.92-1.24,2.5-.65.58-1.52.87-2.6.87-.66,0-1.24-.11-1.74-.33-.5-.22-.93-.52-1.27-.91s-.61-.84-.79-1.37c-.18-.53-.27-1.1-.27-1.72s.09-1.21.26-1.76c.17-.55.43-1.03.78-1.43.35-.4.78-.72,1.29-.96.51-.23,1.12-.35,1.81-.35.49,0,.95.06,1.39.19.44.12.83.31,1.17.56.34.25.62.56.84.94.22.38.35.83.39,1.34h-1.85Z"/>
        <path class="cls-4" d="M178.16,30.26c0,.23.03.39.09.49.06.1.18.15.35.15h.19c.08,0,.16-.01.26-.03v1.28c-.07.02-.15.04-.25.07s-.21.05-.32.07c-.11.02-.22.04-.32.05s-.2.02-.28.02c-.38,0-.69-.08-.94-.23-.25-.15-.41-.42-.49-.79-.37.36-.82.62-1.35.78-.54.16-1.05.24-1.55.24-.38,0-.74-.05-1.09-.15-.35-.1-.65-.25-.92-.45-.27-.2-.48-.45-.63-.76s-.23-.67-.23-1.08c0-.52.09-.94.28-1.26.19-.32.44-.58.75-.76s.65-.32,1.04-.4c.38-.08.77-.14,1.16-.19.33-.06.65-.11.96-.14.3-.03.57-.07.8-.14.23-.06.42-.16.55-.3.13-.13.2-.34.2-.61,0-.24-.06-.43-.17-.58-.11-.15-.25-.27-.42-.35s-.35-.13-.56-.16c-.21-.03-.4-.04-.58-.04-.52,0-.95.11-1.28.32-.33.22-.52.55-.57,1h-1.85c.03-.54.16-.99.39-1.34.23-.36.52-.64.87-.86s.75-.37,1.19-.45c.44-.09.9-.13,1.36-.13.41,0,.82.04,1.22.13s.76.23,1.08.42c.32.19.58.44.77.75.2.31.29.68.29,1.13v4.31ZM176.32,27.93c-.28.18-.63.29-1.04.33-.41.04-.82.09-1.23.17-.19.03-.38.08-.57.14-.18.06-.35.14-.49.24-.14.1-.25.24-.33.4-.08.17-.12.37-.12.61,0,.21.06.38.18.52.12.14.26.25.43.33.17.08.35.14.55.17.2.03.38.05.54.05.21,0,.43-.03.67-.08.24-.05.46-.15.67-.28.21-.13.39-.29.53-.49.14-.2.21-.45.21-.74v-1.38Z"/>
        <path class="cls-4" d="M180.21,20.56h1.85v11.56h-1.85v-11.56Z"/>
        <path class="cls-4" d="M188.84,20.56h2.03v11.56h-2.03v-11.56Z"/>
        <path class="cls-4" d="M193.08,23.75h1.75v1.17h.05c.14-.21.29-.39.45-.57.16-.17.34-.32.54-.44.2-.12.43-.21.69-.28.26-.07.56-.1.89-.1.51,0,.98.11,1.42.34.44.23.75.58.93,1.05.31-.43.68-.77,1.09-1.02.41-.25.92-.37,1.54-.37.89,0,1.58.22,2.07.65s.74,1.15.74,2.17v5.78h-1.85v-4.89c0-.33-.01-.64-.03-.92-.02-.27-.08-.51-.19-.71s-.26-.35-.46-.46c-.21-.11-.49-.16-.84-.16-.63,0-1.08.19-1.36.58s-.42.94-.42,1.65v4.9h-1.85v-5.37c0-.58-.11-1.02-.32-1.32-.21-.3-.6-.45-1.16-.45-.24,0-.47.05-.69.15s-.42.24-.58.42c-.17.18-.3.41-.41.68-.1.27-.15.58-.15.92v4.97h-1.85v-8.37Z"/>
        <path class="cls-4" d="M214.22,30.26c0,.23.03.39.09.49.06.1.18.15.35.15h.19c.08,0,.16-.01.26-.03v1.28c-.07.02-.15.04-.25.07s-.21.05-.32.07c-.11.02-.22.04-.32.05s-.2.02-.28.02c-.38,0-.69-.08-.94-.23-.25-.15-.41-.42-.49-.79-.37.36-.82.62-1.35.78-.54.16-1.05.24-1.55.24-.38,0-.74-.05-1.09-.15-.35-.1-.65-.25-.92-.45-.27-.2-.48-.45-.63-.76-.16-.31-.24-.67-.24-1.08,0-.52.09-.94.28-1.26.19-.32.44-.58.75-.76.31-.18.65-.32,1.04-.4.38-.08.77-.14,1.16-.19.33-.06.65-.11.96-.14.3-.03.57-.07.8-.14.23-.06.42-.16.55-.3.13-.13.2-.34.2-.61,0-.24-.06-.43-.17-.58-.11-.15-.25-.27-.42-.35s-.35-.13-.56-.16c-.21-.03-.4-.04-.58-.04-.52,0-.95.11-1.28.32-.33.22-.52.55-.57,1h-1.85c.03-.54.16-.99.39-1.34.23-.36.52-.64.87-.86s.75-.37,1.19-.45c.44-.09.9-.13,1.36-.13.41,0,.82.04,1.22.13s.76.23,1.08.42c.32.19.58.44.77.75.2.31.29.68.29,1.13v4.31ZM212.37,27.93c-.28.18-.63.29-1.04.33-.41.04-.82.09-1.23.17-.19.03-.38.08-.57.14-.18.06-.35.14-.49.24-.14.1-.25.24-.33.4-.08.17-.12.37-.12.61,0,.21.06.38.18.52.12.14.26.25.43.33.17.08.35.14.55.17.2.03.38.05.54.05.21,0,.43-.03.67-.08.24-.05.46-.15.67-.28.21-.13.39-.29.53-.49.14-.2.21-.45.21-.74v-1.38Z"/>
        <path class="cls-4" d="M223.96,31.68c0,1.26-.35,2.2-1.06,2.83-.71.62-1.73.93-3.06.93-.42,0-.85-.04-1.27-.13-.43-.09-.82-.23-1.17-.44s-.65-.47-.88-.81c-.24-.33-.38-.74-.42-1.23h1.85c.05.26.15.47.28.63s.28.29.46.38.38.15.59.18c.22.03.44.04.68.04.75,0,1.29-.18,1.64-.55.35-.37.52-.9.52-1.59v-1.28h-.03c-.26.46-.61.83-1.06,1.08-.45.26-.93.39-1.45.39-.67,0-1.24-.12-1.71-.35-.47-.23-.86-.55-1.17-.96-.31-.41-.53-.87-.67-1.4-.14-.53-.21-1.1-.21-1.7,0-.56.09-1.1.26-1.6s.42-.95.75-1.34c.32-.38.72-.69,1.19-.91.47-.23,1-.34,1.6-.34.53,0,1.02.11,1.46.33s.78.57,1.02,1.04h.03v-1.15h1.85v7.93ZM219.86,30.66c.41,0,.76-.08,1.05-.25.29-.17.52-.39.7-.66.18-.28.31-.59.39-.94s.12-.7.12-1.06-.04-.7-.13-1.04c-.09-.33-.22-.63-.4-.89-.18-.26-.41-.46-.7-.62-.29-.15-.63-.23-1.03-.23s-.76.09-1.04.26-.51.4-.68.67c-.17.27-.3.59-.37.94-.08.35-.11.7-.11,1.04s.04.68.13,1.01c.09.33.22.62.4.88s.41.47.68.63c.28.16.61.24,1,.24Z"/>
        <path class="cls-4" d="M225.88,20.56h1.85v1.75h-1.85v-1.75ZM225.88,23.75h1.85v8.37h-1.85v-8.37Z"/>
        <path class="cls-4" d="M229.74,23.75h1.75v1.23l.03.03c.28-.46.65-.83,1.1-1.09s.96-.4,1.51-.4c.92,0,1.64.24,2.17.71.53.48.79,1.19.79,2.14v5.75h-1.85v-5.26c-.02-.66-.16-1.14-.42-1.43s-.67-.45-1.22-.45c-.31,0-.59.06-.84.17-.25.11-.46.27-.63.47s-.31.43-.41.7c-.1.27-.15.56-.15.86v4.94h-1.85v-8.37Z"/>
        <path class="cls-4" d="M246.8,31.68c0,1.26-.35,2.2-1.06,2.83-.71.62-1.73.93-3.06.93-.42,0-.85-.04-1.27-.13-.43-.09-.82-.23-1.17-.44s-.65-.47-.88-.81c-.24-.33-.38-.74-.42-1.23h1.85c.05.26.15.47.28.63s.28.29.46.38.38.15.59.18c.22.03.44.04.68.04.75,0,1.29-.18,1.64-.55.35-.37.52-.9.52-1.59v-1.28h-.03c-.26.46-.61.83-1.06,1.08-.45.26-.93.39-1.45.39-.67,0-1.24-.12-1.71-.35-.47-.23-.86-.55-1.17-.96-.31-.41-.53-.87-.67-1.4-.14-.53-.21-1.1-.21-1.7,0-.56.09-1.1.26-1.6s.42-.95.75-1.34c.32-.38.72-.69,1.19-.91.47-.23,1-.34,1.6-.34.53,0,1.02.11,1.46.33s.78.57,1.02,1.04h.03v-1.15h1.85v7.93ZM242.69,30.66c.41,0,.76-.08,1.05-.25.29-.17.52-.39.7-.66.18-.28.31-.59.39-.94s.12-.7.12-1.06-.04-.7-.13-1.04c-.09-.33-.22-.63-.4-.89-.18-.26-.41-.46-.7-.62-.29-.15-.63-.23-1.03-.23s-.76.09-1.04.26-.51.4-.68.67c-.17.27-.3.59-.37.94-.08.35-.11.7-.11,1.04s.04.68.13,1.01c.09.33.22.62.4.88s.41.47.68.63c.28.16.61.24,1,.24Z"/>
      </g>
      <g>
        <path class="cls-4" d="M107.98,49.68c0,.23.03.39.09.49.06.1.18.15.35.15h.19c.08,0,.16-.01.26-.03v1.28c-.06.02-.15.04-.25.07s-.21.05-.32.07c-.11.02-.22.04-.32.05s-.2.02-.28.02c-.38,0-.69-.08-.94-.23s-.41-.42-.49-.79c-.37.36-.82.62-1.35.78-.54.16-1.05.24-1.55.24-.38,0-.74-.05-1.09-.15-.35-.1-.65-.25-.92-.45-.27-.2-.48-.45-.63-.76s-.23-.67-.23-1.08c0-.52.09-.94.28-1.26.19-.32.44-.58.75-.76s.65-.32,1.04-.4c.38-.08.77-.14,1.16-.19.33-.06.65-.11.96-.14.3-.03.57-.07.8-.14.23-.06.42-.16.55-.3s.2-.34.2-.61c0-.24-.06-.43-.17-.58-.11-.15-.25-.27-.42-.35s-.35-.13-.56-.16c-.21-.03-.4-.04-.58-.04-.52,0-.95.11-1.28.32-.34.22-.52.55-.57,1h-1.85c.03-.54.16-.99.39-1.34s.52-.64.87-.86c.35-.22.75-.37,1.19-.45.44-.09.9-.13,1.36-.13.41,0,.82.04,1.22.13.4.09.76.23,1.08.42.32.19.58.45.77.75.19.31.29.68.29,1.12v4.31ZM106.13,47.35c-.28.18-.63.29-1.04.33-.41.04-.82.09-1.23.17-.19.03-.38.08-.57.14-.18.06-.35.14-.49.24s-.25.24-.33.4c-.08.17-.12.37-.12.61,0,.21.06.38.18.52.12.14.26.25.43.33.17.08.35.14.55.17.2.03.38.05.54.05.21,0,.43-.03.66-.08.24-.05.46-.15.67-.28.21-.13.39-.29.53-.49.14-.2.21-.45.21-.74v-1.38Z"/>
        <path class="cls-4" d="M109.97,43.18h1.75v1.23l.03.03c.28-.46.65-.83,1.1-1.09s.96-.4,1.51-.4c.92,0,1.64.24,2.17.71.53.48.79,1.19.79,2.14v5.75h-1.85v-5.26c-.02-.66-.16-1.14-.42-1.43-.26-.3-.67-.45-1.22-.45-.31,0-.59.06-.84.17-.25.11-.46.27-.63.47-.17.2-.31.43-.41.71-.1.27-.15.56-.15.86v4.94h-1.85v-8.37Z"/>
        <path class="cls-4" d="M127.18,51.54h-1.75v-1.13h-.03c-.25.49-.61.83-1.09,1.04-.48.21-.98.32-1.51.32-.66,0-1.24-.12-1.73-.35-.49-.23-.9-.55-1.22-.95-.32-.4-.57-.87-.73-1.42-.16-.54-.24-1.13-.24-1.76,0-.76.1-1.41.31-1.96.21-.55.48-1,.82-1.36.34-.36.73-.62,1.17-.79.44-.17.88-.25,1.34-.25.26,0,.52.02.79.07.27.05.53.13.78.24.25.11.48.25.69.41.21.17.39.36.53.59h.03v-4.27h1.85v11.56ZM120.72,47.45c0,.36.05.71.14,1.05.09.34.23.65.42.92.19.27.43.49.72.65.29.16.64.24,1.04.24s.77-.09,1.06-.26.54-.4.73-.68c.19-.28.33-.6.42-.95s.14-.71.14-1.08c0-.93-.21-1.65-.62-2.17-.42-.52-.98-.78-1.69-.78-.43,0-.8.09-1.09.27-.3.18-.54.41-.73.7s-.32.61-.41.97c-.08.36-.12.73-.12,1.11Z"/>
        <path class="cls-4" d="M133.96,39.99h5.63c1.04,0,1.87.24,2.5.71.63.47.94,1.19.94,2.15,0,.58-.14,1.08-.43,1.5-.29.42-.69.74-1.22.96v.03c.71.15,1.25.49,1.62,1.01s.55,1.18.55,1.97c0,.45-.08.88-.24,1.27-.16.39-.42.73-.76,1.02s-.79.51-1.33.68c-.54.17-1.18.25-1.93.25h-5.32v-11.56ZM135.98,44.83h3.31c.49,0,.89-.14,1.22-.41.32-.28.49-.67.49-1.19,0-.58-.15-.99-.44-1.23s-.71-.36-1.26-.36h-3.31v3.19ZM135.98,49.89h3.58c.62,0,1.09-.16,1.44-.48.34-.32.51-.77.51-1.35s-.17-1.01-.51-1.32c-.34-.31-.82-.46-1.44-.46h-3.58v3.61Z"/>
        <path class="cls-4" d="M145.16,39.99h1.85v1.75h-1.85v-1.75ZM145.16,43.18h1.85v8.37h-1.85v-8.37Z"/>
        <path class="cls-4" d="M152.86,51.77c-.67,0-1.27-.11-1.79-.33-.52-.22-.97-.53-1.33-.91-.36-.39-.64-.85-.83-1.39-.19-.54-.28-1.13-.28-1.78s.09-1.23.28-1.76c.19-.54.46-1,.83-1.39.36-.39.81-.69,1.33-.91.52-.22,1.12-.33,1.79-.33s1.27.11,1.79.33c.52.22.97.53,1.33.91s.64.85.83,1.39c.19.54.28,1.13.28,1.76s-.09,1.24-.28,1.78c-.19.54-.46,1-.83,1.39s-.81.69-1.33.91c-.52.22-1.12.33-1.79.33ZM152.86,50.31c.41,0,.77-.09,1.07-.26.3-.17.55-.4.75-.68.19-.28.34-.6.43-.95.09-.35.14-.71.14-1.08s-.05-.71-.14-1.07c-.09-.36-.24-.67-.43-.95-.19-.28-.44-.5-.75-.67-.3-.17-.66-.26-1.07-.26s-.77.09-1.07.26-.55.4-.75.67c-.19.28-.34.59-.43.95-.09.36-.14.71-.14,1.07s.05.73.14,1.08.24.67.43.95c.19.28.44.51.75.68s.66.26,1.07.26Z"/>
        <path class="cls-4" d="M160.08,47.84c0,.32.05.64.14.94.09.3.23.57.41.79.18.23.42.41.7.54s.62.2,1.01.2c.54,0,.98-.12,1.31-.35s.58-.58.74-1.04h1.75c-.1.45-.26.86-.5,1.21s-.52.66-.86.9c-.34.24-.71.43-1.13.55-.42.12-.85.19-1.31.19-.66,0-1.24-.11-1.75-.32-.51-.22-.94-.52-1.29-.91-.35-.39-.62-.85-.79-1.39-.18-.54-.27-1.13-.27-1.78,0-.59.09-1.16.28-1.69.19-.53.46-1,.81-1.41.35-.41.78-.73,1.27-.96.5-.24,1.06-.36,1.69-.36.66,0,1.25.14,1.78.41.52.28.96.64,1.31,1.09.35.45.6.97.75,1.56.16.59.2,1.2.12,1.82h-6.16ZM164.4,46.62c-.02-.29-.08-.57-.19-.84-.1-.27-.24-.5-.42-.7-.18-.2-.39-.36-.65-.49-.25-.12-.54-.19-.85-.19s-.62.06-.88.17c-.27.11-.49.27-.68.47-.19.2-.34.43-.45.71-.11.27-.18.56-.19.87h4.31Z"/>
        <path class="cls-4" d="M167.66,43.18h1.75v1.23l.03.03c.28-.46.65-.83,1.1-1.09s.96-.4,1.51-.4c.92,0,1.64.24,2.17.71.53.48.79,1.19.79,2.14v5.75h-1.85v-5.26c-.02-.66-.16-1.14-.42-1.43s-.67-.45-1.22-.45c-.31,0-.59.06-.84.17-.25.11-.46.27-.63.47-.17.2-.31.43-.41.71-.1.27-.15.56-.15.86v4.94h-1.85v-8.37Z"/>
        <path class="cls-4" d="M184.72,51.11c0,1.26-.35,2.2-1.06,2.83-.71.62-1.73.93-3.06.93-.42,0-.85-.04-1.27-.13-.43-.09-.82-.23-1.17-.44s-.65-.47-.88-.81c-.24-.33-.38-.74-.42-1.23h1.85c.05.26.15.47.28.63s.28.29.46.38c.18.09.37.15.59.18.22.03.44.04.68.04.75,0,1.29-.18,1.64-.55.35-.37.52-.9.52-1.59v-1.28h-.03c-.26.46-.61.83-1.06,1.08-.45.26-.93.39-1.45.39-.67,0-1.24-.12-1.71-.35-.47-.23-.86-.55-1.17-.96-.31-.41-.53-.87-.67-1.4-.14-.53-.21-1.1-.21-1.7,0-.56.09-1.09.26-1.6.17-.51.42-.95.75-1.34.32-.38.72-.69,1.19-.91.47-.23,1-.34,1.6-.34.53,0,1.02.11,1.46.33.44.22.78.57,1.02,1.04h.03v-1.15h1.85v7.93ZM180.61,50.09c.41,0,.76-.08,1.05-.25.29-.17.52-.39.7-.66.18-.28.31-.59.39-.94s.12-.7.12-1.06-.04-.7-.13-1.04c-.09-.33-.22-.63-.4-.89-.18-.26-.41-.46-.7-.62-.29-.15-.63-.23-1.03-.23s-.76.09-1.04.26-.51.4-.68.67c-.17.28-.3.59-.37.94-.08.35-.11.7-.11,1.04s.04.68.13,1.01c.09.33.22.62.4.88s.41.47.68.63c.28.16.61.24,1,.24Z"/>
        <path class="cls-4" d="M186.63,39.99h1.85v1.75h-1.85v-1.75ZM186.63,43.18h1.85v8.37h-1.85v-8.37Z"/>
        <path class="cls-4" d="M190.49,43.18h1.75v1.23l.03.03c.28-.46.65-.83,1.1-1.09s.96-.4,1.51-.4c.92,0,1.64.24,2.17.71.53.48.79,1.19.79,2.14v5.75h-1.85v-5.26c-.02-.66-.16-1.14-.42-1.43s-.67-.45-1.22-.45c-.31,0-.59.06-.84.17-.25.11-.46.27-.63.47-.17.2-.31.43-.41.71-.1.27-.15.56-.15.86v4.94h-1.85v-8.37Z"/>
        <path class="cls-4" d="M201.24,47.84c0,.32.05.64.14.94.09.3.23.57.41.79s.42.41.7.54.62.2,1.01.2c.54,0,.98-.12,1.31-.35.33-.23.58-.58.74-1.04h1.75c-.1.45-.27.86-.5,1.21-.24.36-.52.66-.86.9-.34.24-.71.43-1.13.55-.42.12-.85.19-1.31.19-.66,0-1.24-.11-1.75-.32-.51-.22-.94-.52-1.29-.91s-.62-.85-.79-1.39c-.18-.54-.27-1.13-.27-1.78,0-.59.09-1.16.28-1.69.19-.53.46-1,.81-1.41.35-.41.78-.73,1.27-.96.5-.24,1.06-.36,1.69-.36.66,0,1.25.14,1.78.41.52.28.96.64,1.31,1.09.35.45.6.97.75,1.56.16.59.2,1.2.12,1.82h-6.16ZM205.56,46.62c-.02-.29-.08-.57-.19-.84-.1-.27-.24-.5-.42-.7-.18-.2-.39-.36-.65-.49s-.54-.19-.85-.19-.62.06-.88.17c-.27.11-.49.27-.68.47-.19.2-.34.43-.45.71-.11.27-.18.56-.19.87h4.31Z"/>
        <path class="cls-4" d="M210.26,47.84c0,.32.05.64.14.94.09.3.23.57.41.79s.42.41.7.54.62.2,1.01.2c.54,0,.98-.12,1.31-.35.33-.23.58-.58.74-1.04h1.75c-.1.45-.27.86-.5,1.21-.24.36-.52.66-.86.9-.34.24-.71.43-1.13.55-.42.12-.85.19-1.31.19-.66,0-1.24-.11-1.75-.32-.51-.22-.94-.52-1.29-.91s-.62-.85-.79-1.39c-.18-.54-.27-1.13-.27-1.78,0-.59.09-1.16.28-1.69.19-.53.46-1,.81-1.41.35-.41.78-.73,1.27-.96.5-.24,1.06-.36,1.69-.36.66,0,1.25.14,1.78.41.52.28.96.64,1.31,1.09.35.45.6.97.75,1.56.16.59.2,1.2.12,1.82h-6.16ZM214.57,46.62c-.02-.29-.08-.57-.19-.84-.1-.27-.24-.5-.42-.7-.18-.2-.39-.36-.65-.49s-.54-.19-.85-.19-.62.06-.88.17c-.27.11-.49.27-.68.47-.19.2-.34.43-.45.71-.11.27-.18.56-.19.87h4.31Z"/>
        <path class="cls-4" d="M217.83,43.18h1.74v1.62h.03c.05-.23.16-.45.32-.66.16-.22.35-.41.57-.59.22-.18.47-.32.74-.43.27-.11.55-.16.83-.16.22,0,.37,0,.45.02s.17.02.25.03v1.78c-.13-.02-.26-.04-.4-.06-.13-.02-.27-.02-.4-.02-.31,0-.61.06-.88.19-.28.12-.52.31-.72.55-.21.24-.37.54-.49.9-.12.36-.18.77-.18,1.23v3.98h-1.85v-8.37Z"/>
        <path class="cls-4" d="M223.59,39.99h1.85v1.75h-1.85v-1.75ZM223.59,43.18h1.85v8.37h-1.85v-8.37Z"/>
        <path class="cls-4" d="M227.45,43.18h1.75v1.23l.03.03c.28-.46.65-.83,1.1-1.09s.96-.4,1.51-.4c.92,0,1.64.24,2.17.71.53.48.79,1.19.79,2.14v5.75h-1.85v-5.26c-.02-.66-.16-1.14-.42-1.43s-.67-.45-1.22-.45c-.31,0-.59.06-.84.17-.25.11-.46.27-.63.47-.17.2-.31.43-.41.71-.1.27-.15.56-.15.86v4.94h-1.85v-8.37Z"/>
        <path class="cls-4" d="M244.51,51.11c0,1.26-.35,2.2-1.06,2.83-.71.62-1.73.93-3.06.93-.42,0-.85-.04-1.27-.13-.43-.09-.82-.23-1.17-.44s-.65-.47-.88-.81c-.24-.33-.38-.74-.42-1.23h1.85c.05.26.15.47.28.63s.28.29.46.38.38.15.59.18c.22.03.44.04.68.04.75,0,1.29-.18,1.64-.55.35-.37.52-.9.52-1.59v-1.28h-.03c-.26.46-.61.83-1.06,1.08-.45.26-.93.39-1.45.39-.67,0-1.24-.12-1.71-.35-.47-.23-.86-.55-1.17-.96-.31-.41-.53-.87-.67-1.4-.14-.53-.21-1.1-.21-1.7,0-.56.09-1.09.26-1.6.17-.51.42-.95.75-1.34.32-.38.72-.69,1.19-.91.47-.23,1-.34,1.6-.34.53,0,1.02.11,1.46.33.44.22.78.57,1.02,1.04h.03v-1.15h1.85v7.93ZM240.41,50.09c.41,0,.76-.08,1.05-.25.29-.17.52-.39.7-.66.18-.28.31-.59.39-.94s.12-.7.12-1.06-.04-.7-.13-1.04c-.09-.33-.22-.63-.4-.89-.18-.26-.41-.46-.7-.62-.29-.15-.63-.23-1.03-.23s-.76.09-1.04.26-.51.4-.68.67c-.17.28-.3.59-.37.94-.08.35-.11.7-.11,1.04s.04.68.13,1.01c.09.33.22.62.4.88s.41.47.68.63c.28.16.61.24,1,.24Z"/>
      </g>
      <path class="cls-3" d="M65.67,55.08l15.08-27.1L65.72.92h3.76c2.06,0,4.56,1.47,5.56,3.26l13.22,23.79-13.26,23.84c-1,1.79-3.5,3.26-5.56,3.26h-3.77Z"/>
      <g>
        <path class="cls-4" d="M61.99,15.96v24.21h-4.26v-10.92h-11.07v10.92h-4.26V15.96h4.26v9.63h11.07v-9.63h4.26ZM38.14,40.16h-4.26V15.96h4.26v24.21ZM29.69,40.16h-4.5l-11.07-17.8h-.1v17.8h-4.06V15.96h4.5l11.11,17.83h.07V15.96h4.05v24.21ZM77,27.98L61.95.92H6.54C3.77.92,1.53,3.16,1.53,5.91v44.18c0,2.75,2.24,4.98,5.01,4.98h55.36l15.1-27.1Z"/>
        <path class="cls-1" d="M65.68,55.08l15.08-27.1L65.72.92h3.76c2.06,0,4.56,1.47,5.56,3.26l13.22,23.79-13.26,23.84c-1,1.79-3.5,3.26-5.56,3.26h-3.77Z"/>
      </g>
      <line class="cls-2" x1="259.56" y1="7.17" x2="259.56" y2="48.83"/>
    </g>
  </g>
</svg>