<svg
  id="Layer_1"
  data-name="Layer 1"
  xmlns="http://www.w3.org/2000/svg"
  width="345"
  height="51"
  viewBox="0 0 345 51">
  <defs>
    <style>
      .cls-1 {
        fill: #68a2b9;
      }

      .cls-2 {
        fill: #636569;
      }
    </style>
  </defs>
  <g>
    <path class="cls-2" d="M56.028,13.998v22.543h-3.946v-10.167h-10.259v10.167h-3.947V13.998h3.947v8.967h10.259v-8.967h3.946ZM33.929,36.541h-3.947V13.998h3.947v22.543ZM26.094,36.541h-4.167l-10.261-16.576h-.092v16.576h-3.759V13.998h4.169l10.291,16.606h.062V13.998h3.757v22.543ZM69.934,25.191L55.991,0H4.641C2.078,0,0,2.082,0,4.645v41.139c0,2.564,2.078,4.642,4.641,4.642h51.304l13.989-25.233Z"/>
    <path class="cls-2" d="M59.443,50.426l13.974-25.234L59.489,0h3.486c1.909,0,4.23,1.37,5.15,3.039l12.248,22.152-12.29,22.2c-.923,1.668-3.242,3.034-5.151,3.034h-3.49Z"/>
    <path class="cls-1" d="M59.444,50.426l13.974-25.234L59.488,0h3.488c1.907,0,4.229,1.37,5.15,3.039l12.247,22.152-12.288,22.2c-.924,1.668-3.244,3.034-5.151,3.034h-3.489Z"/>
  </g>
  <g>
    <g>
      <path class="cls-2" d="M88.007,11.818h7.284l-.308,1.513h-5.561l-.546,2.619h5.155l-.294,1.429h-5.169l-.602,2.928h5.603l-.308,1.513h-7.326l2.073-10.001Z"/>
      <path class="cls-2" d="M100.658,21.819h-1.499l.224-1.051-.028-.027c-.574.798-1.499,1.274-2.494,1.274-1.457,0-2.115-.757-2.115-1.919,0-.267.014-.644.07-.896l.967-4.623h1.597l-.924,4.469c-.056.238-.112.477-.112.672,0,.238-.07,1.037,1.107,1.037,1.233,0,2.073-1.177,2.297-2.255l.812-3.923h1.597l-1.498,7.242Z"/>
      <path class="cls-2" d="M103.642,14.577h1.499l-.224,1.051.028.028c.574-.799,1.499-1.275,2.494-1.275,1.457,0,2.115.757,2.115,1.92,0,.266-.014.644-.07.896l-.966,4.622h-1.597l.925-4.469c.056-.237.112-.476.112-.672,0-.238.056-1.037-1.106-1.037-.63,0-1.121.309-1.513.701-.364.378-.658.966-.784,1.555l-.813,3.922h-1.597l1.498-7.242Z"/>
      <path class="cls-2" d="M111.446,14.577h1.597l-1.499,7.242h-1.597l1.499-7.242ZM112.02,11.818h1.582l-.308,1.513h-1.583l.309-1.513Z"/>
      <path class="cls-2" d="M118.814,16.973c.028-.896-.56-1.331-1.429-1.331-1.597,0-2.381,1.835-2.381,3.222,0,1.079.42,1.892,1.611,1.892.939,0,1.555-.56,1.821-1.429h1.597c-.518,1.849-1.793,2.689-3.684,2.689s-2.942-1.261-2.942-3.096c0-2.438,1.541-4.539,4.118-4.539,1.611,0,2.942.896,2.886,2.592h-1.597Z"/>
      <path class="cls-2" d="M127.57,19.578c-.504,1.681-1.765,2.438-3.488,2.438-1.835,0-3.165-1.205-3.165-3.166,0-2.227,1.429-4.469,4.02-4.469,2.578,0,3.081,1.92,3.081,3.334,0,.351-.042.658-.084.896h-5.392c-.028.168-.028.322-.028.463,0,.994.519,1.681,1.723,1.681.854,0,1.513-.42,1.737-1.177h1.597ZM126.407,17.561c.014-.168.014-.308.014-.447,0-.854-.574-1.472-1.527-1.472-1.19,0-1.877.799-2.199,1.919h3.712Z"/>
      <path class="cls-2" d="M134.043,11.818h1.751l-.938,4.538.028.028,5.099-4.566h2.339l-4.805,4.132,3.138,5.869h-1.989l-2.507-4.776-1.765,1.513-.672,3.264h-1.751l2.073-10.001Z"/>
      <path class="cls-2" d="M148.108,19.578c-.504,1.681-1.765,2.438-3.488,2.438-1.835,0-3.166-1.205-3.166-3.166,0-2.227,1.429-4.469,4.02-4.469,2.578,0,3.081,1.92,3.081,3.334,0,.351-.042.658-.084.896h-5.393c-.028.168-.028.322-.028.463,0,.994.519,1.681,1.723,1.681.854,0,1.513-.42,1.737-1.177h1.597ZM146.946,17.561c.014-.168.014-.308.014-.447,0-.854-.574-1.472-1.527-1.472-1.19,0-1.877.799-2.199,1.919h3.712Z"/>
      <path class="cls-2" d="M150.183,14.577h1.499l-.224,1.051.028.028c.574-.799,1.499-1.275,2.494-1.275,1.456,0,2.115.757,2.115,1.92,0,.266-.014.644-.07.896l-.966,4.622h-1.597l.925-4.469c.056-.237.112-.476.112-.672,0-.238.056-1.037-1.106-1.037-.63,0-1.121.309-1.513.701-.364.378-.659.966-.785,1.555l-.812,3.922h-1.597l1.499-7.242Z"/>
      <path class="cls-2" d="M157.986,14.577h1.499l-.224,1.051.028.028c.574-.799,1.499-1.275,2.494-1.275,1.457,0,2.115.757,2.115,1.92,0,.266-.014.644-.07.896l-.966,4.622h-1.597l.925-4.469c.056-.237.112-.476.112-.672,0-.238.056-1.037-1.106-1.037-.63,0-1.121.309-1.513.701-.364.378-.658.966-.784,1.555l-.812,3.922h-1.597l1.498-7.242Z"/>
      <path class="cls-2" d="M171.252,19.578c-.504,1.681-1.765,2.438-3.488,2.438-1.835,0-3.165-1.205-3.165-3.166,0-2.227,1.429-4.469,4.02-4.469,2.578,0,3.081,1.92,3.081,3.334,0,.351-.042.658-.084.896h-5.393c-.028.168-.028.322-.028.463,0,.994.518,1.681,1.723,1.681.854,0,1.513-.42,1.737-1.177h1.597ZM170.09,17.561c.014-.168.014-.308.014-.447,0-.854-.574-1.472-1.527-1.472-1.19,0-1.877.799-2.199,1.919h3.712Z"/>
      <path class="cls-2" d="M178.552,21.819h-1.527l.225-.98-.028-.028c-.63.938-1.415,1.205-2.269,1.205-.827,0-2.816-.252-2.816-2.97,0-2.339,1.443-4.665,3.936-4.665.967,0,1.808.309,2.185,1.191h.029l.798-3.754h1.597l-2.129,10.001ZM176.268,15.642c-1.779,0-2.535,1.779-2.535,3.404,0,1.078.56,1.709,1.652,1.709,1.639,0,2.479-1.919,2.479-3.376,0-.952-.462-1.737-1.597-1.737Z"/>
      <path class="cls-2" d="M180.724,14.577h1.682l.756,5.295h.028l2.731-5.295h1.709l-4.146,7.466c-.756,1.373-1.303,2.648-3.096,2.648-.322,0-.645-.042-.967-.111l.295-1.331c.195.056.42.112.616.112.476,0,.841-.154,1.036-.616l.631-1.163-1.275-7.004Z"/>
      <path class="cls-2" d="M192.59,18.514c-.069,1.555.841,2.115,2.298,2.115.952,0,2.226-.435,2.226-1.597,0-1.135-1.162-1.415-2.394-1.751-.883-.238-2.732-.687-2.732-2.592,0-1.807,1.359-3.109,3.726-3.109,2.087,0,3.781.84,3.697,3.193h-1.68c-.015-1.246-.687-1.765-2.046-1.765-.476,0-1.946.14-1.946,1.471,0,.98.981,1.219,2.086,1.499,1.416.364,3.04.742,3.04,2.843,0,1.556-1.134,3.236-4.16,3.236-2.352,0-3.866-1.051-3.796-3.544h1.681Z"/>
      <path class="cls-2" d="M201.473,11.818h1.597l-.785,3.781h.029c.546-.729,1.471-1.219,2.381-1.219,1.457,0,2.115.757,2.115,1.92,0,.266-.014.644-.07.896l-.967,4.622h-1.597l.925-4.469c.056-.237.111-.476.111-.672,0-.238.057-1.037-1.105-1.037-.631,0-1.121.309-1.514.701-.363.378-.658.966-.784,1.555l-.812,3.922h-1.597l2.073-10.001Z"/>
      <path class="cls-2" d="M208.701,14.577h1.513l-.294,1.415.028.028c.434-.799,1.33-1.64,2.311-1.64.252,0,.519,0,.771.043l-.337,1.526c-.183-.028-.378-.056-.56-.056-1.653,0-2.354,1.261-2.662,2.717l-.672,3.208h-1.598l1.499-7.242Z"/>
      <path class="cls-2" d="M213.646,14.577h1.597l-1.498,7.242h-1.598l1.499-7.242ZM214.221,11.818h1.583l-.309,1.513h-1.582l.308-1.513Z"/>
      <path class="cls-2" d="M215.917,14.577h1.652l.602,5.281h.028l2.801-5.281h1.682l-4.006,7.242h-1.779l-.98-7.242Z"/>
      <path class="cls-2" d="M229.001,19.578c-.504,1.681-1.766,2.438-3.488,2.438-1.835,0-3.166-1.205-3.166-3.166,0-2.227,1.43-4.469,4.02-4.469,2.577,0,3.081,1.92,3.081,3.334,0,.351-.041.658-.084.896h-5.393c-.027.168-.027.322-.027.463,0,.994.518,1.681,1.723,1.681.854,0,1.513-.42,1.736-1.177h1.598ZM227.838,17.561c.015-.168.015-.308.015-.447,0-.854-.574-1.472-1.527-1.472-1.19,0-1.877.799-2.199,1.919h3.712Z"/>
      <path class="cls-2" d="M231.089,14.577h1.514l-.295,1.415.028.028c.435-.799,1.331-1.64,2.311-1.64.252,0,.518,0,.77.043l-.336,1.526c-.182-.028-.378-.056-.56-.056-1.652,0-2.353,1.261-2.661,2.717l-.673,3.208h-1.596l1.498-7.242Z"/>
    </g>
    <g>
      <path class="cls-2" d="M238.778,12.45h1.732l4.277,6.902h.026v-6.902h1.561v9.369h-1.732l-4.265-6.89h-.04v6.89h-1.56v-9.369Z"/>
      <path class="cls-2" d="M253.561,20.311c0,.367.079.512.354.512.092,0,.21,0,.368-.026v1.036c-.224.079-.696.171-.945.171-.603,0-1.037-.21-1.154-.826-.592.577-1.549.826-2.35.826-1.221,0-2.322-.656-2.322-1.982,0-1.692,1.351-1.969,2.611-2.112,1.076-.197,2.033-.079,2.033-.958,0-.774-.801-.919-1.404-.919-.84,0-1.43.341-1.496,1.076h-1.495c.104-1.745,1.587-2.257,3.083-2.257,1.326,0,2.717.538,2.717,1.968v3.491ZM252.065,18.421c-.459.302-1.181.288-1.837.406-.644.105-1.22.342-1.22,1.129,0,.669.853.866,1.377.866.656,0,1.68-.342,1.68-1.286v-1.115Z"/>
      <path class="cls-2" d="M254.267,15.035h1.129v-2.034h1.496v2.034h1.351v1.115h-1.351v3.622c0,.616.053.932.721.932.211,0,.42,0,.631-.053v1.155c-.328.025-.643.078-.972.078-1.561,0-1.85-.603-1.876-1.732v-4.002h-1.129v-1.115Z"/>
      <path class="cls-2" d="M259.12,12.45h1.496v1.417h-1.496v-1.417ZM259.12,15.035h1.496v6.784h-1.496v-6.784Z"/>
      <path class="cls-2" d="M261.702,18.421c0-2.073,1.248-3.569,3.426-3.569s3.425,1.496,3.425,3.569c0,2.086-1.247,3.582-3.425,3.582s-3.426-1.496-3.426-3.582ZM267.058,18.421c0-1.168-.592-2.389-1.93-2.389s-1.93,1.221-1.93,2.389c0,1.181.592,2.401,1.93,2.401s1.93-1.221,1.93-2.401Z"/>
      <path class="cls-2" d="M269.571,15.035h1.418v.997l.026.026c.446-.748,1.22-1.207,2.112-1.207,1.471,0,2.402.787,2.402,2.31v4.658h-1.496v-4.265c-.027-1.064-.447-1.522-1.326-1.522-.997,0-1.641.787-1.641,1.785v4.002h-1.496v-6.784Z"/>
      <path class="cls-2" d="M282.559,20.311c0,.367.078.512.353.512.092,0,.211,0,.367-.026v1.036c-.223.079-.695.171-.943.171-.604,0-1.037-.21-1.156-.826-.59.577-1.548.826-2.348.826-1.221,0-2.323-.656-2.323-1.982,0-1.692,1.352-1.969,2.611-2.112,1.076-.197,2.034-.079,2.034-.958,0-.774-.801-.919-1.404-.919-.84,0-1.43.341-1.496,1.076h-1.496c.105-1.745,1.588-2.257,3.084-2.257,1.326,0,2.717.538,2.717,1.968v3.491ZM281.063,18.421c-.459.302-1.182.288-1.838.406-.642.105-1.22.342-1.22,1.129,0,.669.853.866,1.378.866.656,0,1.68-.342,1.68-1.286v-1.115Z"/>
      <path class="cls-2" d="M283.974,12.45h1.494v9.369h-1.494v-9.369Z"/>
      <path class="cls-2" d="M290.491,12.45h1.641v9.369h-1.641v-9.369Z"/>
      <path class="cls-2" d="M293.69,15.035h1.418v.997l.025.026c.447-.748,1.221-1.207,2.113-1.207,1.471,0,2.402.787,2.402,2.31v4.658h-1.496v-4.265c-.027-1.064-.447-1.522-1.326-1.522-.996,0-1.641.787-1.641,1.785v4.002h-1.496v-6.784Z"/>
      <path class="cls-2" d="M302.126,19.641c.078.866.734,1.182,1.535,1.182.564,0,1.549-.118,1.508-.893-.039-.787-1.127-.879-2.217-1.129-1.102-.235-2.178-.63-2.178-2.008,0-1.482,1.6-1.941,2.834-1.941,1.391,0,2.65.577,2.834,2.086h-1.56c-.133-.708-.723-.905-1.379-.905-.434,0-1.232.105-1.232.695,0,.735,1.101.84,2.203,1.09,1.09.249,2.191.643,2.191,1.981,0,1.613-1.627,2.204-3.031,2.204-1.705,0-2.979-.761-3.004-2.362h1.496Z"/>
      <path class="cls-2" d="M306.897,15.035h1.129v-2.034h1.496v2.034h1.352v1.115h-1.352v3.622c0,.616.053.932.721.932.211,0,.42,0,.631-.053v1.155c-.328.025-.643.078-.971.078-1.562,0-1.852-.603-1.877-1.732v-4.002h-1.129v-1.115Z"/>
      <path class="cls-2" d="M311.751,12.45h1.496v1.417h-1.496v-1.417ZM311.751,15.035h1.496v6.784h-1.496v-6.784Z"/>
      <path class="cls-2" d="M313.954,15.035h1.129v-2.034h1.496v2.034h1.351v1.115h-1.351v3.622c0,.616.053.932.721.932.211,0,.42,0,.631-.053v1.155c-.328.025-.643.078-.971.078-1.562,0-1.851-.603-1.877-1.732v-4.002h-1.129v-1.115Z"/>
      <path class="cls-2" d="M324.739,21.819h-1.471v-.945h-.025c-.367.683-1.182,1.129-1.93,1.129-1.771,0-2.533-.893-2.533-2.664v-4.304h1.496v4.159c0,1.194.486,1.628,1.299,1.628,1.248,0,1.668-.801,1.668-1.851v-3.936h1.496v6.784Z"/>
      <path class="cls-2" d="M325.403,15.035h1.129v-2.034h1.496v2.034h1.351v1.115h-1.351v3.622c0,.616.053.932.721.932.211,0,.42,0,.631-.053v1.155c-.328.025-.642.078-.971.078-1.562,0-1.851-.603-1.877-1.732v-4.002h-1.129v-1.115Z"/>
      <path class="cls-2" d="M331.397,18.815c0,1.062.578,2.008,1.824,2.008.867,0,1.391-.381,1.654-1.129h1.416c-.328,1.483-1.588,2.31-3.07,2.31-2.125,0-3.32-1.483-3.32-3.569,0-1.929,1.26-3.582,3.281-3.582,2.139,0,3.451,1.929,3.201,3.963h-4.986ZM334.89,17.83c-.053-.944-.697-1.798-1.707-1.798-1.037,0-1.744.787-1.785,1.798h3.492Z"/>
    </g>
    <g>
      <path class="cls-2" d="M86.425,35.941c0-2.213,1.33-3.81,3.656-3.81s3.656,1.598,3.656,3.81c0,2.228-1.331,3.824-3.656,3.824s-3.656-1.597-3.656-3.824ZM92.14,35.941c0-1.247-.63-2.55-2.059-2.55s-2.059,1.303-2.059,2.55c0,1.261.63,2.564,2.059,2.564s2.059-1.303,2.059-2.564Z"/>
      <path class="cls-2" d="M94.116,32.327h1.191v-.603c0-1.849.966-2.156,2.003-2.156.504,0,.869.027,1.121.098v1.247c-.21-.057-.42-.085-.743-.085-.434,0-.784.154-.784.757v.742h1.359v1.19h-1.359v6.052h-1.597v-6.052h-1.191v-1.19Z"/>
      <path class="cls-2" d="M109.638,32.748c-.295-1.149-1.037-1.989-2.494-1.989-2.143,0-3.039,1.891-3.039,3.81s.896,3.81,3.039,3.81c1.555,0,2.41-1.163,2.549-2.619h1.709c-.14,2.395-1.835,4.048-4.258,4.048-2.998,0-4.79-2.382-4.79-5.239s1.793-5.238,4.79-5.238c2.255.014,4.034,1.261,4.245,3.418h-1.751Z"/>
      <path class="cls-2" d="M112.538,29.568h1.597v3.712h.028c.392-.659,1.219-1.149,2.171-1.149,1.569,0,2.563.841,2.563,2.466v4.973h-1.597v-4.553c-.028-1.135-.476-1.625-1.415-1.625-1.065,0-1.751.841-1.751,1.905v4.273h-1.597v-10.001Z"/>
      <path class="cls-2" d="M120.384,29.568h1.597v1.513h-1.597v-1.513ZM120.384,32.327h1.597v7.242h-1.597v-7.242Z"/>
      <path class="cls-2" d="M123.508,29.568h1.597v10.001h-1.597v-10.001Z"/>
      <path class="cls-2" d="M133.426,39.569h-1.513v-.98h-.028c-.42.826-1.331,1.177-2.241,1.177-2.283,0-3.39-1.695-3.39-3.866,0-2.619,1.555-3.769,3.138-3.769.911,0,1.919.337,2.409,1.135h.028v-3.697h1.597v10.001ZM129.854,38.505c1.429,0,2.031-1.303,2.031-2.564,0-1.597-.77-2.55-2.003-2.55-1.498,0-2.031,1.331-2.031,2.634,0,1.247.617,2.479,2.003,2.479Z"/>
      <path class="cls-2" d="M138.736,29.568h1.751v3.978h4.553v-3.978h1.751v10.001h-1.751v-4.511h-4.553v4.511h-1.751v-10.001Z"/>
      <path class="cls-2" d="M149.678,36.361c0,1.135.617,2.144,1.947,2.144.924,0,1.485-.406,1.765-1.205h1.513c-.35,1.583-1.695,2.466-3.278,2.466-2.269,0-3.544-1.583-3.544-3.81,0-2.059,1.345-3.824,3.502-3.824,2.283,0,3.684,2.06,3.418,4.23h-5.323ZM153.404,35.311c-.056-1.008-.742-1.919-1.821-1.919-1.106,0-1.863.841-1.905,1.919h3.726Z"/>
      <path class="cls-2" d="M162.034,37.958c0,.393.084.547.378.547.098,0,.224,0,.392-.028v1.106c-.238.084-.743.183-1.009.183-.644,0-1.106-.225-1.232-.883-.63.616-1.653.883-2.507.883-1.303,0-2.479-.7-2.479-2.115,0-1.807,1.443-2.102,2.788-2.255,1.148-.211,2.171-.085,2.171-1.023,0-.826-.854-.98-1.498-.98-.896,0-1.527.364-1.597,1.149h-1.597c.112-1.863,1.695-2.41,3.292-2.41,1.415,0,2.899.575,2.899,2.102v3.726ZM160.437,35.941c-.491.322-1.261.309-1.961.435-.686.111-1.303.364-1.303,1.204,0,.715.911.925,1.471.925.7,0,1.793-.364,1.793-1.373v-1.191Z"/>
      <path class="cls-2" d="M163.561,29.568h1.597v10.001h-1.597v-10.001Z"/>
      <path class="cls-2" d="M165.915,32.327h1.205v-2.171h1.597v2.171h1.443v1.19h-1.443v3.866c0,.659.056.995.77.995.224,0,.448,0,.672-.057v1.233c-.35.027-.686.084-1.037.084-1.667,0-1.975-.645-2.003-1.85v-4.272h-1.205v-1.19Z"/>
      <path class="cls-2" d="M171.057,29.568h1.597v3.712h.028c.392-.659,1.219-1.149,2.171-1.149,1.569,0,2.563.841,2.563,2.466v4.973h-1.597v-4.553c-.027-1.135-.477-1.625-1.414-1.625-1.065,0-1.752.841-1.752,1.905v4.273h-1.597v-10.001Z"/>
      <path class="cls-2" d="M188.567,37.958c0,.393.084.547.379.547.098,0,.224,0,.393-.028v1.106c-.238.084-.743.183-1.01.183-.644,0-1.105-.225-1.232-.883-.63.616-1.652.883-2.507.883-1.303,0-2.479-.7-2.479-2.115,0-1.807,1.443-2.102,2.787-2.255,1.148-.211,2.172-.085,2.172-1.023,0-.826-.855-.98-1.499-.98-.896,0-1.526.364-1.597,1.149h-1.598c.113-1.863,1.695-2.41,3.293-2.41,1.414,0,2.898.575,2.898,2.102v3.726ZM186.972,35.941c-.491.322-1.262.309-1.962.435-.687.111-1.303.364-1.303,1.204,0,.715.911.925,1.472.925.699,0,1.793-.364,1.793-1.373v-1.191Z"/>
      <path class="cls-2" d="M190.04,32.327h1.513v1.064l.028.028c.477-.799,1.303-1.289,2.256-1.289,1.568,0,2.562.841,2.562,2.466v4.973h-1.597v-4.553c-.028-1.135-.476-1.625-1.415-1.625-1.065,0-1.75.841-1.75,1.905v4.273h-1.598v-7.242Z"/>
      <path class="cls-2" d="M204.665,39.569h-1.513v-.98h-.028c-.42.826-1.33,1.177-2.241,1.177-2.283,0-3.39-1.695-3.39-3.866,0-2.619,1.555-3.769,3.138-3.769.911,0,1.919.337,2.409,1.135h.028v-3.697h1.597v10.001ZM201.093,38.505c1.43,0,2.031-1.303,2.031-2.564,0-1.597-.769-2.55-2.003-2.55-1.499,0-2.031,1.331-2.031,2.634,0,1.247.616,2.479,2.003,2.479Z"/>
      <path class="cls-2" d="M209.989,29.568h1.752v3.978h4.553v-3.978h1.75v10.001h-1.75v-4.511h-4.553v4.511h-1.752v-10.001Z"/>
      <path class="cls-2" d="M226.044,39.569h-1.568v-1.009h-.028c-.392.728-1.261,1.205-2.059,1.205-1.891,0-2.703-.953-2.703-2.844v-4.595h1.598v4.44c0,1.275.518,1.737,1.387,1.737,1.33,0,1.778-.854,1.778-1.976v-4.202h1.597v7.242Z"/>
      <path class="cls-2" d="M227.487,32.327h1.514v1.009h.042c.476-.715,1.078-1.205,2.228-1.205.882,0,1.709.379,2.031,1.205.531-.742,1.218-1.205,2.269-1.205,1.526,0,2.423.673,2.423,2.438v5.001h-1.597v-4.23c0-1.148-.069-1.947-1.316-1.947-1.079,0-1.541.715-1.541,1.934v4.244h-1.597v-4.65c0-.995-.309-1.527-1.275-1.527-.826,0-1.582.673-1.582,1.877v4.301h-1.598v-7.242Z"/>
      <path class="cls-2" d="M245.503,37.958c0,.393.084.547.379.547.098,0,.224,0,.393-.028v1.106c-.238.084-.743.183-1.01.183-.643,0-1.105-.225-1.232-.883-.63.616-1.652.883-2.507.883-1.303,0-2.479-.7-2.479-2.115,0-1.807,1.443-2.102,2.787-2.255,1.148-.211,2.172-.085,2.172-1.023,0-.826-.855-.98-1.499-.98-.896,0-1.526.364-1.597,1.149h-1.598c.113-1.863,1.695-2.41,3.293-2.41,1.414,0,2.898.575,2.898,2.102v3.726ZM243.907,35.941c-.491.322-1.262.309-1.962.435-.687.111-1.303.364-1.303,1.204,0,.715.911.925,1.472.925.699,0,1.793-.364,1.793-1.373v-1.191Z"/>
      <path class="cls-2" d="M246.989,32.327h1.513v1.064l.028.028c.477-.799,1.303-1.289,2.256-1.289,1.568,0,2.562.841,2.562,2.466v4.973h-1.597v-4.553c-.028-1.135-.476-1.625-1.415-1.625-1.064,0-1.75.841-1.75,1.905v4.273h-1.598v-7.242Z"/>
      <path class="cls-2" d="M258.659,29.568h4.146c3.082,0,4.412,2.241,4.412,5s-1.33,5.001-4.412,5.001h-4.146v-10.001ZM260.41,38.141h1.724c2.745,0,3.333-1.569,3.333-3.572s-.588-3.571-3.333-3.571h-1.724v7.144Z"/>
      <path class="cls-2" d="M269.559,36.361c0,1.135.616,2.144,1.947,2.144.925,0,1.484-.406,1.765-1.205h1.513c-.35,1.583-1.694,2.466-3.277,2.466-2.269,0-3.544-1.583-3.544-3.81,0-2.059,1.345-3.824,3.502-3.824,2.283,0,3.684,2.06,3.418,4.23h-5.323ZM273.285,35.311c-.057-1.008-.743-1.919-1.821-1.919-1.106,0-1.863.841-1.905,1.919h3.726Z"/>
      <path class="cls-2" d="M275.149,32.327h1.737l1.835,5.561h.027l1.766-5.561h1.652l-2.591,7.242h-1.793l-2.634-7.242Z"/>
      <path class="cls-2" d="M284.142,36.361c0,1.135.616,2.144,1.947,2.144.925,0,1.484-.406,1.765-1.205h1.513c-.35,1.583-1.694,2.466-3.277,2.466-2.269,0-3.544-1.583-3.544-3.81,0-2.059,1.345-3.824,3.502-3.824,2.283,0,3.684,2.06,3.418,4.23h-5.323ZM287.869,35.311c-.057-1.008-.743-1.919-1.821-1.919-1.106,0-1.863.841-1.905,1.919h3.727Z"/>
      <path class="cls-2" d="M290.49,29.568h1.597v10.001h-1.597v-10.001Z"/>
      <path class="cls-2" d="M293.235,35.941c0-2.213,1.331-3.81,3.656-3.81s3.656,1.598,3.656,3.81c0,2.228-1.331,3.824-3.656,3.824s-3.656-1.597-3.656-3.824ZM298.951,35.941c0-1.247-.631-2.55-2.059-2.55s-2.059,1.303-2.059,2.55c0,1.261.63,2.564,2.059,2.564s2.059-1.303,2.059-2.564Z"/>
      <path class="cls-2" d="M301.684,32.327h1.513v.98h.027c.448-.826,1.317-1.177,2.241-1.177,2.284,0,3.391,1.737,3.391,3.853,0,1.947-.98,3.782-3.124,3.782-.925,0-1.919-.336-2.423-1.135h-.028v3.614h-1.597v-9.918ZM305.255,33.392c-1.345,0-2.031,1.022-2.031,2.564,0,1.457.743,2.55,2.031,2.55,1.457,0,2.003-1.289,2.003-2.55,0-1.316-.686-2.564-2.003-2.564Z"/>
      <path class="cls-2" d="M309.949,32.327h1.513v1.009h.042c.476-.715,1.078-1.205,2.226-1.205.883,0,1.709.379,2.031,1.205.532-.742,1.219-1.205,2.269-1.205,1.526,0,2.423.673,2.423,2.438v5.001h-1.597v-4.23c0-1.148-.069-1.947-1.316-1.947-1.079,0-1.541.715-1.541,1.934v4.244h-1.597v-4.65c0-.995-.309-1.527-1.274-1.527-.827,0-1.583.673-1.583,1.877v4.301h-1.597v-7.242Z"/>
      <path class="cls-2" d="M323.132,36.361c0,1.135.616,2.144,1.947,2.144.925,0,1.484-.406,1.765-1.205h1.513c-.35,1.583-1.694,2.466-3.277,2.466-2.27,0-3.544-1.583-3.544-3.81,0-2.059,1.345-3.824,3.502-3.824,2.283,0,3.684,2.06,3.418,4.23h-5.323ZM326.858,35.311c-.057-1.008-.743-1.919-1.821-1.919-1.106,0-1.863.841-1.905,1.919h3.727Z"/>
      <path class="cls-2" d="M329.437,32.327h1.513v1.064l.027.028c.477-.799,1.303-1.289,2.256-1.289,1.568,0,2.563.841,2.563,2.466v4.973h-1.597v-4.553c-.028-1.135-.477-1.625-1.415-1.625-1.064,0-1.751.841-1.751,1.905v4.273h-1.597v-7.242Z"/>
      <path class="cls-2" d="M336.512,32.327h1.204v-2.171h1.598v2.171h1.442v1.19h-1.442v3.866c0,.659.056.995.77.995.225,0,.448,0,.673-.057v1.233c-.351.027-.686.084-1.037.084-1.666,0-1.975-.645-2.003-1.85v-4.272h-1.204v-1.19Z"/>
    </g>
  </g>
</svg>
